<svg width="136" height="41" viewBox="0 0 136 41" fill="none" xmlns="http://www.w3.org/2000/svg">
<g clip-path="url(#clip0_3300_2227)">
<path d="M118.5 0.399902H17.9C17.5 0.399902 17.2 0.399902 16.8 0.399902C16.5 0.399902 16.2 0.399902 15.9 0.399902C15.2 0.399902 14.6 0.499902 13.9 0.599902C13.2 0.699902 12.6 0.899902 12 1.1999C11.4 1.4999 10.9 1.8999 10.4 2.3999C9.90002 2.7999 9.50002 3.3999 9.20002 3.9999C8.90002 4.5999 8.70003 5.1999 8.60003 5.8999C8.50003 6.5999 8.40002 7.1999 8.40002 7.8999C8.40002 8.1999 8.40002 8.4999 8.40002 8.7999V31.8999C8.40002 32.1999 8.40002 32.4999 8.40002 32.7999C8.40002 33.4999 8.50003 34.0999 8.60003 34.7999C8.70003 35.4999 8.90002 36.0999 9.20002 36.6999C9.50002 37.2999 9.90002 37.7999 10.4 38.2999C10.9 38.7999 11.4 39.1999 12 39.4999C12.6 39.7999 13.2 39.9999 13.9 40.0999C14.6 40.1999 15.2 40.2999 15.9 40.2999C16.2 40.2999 16.5 40.2999 16.8 40.2999C17.2 40.2999 17.5 40.2999 17.9 40.2999H118.5C118.9 40.2999 119.2 40.2999 119.6 40.2999C119.9 40.2999 120.2 40.2999 120.5 40.2999C121.2 40.2999 121.8 40.1999 122.5 40.0999C123.2 39.9999 123.8 39.7999 124.4 39.4999C125 39.1999 125.5 38.7999 126 38.2999C126.5 37.7999 126.9 37.2999 127.2 36.6999C127.5 36.0999 127.7 35.4999 127.8 34.7999C127.9 34.0999 128 33.4999 128 32.7999C128 32.4999 128 32.1999 128 31.8999C128 31.4999 128 31.1999 128 30.7999V9.8999C128 9.4999 128 9.1999 128 8.7999C128 8.4999 128 8.1999 128 7.8999C128 7.1999 127.9 6.5999 127.8 5.8999C127.7 5.1999 127.5 4.5999 127.2 3.9999C126.6 2.7999 125.6 1.7999 124.4 1.1999C123.8 0.899902 123.2 0.699902 122.5 0.599902C121.8 0.499902 121.2 0.399902 120.5 0.399902C120.2 0.399902 119.9 0.399902 119.6 0.399902C119.2 0.399902 118.9 0.399902 118.5 0.399902Z" fill="#A6A6A6"/>
<path d="M16.8 39.4998C16.5 39.4998 16.2 39.4998 15.9 39.4998C15.3 39.4998 14.6 39.3998 14 39.2998C13.4 39.1998 12.9 38.9998 12.3 38.7998C11.8 38.4998 11.3 38.1998 10.9 37.7998C10.5 37.3998 10.1 36.8998 9.90001 36.3998C9.60001 35.8998 9.50001 35.2998 9.40001 34.6998C9.30001 34.0998 9.20001 33.4998 9.20001 32.7998C9.20001 32.5998 9.20001 31.8998 9.20001 31.8998V8.7998C9.20001 8.7998 9.20001 8.09981 9.20001 7.89981C9.20001 7.29981 9.30001 6.5998 9.40001 5.9998C9.50001 5.4998 9.70001 4.8998 10 4.3998C10.3 3.8998 10.6 3.3998 11 2.9998C11.4 2.5998 11.9 2.1998 12.4 1.9998C12.9 1.6998 13.5 1.5998 14.1 1.4998C14.7 1.3998 15.3 1.2998 16 1.2998H16.9H119.7H120.6C121.2 1.2998 121.8 1.3998 122.5 1.4998C123.1 1.5998 123.6 1.7998 124.2 1.9998C125.2 2.4998 126.1 3.3998 126.6 4.3998C126.9 4.8998 127 5.4998 127.1 5.9998C127.2 6.5998 127.3 7.29981 127.3 7.89981C127.3 8.19981 127.3 8.4998 127.3 8.7998C127.3 9.1998 127.3 9.4998 127.3 9.8998V30.7998C127.3 31.1998 127.3 31.4998 127.3 31.8998C127.3 32.1998 127.3 32.4998 127.3 32.7998C127.3 33.3998 127.2 33.9998 127.1 34.6998C127 35.2998 126.8 35.7998 126.6 36.3998C126.3 36.8998 126 37.3998 125.6 37.7998C125.2 38.1998 124.7 38.5998 124.2 38.7998C123.7 39.0998 123.1 39.2998 122.5 39.2998C121.9 39.3998 121.3 39.4998 120.6 39.4998C120.3 39.4998 120 39.4998 119.7 39.4998H118.6H16.8Z" fill="black"/>
<path d="M33.1 20.6998C33.1 18.9998 34 17.3998 35.5 16.4998C34.6 15.1998 33.1 14.3998 31.5 14.2998C29.8 14.0998 28.2 15.2998 27.3 15.2998C26.4 15.2998 25.1 14.2998 23.7 14.2998C21.8 14.3998 20.1 15.3998 19.2 16.9998C17.3 20.2998 18.7 25.2998 20.6 27.9998C21.5 29.2998 22.6 30.7998 24 30.7998C25.4 30.6998 25.9 29.8998 27.6 29.8998C29.3 29.8998 29.7 30.7998 31.2 30.7998C32.7 30.7998 33.6 29.4998 34.5 28.0998C35.2 27.1998 35.7 26.0998 36 24.9998C34.3 24.2998 33.1 22.5998 33.1 20.6998Z" fill="white"/>
<path d="M30.4 12.5999C31.2 11.5999 31.6 10.3999 31.5 9.09985C30.3 9.19985 29.1 9.79985 28.3 10.7999C27.5 11.6999 27.1 12.8999 27.2 14.1999C28.4 14.0999 29.6 13.4999 30.4 12.5999Z" fill="white"/>
<path d="M50.7 27.4998H46L44.9 30.8998H42.9L47.4 18.4998H49.5L54 30.8998H52L50.7 27.4998ZM46.4 25.8998H50.2L48.4 20.4998H48.3L46.4 25.8998Z" fill="white"/>
<path d="M63.5 26.2997C63.5 29.0997 62 30.8997 59.7 30.8997C58.5 30.9997 57.4 30.2997 56.9 29.2997V33.7997H55V21.7997H56.8V23.2997C57.4 22.2997 58.5 21.6997 59.7 21.6997C62 21.6997 63.5 23.4997 63.5 26.2997ZM61.6 26.2997C61.6 24.4997 60.7 23.2997 59.2 23.2997C57.8 23.2997 56.8 24.4997 56.8 26.2997C56.8 28.0997 57.8 29.2997 59.2 29.2997C60.7 29.3997 61.6 28.1997 61.6 26.2997Z" fill="white"/>
<path d="M73.5 26.2997C73.5 29.0997 72 30.8997 69.7 30.8997C68.5 30.9997 67.4 30.2997 66.9 29.2997V33.7997H65V21.7997H66.8V23.2997C67.4 22.2997 68.5 21.6997 69.7 21.6997C72 21.6997 73.5 23.4997 73.5 26.2997ZM71.6 26.2997C71.6 24.4997 70.7 23.2997 69.2 23.2997C67.8 23.2997 66.8 24.4997 66.8 26.2997C66.8 28.0997 67.8 29.2997 69.2 29.2997C70.6 29.3997 71.6 28.1997 71.6 26.2997Z" fill="white"/>
<path d="M80.1 27.3998C80.2 28.5998 81.4 29.3998 83.1 29.3998C84.7 29.3998 85.8 28.5998 85.8 27.4998C85.8 26.4998 85.1 25.9998 83.5 25.5998L81.9 25.1998C79.6 24.5998 78.6 23.5998 78.6 21.8998C78.6 19.7998 80.5 18.2998 83.1 18.2998C85.7 18.2998 87.5 19.7998 87.6 21.8998H85.7C85.6 20.6998 84.6 19.8998 83.1 19.8998C81.6 19.8998 80.6 20.6998 80.6 21.7998C80.6 22.6998 81.3 23.1998 82.9 23.5998L84.3 23.8998C86.8 24.4998 87.9 25.4998 87.9 27.2998C87.9 29.5998 86 31.0998 83.1 31.0998C80.3 31.0998 78.5 29.6998 78.4 27.3998H80.1Z" fill="white"/>
<path d="M91.7 19.6997V21.7997H93.4V23.2997H91.7V28.2997C91.7 29.0997 92 29.3997 92.8 29.3997C93 29.3997 93.2 29.3997 93.4 29.3997V30.8997C93.1 30.9997 92.7 30.9997 92.4 30.9997C90.6 30.9997 89.9 30.2997 89.9 28.5997V23.3997H88.6V21.8997H89.9V19.7997H91.7V19.6997Z" fill="white"/>
<path d="M94.4 26.2997C94.4 23.4997 96.1 21.6997 98.7 21.6997C101.3 21.6997 103 23.4997 103 26.2997C103 29.1997 101.3 30.8997 98.7 30.8997C96.1 30.9997 94.4 29.1997 94.4 26.2997ZM101.1 26.2997C101.1 24.2997 100.2 23.1997 98.7 23.1997C97.2 23.1997 96.3 24.3997 96.3 26.2997C96.3 28.2997 97.2 29.3997 98.7 29.3997C100.2 29.3997 101.1 28.2997 101.1 26.2997Z" fill="white"/>
<path d="M104.6 21.7997H106.4V23.2997C106.6 22.2997 107.6 21.5997 108.6 21.6997C108.8 21.6997 109 21.6997 109.2 21.7997V23.4997C108.9 23.3997 108.6 23.3997 108.4 23.3997C107.4 23.3997 106.5 24.1997 106.5 25.1997C106.5 25.2997 106.5 25.3997 106.5 25.4997V30.8997H104.6V21.7997Z" fill="white"/>
<path d="M117.7 28.1997C117.5 29.7997 115.8 30.9997 113.8 30.9997C111.2 30.9997 109.5 29.1997 109.5 26.3997C109.5 23.5997 111.1 21.6997 113.7 21.6997C116.2 21.6997 117.8 23.3997 117.8 26.1997V26.7997H111.4V26.8997C111.3 28.1997 112.2 29.2997 113.5 29.4997C113.6 29.4997 113.7 29.4997 113.8 29.4997C114.7 29.5997 115.6 29.0997 115.9 28.1997H117.7ZM111.5 25.4997H116C116.1 24.2997 115.1 23.2997 113.9 23.1997C113.8 23.1997 113.8 23.1997 113.7 23.1997C112.5 23.1997 111.5 24.1997 111.5 25.4997Z" fill="white"/>
<path d="M45.8592 15H43.7991V8.63639H45.9245C46.548 8.63639 47.0835 8.76378 47.5309 9.01858C47.9784 9.2713 48.3212 9.63485 48.5594 10.1092C48.7997 10.5815 48.9199 11.1481 48.9199 11.8089C48.9199 12.4718 48.7987 13.0414 48.5563 13.5179C48.316 13.9943 47.968 14.361 47.5123 14.6178C47.0566 14.8726 46.5055 15 45.8592 15ZM44.7593 14.1611H45.8064C46.2911 14.1611 46.694 14.0699 47.0151 13.8876C47.3362 13.7033 47.5765 13.4371 47.736 13.0891C47.8955 12.739 47.9753 12.3123 47.9753 11.8089C47.9753 11.3097 47.8955 10.886 47.736 10.538C47.5786 10.19 47.3435 9.92589 47.0307 9.74567C46.7179 9.56545 46.3295 9.47534 45.8655 9.47534H44.7593V14.1611Z" fill="white"/>
<path d="M52.0496 15.0963C51.6022 15.0963 51.2117 14.9938 50.8782 14.7887C50.5447 14.5837 50.2858 14.2967 50.1014 13.928C49.917 13.5593 49.8249 13.1284 49.8249 12.6354C49.8249 12.1403 49.917 11.7074 50.1014 11.3366C50.2858 10.9658 50.5447 10.6778 50.8782 10.4728C51.2117 10.2677 51.6022 10.1652 52.0496 10.1652C52.4971 10.1652 52.8876 10.2677 53.2211 10.4728C53.5546 10.6778 53.8135 10.9658 53.9979 11.3366C54.1822 11.7074 54.2744 12.1403 54.2744 12.6354C54.2744 13.1284 54.1822 13.5593 53.9979 13.928C53.8135 14.2967 53.5546 14.5837 53.2211 14.7887C52.8876 14.9938 52.4971 15.0963 52.0496 15.0963ZM52.0528 14.3164C52.3428 14.3164 52.5831 14.2398 52.7736 14.0865C52.9642 13.9332 53.1051 13.7292 53.1962 13.4744C53.2894 13.2196 53.336 12.9389 53.336 12.6323C53.336 12.3278 53.2894 12.0481 53.1962 11.7933C53.1051 11.5365 52.9642 11.3304 52.7736 11.175C52.5831 11.0196 52.3428 10.942 52.0528 10.942C51.7607 10.942 51.5183 11.0196 51.3257 11.175C51.1351 11.3304 50.9932 11.5365 50.9 11.7933C50.8088 12.0481 50.7632 12.3278 50.7632 12.6323C50.7632 12.9389 50.8088 13.2196 50.9 13.4744C50.9932 13.7292 51.1351 13.9332 51.3257 14.0865C51.5183 14.2398 51.7607 14.3164 52.0528 14.3164Z" fill="white"/>
<path d="M56.2009 15L54.7964 10.2273H55.7566L56.6919 13.7323H56.7385L57.6769 10.2273H58.637L59.5692 13.7167H59.6158L60.5449 10.2273H61.505L60.1036 15H59.1559L58.1865 11.5541H58.115L57.1455 15H56.2009Z" fill="white"/>
<path d="M63.3157 12.1662V15H62.3867V10.2273H63.2784V11.0041H63.3375C63.4473 10.7514 63.6192 10.5484 63.8533 10.3951C64.0894 10.2418 64.3867 10.1652 64.7451 10.1652C65.0703 10.1652 65.3551 10.2335 65.5996 10.3702C65.844 10.5049 66.0335 10.7058 66.1682 10.973C66.3028 11.2403 66.3702 11.5707 66.3702 11.9642V15H65.4411V12.0761C65.4411 11.7302 65.351 11.4598 65.1708 11.2651C64.9905 11.0683 64.743 10.9699 64.4281 10.9699C64.2127 10.9699 64.0211 11.0165 63.8533 11.1098C63.6876 11.203 63.556 11.3397 63.4587 11.5199C63.3634 11.6981 63.3157 11.9135 63.3157 12.1662Z" fill="white"/>
<path d="M68.5452 8.63639V15H67.6162V8.63639H68.5452Z" fill="white"/>
<path d="M71.8055 15.0963C71.3581 15.0963 70.9676 14.9938 70.6341 14.7887C70.3006 14.5837 70.0416 14.2967 69.8573 13.928C69.6729 13.5593 69.5807 13.1284 69.5807 12.6354C69.5807 12.1403 69.6729 11.7074 69.8573 11.3366C70.0416 10.9658 70.3006 10.6778 70.6341 10.4728C70.9676 10.2677 71.3581 10.1652 71.8055 10.1652C72.2529 10.1652 72.6434 10.2677 72.9769 10.4728C73.3104 10.6778 73.5694 10.9658 73.7537 11.3366C73.9381 11.7074 74.0303 12.1403 74.0303 12.6354C74.0303 13.1284 73.9381 13.5593 73.7537 13.928C73.5694 14.2967 73.3104 14.5837 72.9769 14.7887C72.6434 14.9938 72.2529 15.0963 71.8055 15.0963ZM71.8086 14.3164C72.0986 14.3164 72.3389 14.2398 72.5295 14.0865C72.7201 13.9332 72.8609 13.7292 72.9521 13.4744C73.0453 13.2196 73.0919 12.9389 73.0919 12.6323C73.0919 12.3278 73.0453 12.0481 72.9521 11.7933C72.8609 11.5365 72.7201 11.3304 72.5295 11.175C72.3389 11.0196 72.0986 10.942 71.8086 10.942C71.5165 10.942 71.2742 11.0196 71.0815 11.175C70.8909 11.3304 70.749 11.5365 70.6558 11.7933C70.5647 12.0481 70.5191 12.3278 70.5191 12.6323C70.5191 12.9389 70.5647 13.2196 70.6558 13.4744C70.749 13.7292 70.8909 13.9332 71.0815 14.0865C71.2742 14.2398 71.5165 14.3164 71.8086 14.3164Z" fill="white"/>
<path d="M76.4563 15.1057C76.1538 15.1057 75.8804 15.0497 75.636 14.9379C75.3915 14.8239 75.1978 14.6593 75.0549 14.4438C74.914 14.2284 74.8436 13.9643 74.8436 13.6515C74.8436 13.3822 74.8954 13.1605 74.999 12.9865C75.1025 12.8125 75.2424 12.6748 75.4185 12.5733C75.5945 12.4718 75.7913 12.3951 76.0088 12.3433C76.2263 12.2915 76.448 12.2522 76.6738 12.2253C76.9596 12.1921 77.1917 12.1652 77.3698 12.1445C77.5479 12.1217 77.6774 12.0854 77.7582 12.0357C77.839 11.986 77.8794 11.9052 77.8794 11.7933V11.7716C77.8794 11.5002 77.8027 11.29 77.6495 11.1408C77.4982 10.9917 77.2724 10.9171 76.9721 10.9171C76.6593 10.9171 76.4128 10.9865 76.2325 11.1253C76.0544 11.262 75.9311 11.4143 75.8628 11.5821L74.9897 11.3832C75.0932 11.0932 75.2444 10.8591 75.4433 10.681C75.6442 10.5007 75.8752 10.3702 76.1362 10.2894C76.3972 10.2066 76.6717 10.1652 76.9596 10.1652C77.1502 10.1652 77.3522 10.1879 77.5656 10.2335C77.781 10.277 77.9819 10.3578 78.1684 10.4759C78.3569 10.5939 78.5112 10.7628 78.6313 10.9824C78.7515 11.1999 78.8116 11.4826 78.8116 11.8306V15H77.9042V14.3475H77.867C77.8069 14.4676 77.7168 14.5857 77.5966 14.7017C77.4765 14.8177 77.3222 14.9141 77.1336 14.9907C76.9451 15.0673 76.7193 15.1057 76.4563 15.1057ZM76.6582 14.3599C76.9151 14.3599 77.1347 14.3092 77.317 14.2077C77.5013 14.1062 77.6412 13.9736 77.7365 13.8099C77.8338 13.6442 77.8825 13.4671 77.8825 13.2786V12.6634C77.8494 12.6965 77.7851 12.7276 77.6898 12.7566C77.5966 12.7835 77.4899 12.8073 77.3698 12.8281C77.2497 12.8467 77.1326 12.8643 77.0187 12.8809C76.9047 12.8954 76.8095 12.9078 76.7328 12.9182C76.5526 12.941 76.3879 12.9793 76.2388 13.0331C76.0917 13.087 75.9736 13.1647 75.8845 13.2662C75.7975 13.3656 75.754 13.4982 75.754 13.6639C75.754 13.8938 75.839 14.0678 76.0088 14.1859C76.1787 14.3019 76.3952 14.3599 76.6582 14.3599Z" fill="white"/>
<path d="M81.8357 15.0932C81.4504 15.0932 81.1065 14.9948 80.8041 14.7981C80.5037 14.5992 80.2676 14.3164 80.0956 13.9498C79.9258 13.581 79.8408 13.1388 79.8408 12.623C79.8408 12.1072 79.9268 11.6659 80.0987 11.2993C80.2727 10.9326 80.511 10.652 80.8134 10.4572C81.1158 10.2625 81.4587 10.1652 81.8419 10.1652C82.1381 10.1652 82.3763 10.2149 82.5566 10.3143C82.7389 10.4117 82.8797 10.5256 82.9792 10.6561C83.0807 10.7866 83.1594 10.9016 83.2153 11.001H83.2712V8.63639H84.2003V15H83.293V14.2574H83.2153C83.1594 14.3589 83.0786 14.4749 82.9729 14.6054C82.8694 14.7359 82.7264 14.8498 82.5441 14.9472C82.3618 15.0446 82.1257 15.0932 81.8357 15.0932ZM82.0408 14.3009C82.308 14.3009 82.5338 14.2305 82.7181 14.0896C82.9046 13.9467 83.0454 13.7488 83.1407 13.4961C83.2381 13.2434 83.2868 12.9492 83.2868 12.6137C83.2868 12.2822 83.2391 11.9922 83.1438 11.7436C83.0485 11.4951 82.9087 11.3014 82.7244 11.1626C82.54 11.0238 82.3121 10.9544 82.0408 10.9544C81.7611 10.9544 81.5281 11.0269 81.3416 11.1719C81.1552 11.3169 81.0143 11.5147 80.919 11.7654C80.8258 12.016 80.7792 12.2988 80.7792 12.6137C80.7792 12.9327 80.8269 13.2196 80.9222 13.4744C81.0174 13.7292 81.1583 13.9311 81.3447 14.0803C81.5332 14.2274 81.7653 14.3009 82.0408 14.3009Z" fill="white"/>
<path d="M87.842 15V10.2273H88.7711V15H87.842ZM88.3112 9.49088C88.1496 9.49088 88.0108 9.43702 87.8948 9.3293C87.7809 9.21951 87.7239 9.08901 87.7239 8.93779C87.7239 8.7845 87.7809 8.65399 87.8948 8.54628C88.0108 8.43649 88.1496 8.38159 88.3112 8.38159C88.4728 8.38159 88.6105 8.43649 88.7244 8.54628C88.8405 8.65399 88.8985 8.7845 88.8985 8.93779C88.8985 9.08901 88.8405 9.21951 88.7244 9.3293C88.6105 9.43702 88.4728 9.49088 88.3112 9.49088Z" fill="white"/>
<path d="M90.95 12.1662V15H90.0209V10.2273H90.9127V11.0041H90.9718C91.0816 10.7514 91.2535 10.5484 91.4876 10.3951C91.7237 10.2418 92.021 10.1652 92.3793 10.1652C92.7046 10.1652 92.9894 10.2335 93.2338 10.3702C93.4783 10.5049 93.6678 10.7058 93.8025 10.973C93.9371 11.2403 94.0044 11.5707 94.0044 11.9642V15H93.0754V12.0761C93.0754 11.7302 92.9853 11.4598 92.805 11.2651C92.6248 11.0683 92.3773 10.9699 92.0624 10.9699C91.847 10.9699 91.6554 11.0165 91.4876 11.1098C91.3218 11.203 91.1903 11.3397 91.0929 11.5199C90.9977 11.6981 90.95 11.9135 90.95 12.1662Z" fill="white"/>
<path d="M99.3528 15.0932C98.9675 15.0932 98.6236 14.9948 98.3212 14.7981C98.0208 14.5992 97.7847 14.3164 97.6127 13.9498C97.4429 13.581 97.3579 13.1388 97.3579 12.623C97.3579 12.1072 97.4439 11.6659 97.6158 11.2993C97.7898 10.9326 98.0281 10.652 98.3305 10.4572C98.6329 10.2625 98.9758 10.1652 99.359 10.1652C99.6552 10.1652 99.8934 10.2149 100.074 10.3143C100.256 10.4117 100.397 10.5256 100.496 10.6561C100.598 10.7866 100.676 10.9016 100.732 11.001H100.788V8.63639H101.717V15H100.81V14.2574H100.732C100.676 14.3589 100.596 14.4749 100.49 14.6054C100.386 14.7359 100.244 14.8498 100.061 14.9472C99.8789 15.0446 99.6428 15.0932 99.3528 15.0932ZM99.5579 14.3009C99.8251 14.3009 100.051 14.2305 100.235 14.0896C100.422 13.9467 100.563 13.7488 100.658 13.4961C100.755 13.2434 100.804 12.9492 100.804 12.6137C100.804 12.2822 100.756 11.9922 100.661 11.7436C100.566 11.4951 100.426 11.3014 100.241 11.1626C100.057 11.0238 99.8292 10.9544 99.5579 10.9544C99.2782 10.9544 99.0452 11.0269 98.8587 11.1719C98.6723 11.3169 98.5314 11.5147 98.4361 11.7654C98.3429 12.016 98.2963 12.2988 98.2963 12.6137C98.2963 12.9327 98.344 13.2196 98.4392 13.4744C98.5345 13.7292 98.6754 13.9311 98.8618 14.0803C99.0503 14.2274 99.2823 14.3009 99.5579 14.3009Z" fill="white"/>
<path d="M105.1 15.0963C104.63 15.0963 104.225 14.9959 103.885 14.7949C103.548 14.5919 103.287 14.3071 103.102 13.9405C102.92 13.5717 102.829 13.1398 102.829 12.6447C102.829 12.1559 102.92 11.725 103.102 11.3521C103.287 10.9792 103.544 10.6882 103.873 10.479C104.204 10.2698 104.592 10.1652 105.035 10.1652C105.304 10.1652 105.565 10.2097 105.818 10.2988C106.071 10.3878 106.298 10.5277 106.499 10.7182C106.7 10.9088 106.858 11.1564 106.974 11.4609C107.09 11.7633 107.148 12.131 107.148 12.5639V12.8933H103.354V12.1973H106.238C106.238 11.9529 106.188 11.7364 106.089 11.5479C105.989 11.3573 105.849 11.2071 105.669 11.0973C105.491 10.9875 105.282 10.9326 105.041 10.9326C104.78 10.9326 104.552 10.9969 104.358 11.1253C104.165 11.2516 104.016 11.4174 103.91 11.6224C103.807 11.8255 103.755 12.0461 103.755 12.2843V12.8281C103.755 13.1471 103.811 13.4184 103.923 13.6422C104.037 13.8659 104.195 14.0368 104.398 14.1549C104.601 14.2709 104.838 14.3289 105.11 14.3289C105.286 14.3289 105.446 14.304 105.591 14.2543C105.736 14.2025 105.862 14.1259 105.967 14.0243C106.073 13.9228 106.154 13.7975 106.21 13.6484L107.089 13.8068C107.019 14.0658 106.892 14.2926 106.71 14.4873C106.53 14.68 106.303 14.8302 106.029 14.9379C105.758 15.0435 105.448 15.0963 105.1 15.0963Z" fill="white"/>
</g>
<defs>
<clipPath id="clip0_3300_2227">
<rect width="135.9" height="40.9" fill="white"/>
</clipPath>
</defs>
</svg>