<?xml version="1.0" encoding="utf-8"?>
<!-- Generator: Adobe Illustrator 22.1.0, SVG Export Plug-In . SVG Version: 6.00 Build 0)  -->
<svg version="1.1" id="Capa_1" xmlns="http://www.w3.org/2000/svg" xmlns:xlink="http://www.w3.org/1999/xlink" x="0px" y="0px"
	 viewBox="0 0 135.9 40.9" style="enable-background:new 0 0 135.9 40.9;" xml:space="preserve">
<style type="text/css">
	.st0{fill:#A6A6A6;}
	.st1{fill:#FFFFFF;stroke:#FFFFFF;stroke-width:0.2;stroke-miterlimit:10;}
	.st2{fill:#FFFFFF;}
	.st3{fill:url(#SVGID_1_);}
	.st4{fill:url(#SVGID_2_);}
	.st5{fill:url(#SVGID_3_);}
	.st6{fill:url(#SVGID_4_);}
	.st7{opacity:0.2;enable-background:new    ;}
	.st8{opacity:0.12;enable-background:new    ;}
	.st9{opacity:0.25;fill:#FFFFFF;enable-background:new    ;}
</style>
<g>
	<path d="M130.4,40.4H5.4c-2.8,0-5-2.2-5-5v-30c0-2.8,2.2-5,5-5h125c2.8,0,5,2.2,5,5v30C135.4,38.1,133.2,40.4,130.4,40.4z"/>
</g>
<g>
	<g>
		<path class="st0" d="M130.4,1.2c2.3,0,4.2,1.9,4.2,4.2v30c0,2.3-1.9,4.2-4.2,4.2H5.4c-2.3,0-4.2-1.9-4.2-4.2v-30
			c0-2.3,1.9-4.2,4.2-4.2H130.4 M130.4,0.4H5.4c-2.8,0-5,2.2-5,5v30c0,2.8,2.2,5,5,5h125c2.8,0,5-2.2,5-5v-30
			C135.4,2.6,133.2,0.4,130.4,0.4L130.4,0.4z"/>
	</g>
</g>
<g>
	<path class="st1" d="M47.9,10.6c0,0.8-0.2,1.5-0.7,2c-0.6,0.6-1.3,0.9-2.2,0.9c-0.9,0-1.6-0.3-2.2-0.9c-0.6-0.6-0.9-1.3-0.9-2.2
		c0-0.9,0.3-1.6,0.9-2.2c0.6-0.6,1.3-0.9,2.2-0.9c0.4,0,0.8,0.1,1.2,0.3c0.4,0.2,0.7,0.4,0.9,0.7l-0.5,0.5C46.2,8.2,45.6,8,44.9,8
		c-0.6,0-1.2,0.2-1.6,0.7c-0.5,0.4-0.7,1-0.7,1.7c0,0.7,0.2,1.3,0.7,1.7c0.5,0.4,1,0.7,1.6,0.7c0.7,0,1.2-0.2,1.7-0.7
		c0.3-0.3,0.5-0.7,0.5-1.2h-2.2v-0.7h2.9C47.9,10.3,47.9,10.5,47.9,10.6z"/>
	<path class="st1" d="M52.5,8.1h-2.7V10h2.5v0.7h-2.5v1.9h2.7v0.7H49v-6h3.5V8.1z"/>
	<path class="st1" d="M55.7,13.4H55V8.1h-1.7V7.4h4.1v0.7h-1.7V13.4z"/>
	<path class="st1" d="M60.4,13.4v-6h0.8v6H60.4z"/>
	<path class="st1" d="M64.6,13.4h-0.8V8.1h-1.7V7.4h4.1v0.7h-1.7V13.4z"/>
	<path class="st1" d="M74.1,12.6c-0.6,0.6-1.3,0.9-2.2,0.9c-0.9,0-1.6-0.3-2.2-0.9c-0.6-0.6-0.9-1.3-0.9-2.2s0.3-1.6,0.9-2.2
		c0.6-0.6,1.3-0.9,2.2-0.9c0.9,0,1.6,0.3,2.2,0.9c0.6,0.6,0.9,1.3,0.9,2.2C74.9,11.3,74.6,12,74.1,12.6z M70.2,12.1
		c0.4,0.4,1,0.7,1.6,0.7c0.6,0,1.2-0.2,1.6-0.7c0.4-0.4,0.7-1,0.7-1.7s-0.2-1.3-0.7-1.7C73,8.2,72.5,8,71.9,8
		c-0.6,0-1.2,0.2-1.6,0.7c-0.4,0.4-0.7,1-0.7,1.7S69.8,11.6,70.2,12.1z"/>
	<path class="st1" d="M76,13.4v-6H77l2.9,4.7h0l0-1.2V7.4h0.8v6h-0.8l-3.1-4.9h0l0,1.2v3.7H76z"/>
</g>
<path class="st2" d="M68.6,22.1c-2.4,0-4.3,1.8-4.3,4.3c0,2.4,1.9,4.3,4.3,4.3c2.4,0,4.3-1.8,4.3-4.3C72.9,23.9,70.9,22.1,68.6,22.1
	z M68.6,29c-1.3,0-2.4-1.1-2.4-2.6c0-1.5,1.1-2.6,2.4-2.6c1.3,0,2.4,1,2.4,2.6C71,27.9,69.9,29,68.6,29z M59.3,22.1
	c-2.4,0-4.3,1.8-4.3,4.3c0,2.4,1.9,4.3,4.3,4.3c2.4,0,4.3-1.8,4.3-4.3C63.5,23.9,61.6,22.1,59.3,22.1z M59.3,29
	c-1.3,0-2.4-1.1-2.4-2.6c0-1.5,1.1-2.6,2.4-2.6c1.3,0,2.4,1,2.4,2.6C61.7,27.9,60.6,29,59.3,29z M48.2,23.4v1.8h4.3
	c-0.1,1-0.5,1.8-1,2.3c-0.6,0.6-1.6,1.3-3.3,1.3c-2.7,0-4.7-2.1-4.7-4.8s2.1-4.8,4.7-4.8c1.4,0,2.5,0.6,3.3,1.3l1.3-1.3
	c-1.1-1-2.5-1.8-4.5-1.8c-3.6,0-6.7,3-6.7,6.6c0,3.6,3.1,6.6,6.7,6.6c2,0,3.4-0.6,4.6-1.9c1.2-1.2,1.6-2.9,1.6-4.2
	c0-0.4,0-0.8-0.1-1.1H48.2z M93.5,24.8c-0.4-1-1.4-2.7-3.6-2.7c-2.2,0-4,1.7-4,4.3c0,2.4,1.8,4.3,4.2,4.3c1.9,0,3.1-1.2,3.5-1.9
	l-1.4-1C91.7,28.5,91,29,90.1,29c-1,0-1.6-0.4-2.1-1.3l5.7-2.4L93.5,24.8z M87.7,26.2c0-1.6,1.3-2.5,2.2-2.5c0.7,0,1.4,0.4,1.6,0.9
	L87.7,26.2z M83.1,30.4h1.9V17.9h-1.9V30.4z M80,23.1L80,23.1c-0.5-0.5-1.3-1-2.3-1c-2.1,0-4.1,1.9-4.1,4.3c0,2.4,1.9,4.2,4.1,4.2
	c1,0,1.8-0.5,2.2-1H80v0.6c0,1.6-0.9,2.5-2.3,2.5c-1.1,0-1.9-0.8-2.1-1.5L74,31.9c0.5,1.1,1.7,2.5,3.8,2.5c2.2,0,4-1.3,4-4.4v-7.6
	H80V23.1z M77.9,29c-1.3,0-2.4-1.1-2.4-2.6c0-1.5,1.1-2.6,2.4-2.6c1.3,0,2.3,1.1,2.3,2.6C80.1,27.9,79.1,29,77.9,29z M102.3,17.9
	h-4.5v12.5h1.9v-4.7h2.6c2.1,0,4.1-1.5,4.1-3.9S104.3,17.9,102.3,17.9z M102.3,23.9h-2.7v-4.3h2.7c1.4,0,2.2,1.2,2.2,2.1
	C104.5,22.7,103.7,23.9,102.3,23.9z M113.8,22.1c-1.4,0-2.8,0.6-3.3,1.9l1.7,0.7c0.4-0.7,1-0.9,1.7-0.9c1,0,1.9,0.6,2,1.6v0.1
	c-0.3-0.2-1.1-0.5-1.9-0.5c-1.8,0-3.6,1-3.6,2.8c0,1.7,1.5,2.8,3.1,2.8c1.3,0,1.9-0.6,2.4-1.2h0.1v1h1.8v-4.8
	C117.6,23.3,116,22.1,113.8,22.1z M113.6,29c-0.6,0-1.5-0.3-1.5-1.1c0-1,1.1-1.3,2-1.3c0.8,0,1.2,0.2,1.7,0.4
	C115.7,28.1,114.7,29,113.6,29z M124.2,22.4l-2.1,5.4H122l-2.2-5.4h-2l3.3,7.6l-1.9,4.2h1.9l5.1-11.8H124.2z M107.4,30.4h1.9V17.9
	h-1.9V30.4z"/>
<g>
	
		<linearGradient id="SVGID_1_" gradientUnits="userSpaceOnUse" x1="22.2488" y1="34.6958" x2="5.4664" y2="17.9134" gradientTransform="matrix(1 0 0 -1 0 43.7795)">
		<stop  offset="0" style="stop-color:#00A0FF"/>
		<stop  offset="6.574450e-03" style="stop-color:#00A1FF"/>
		<stop  offset="0.2601" style="stop-color:#00BEFF"/>
		<stop  offset="0.5122" style="stop-color:#00D2FF"/>
		<stop  offset="0.7604" style="stop-color:#00DFFF"/>
		<stop  offset="1" style="stop-color:#00E3FF"/>
	</linearGradient>
	<path class="st3" d="M10.9,7.9c-0.3,0.3-0.5,0.8-0.5,1.4v22.1c0,0.6,0.2,1.1,0.5,1.4l0.1,0.1l12.4-12.4v-0.1v-0.1L10.9,7.9
		L10.9,7.9z"/>
	
		<linearGradient id="SVGID_2_" gradientUnits="userSpaceOnUse" x1="34.2835" y1="23.404" x2="10.0866" y2="23.404" gradientTransform="matrix(1 0 0 -1 0 43.7795)">
		<stop  offset="0" style="stop-color:#FFE000"/>
		<stop  offset="0.4087" style="stop-color:#FFBD00"/>
		<stop  offset="0.7754" style="stop-color:#FFA500"/>
		<stop  offset="1" style="stop-color:#FF9C00"/>
	</linearGradient>
	<path class="st4" d="M27.5,24.7l-4.1-4.1v-0.1v-0.1l4.1-4.1l0.1,0.1l4.9,2.8c1.4,0.8,1.4,2.1,0,2.9L27.5,24.7L27.5,24.7z"/>
	
		<linearGradient id="SVGID_3_" gradientUnits="userSpaceOnUse" x1="25.2761" y1="21.1094" x2="2.5178" y2="-1.6489" gradientTransform="matrix(1 0 0 -1 0 43.7795)">
		<stop  offset="0" style="stop-color:#FF3A44"/>
		<stop  offset="1" style="stop-color:#C31162"/>
	</linearGradient>
	<path class="st5" d="M27.6,24.6l-4.2-4.2L10.9,32.8c0.5,0.5,1.2,0.5,2.1,0.1L27.6,24.6"/>
	
		<linearGradient id="SVGID_4_" gradientUnits="userSpaceOnUse" x1="7.7464" y1="43.2293" x2="17.909" y2="33.0668" gradientTransform="matrix(1 0 0 -1 0 43.7795)">
		<stop  offset="0" style="stop-color:#32A071"/>
		<stop  offset="6.850000e-02" style="stop-color:#2DA771"/>
		<stop  offset="0.4762" style="stop-color:#15CF74"/>
		<stop  offset="0.8009" style="stop-color:#06E775"/>
		<stop  offset="1" style="stop-color:#00F076"/>
	</linearGradient>
	<path class="st6" d="M27.6,16.2L13,7.9c-0.9-0.5-1.6-0.4-2.1,0.1l12.5,12.5L27.6,16.2z"/>
	<g>
		<path class="st7" d="M27.5,24.5L13,32.8c-0.8,0.5-1.5,0.4-2,0l0,0l-0.1,0.1l0,0l0.1,0.1l0,0c0.5,0.4,1.2,0.5,2,0L27.5,24.5
			L27.5,24.5z"/>
		<path class="st8" d="M10.9,32.7c-0.3-0.3-0.5-0.8-0.5-1.4v0.1c0,0.6,0.2,1.1,0.5,1.4V32.7L10.9,32.7z"/>
	</g>
	<path class="st8" d="M32.5,21.7l-5,2.8l0.1,0.1l4.9-2.8c0.7-0.4,1-0.9,1-1.4l0,0C33.5,20.8,33.1,21.3,32.5,21.7z"/>
	<path class="st9" d="M13,8l19.5,11.1c0.6,0.4,1,0.8,1,1.3l0,0c0-0.5-0.3-1-1-1.4L13,7.9c-1.4-0.8-2.5-0.1-2.5,1.5v0.1
		C10.4,7.9,11.6,7.2,13,8z"/>
</g>
</svg>
