<svg width="136" height="41" viewBox="0 0 136 41" fill="none" xmlns="http://www.w3.org/2000/svg">
<g clip-path="url(#clip0_3300_2209)">
<path d="M130.4 40.3999H5.39999C2.59999 40.3999 0.399994 38.1999 0.399994 35.3999V5.3999C0.399994 2.5999 2.59999 0.399902 5.39999 0.399902H130.4C133.2 0.399902 135.4 2.5999 135.4 5.3999V35.3999C135.4 38.0999 133.2 40.3999 130.4 40.3999Z" fill="black"/>
<path d="M130.4 1.1999C132.7 1.1999 134.6 3.0999 134.6 5.3999V35.3999C134.6 37.6999 132.7 39.5999 130.4 39.5999H5.39999C3.09999 39.5999 1.19999 37.6999 1.19999 35.3999V5.3999C1.19999 3.0999 3.09999 1.1999 5.39999 1.1999H130.4ZM130.4 0.399902H5.39999C2.59999 0.399902 0.399994 2.5999 0.399994 5.3999V35.3999C0.399994 38.1999 2.59999 40.3999 5.39999 40.3999H130.4C133.2 40.3999 135.4 38.1999 135.4 35.3999V5.3999C135.4 2.5999 133.2 0.399902 130.4 0.399902Z" fill="#A6A6A6"/>
<path d="M68.6 22.0999C66.2 22.0999 64.3 23.8999 64.3 26.3999C64.3 28.7999 66.2 30.6999 68.6 30.6999C71 30.6999 72.9 28.8999 72.9 26.3999C72.9 23.8999 70.9 22.0999 68.6 22.0999ZM68.6 28.9999C67.3 28.9999 66.2 27.8999 66.2 26.3999C66.2 24.8999 67.3 23.7999 68.6 23.7999C69.9 23.7999 71 24.7999 71 26.3999C71 27.8999 69.9 28.9999 68.6 28.9999ZM59.3 22.0999C56.9 22.0999 55 23.8999 55 26.3999C55 28.7999 56.9 30.6999 59.3 30.6999C61.7 30.6999 63.6 28.8999 63.6 26.3999C63.5 23.8999 61.6 22.0999 59.3 22.0999ZM59.3 28.9999C58 28.9999 56.9 27.8999 56.9 26.3999C56.9 24.8999 58 23.7999 59.3 23.7999C60.6 23.7999 61.7 24.7999 61.7 26.3999C61.7 27.8999 60.6 28.9999 59.3 28.9999ZM48.2 23.3999V25.1999H52.5C52.4 26.1999 52 26.9999 51.5 27.4999C50.9 28.0999 49.9 28.7999 48.2 28.7999C45.5 28.7999 43.5 26.6999 43.5 23.9999C43.5 21.2999 45.6 19.1999 48.2 19.1999C49.6 19.1999 50.7 19.7999 51.5 20.4999L52.8 19.1999C51.7 18.1999 50.3 17.3999 48.3 17.3999C44.7 17.3999 41.6 20.3999 41.6 23.9999C41.6 27.5999 44.7 30.5999 48.3 30.5999C50.3 30.5999 51.7 29.9999 52.9 28.6999C54.1 27.4999 54.5 25.7999 54.5 24.4999C54.5 24.0999 54.5 23.6999 54.4 23.3999H48.2ZM93.5 24.7999C93.1 23.7999 92.1 22.0999 89.9 22.0999C87.7 22.0999 85.9 23.7999 85.9 26.3999C85.9 28.7999 87.7 30.6999 90.1 30.6999C92 30.6999 93.2 29.4999 93.6 28.7999L92.2 27.7999C91.7 28.4999 91 28.9999 90.1 28.9999C89.1 28.9999 88.5 28.5999 88 27.6999L93.7 25.2999L93.5 24.7999ZM87.7 26.1999C87.7 24.5999 89 23.6999 89.9 23.6999C90.6 23.6999 91.3 24.0999 91.5 24.5999L87.7 26.1999ZM83.1 30.3999H85V17.8999H83.1V30.3999ZM80 23.0999C79.5 22.5999 78.7 22.0999 77.7 22.0999C75.6 22.0999 73.6 23.9999 73.6 26.3999C73.6 28.7999 75.5 30.5999 77.7 30.5999C78.7 30.5999 79.5 30.0999 79.9 29.5999H80V30.1999C80 31.7999 79.1 32.6999 77.7 32.6999C76.6 32.6999 75.8 31.8999 75.6 31.1999L74 31.8999C74.5 32.9999 75.7 34.3999 77.8 34.3999C80 34.3999 81.8 33.0999 81.8 29.9999V22.3999H80V23.0999ZM77.9 28.9999C76.6 28.9999 75.5 27.8999 75.5 26.3999C75.5 24.8999 76.6 23.7999 77.9 23.7999C79.2 23.7999 80.2 24.8999 80.2 26.3999C80.1 27.8999 79.1 28.9999 77.9 28.9999ZM102.3 17.8999H97.8V30.3999H99.7V25.6999H102.3C104.4 25.6999 106.4 24.1999 106.4 21.7999C106.4 19.3999 104.3 17.8999 102.3 17.8999ZM102.3 23.8999H99.6V19.5999H102.3C103.7 19.5999 104.5 20.7999 104.5 21.6999C104.5 22.6999 103.7 23.8999 102.3 23.8999ZM113.8 22.0999C112.4 22.0999 111 22.6999 110.5 23.9999L112.2 24.6999C112.6 23.9999 113.2 23.7999 113.9 23.7999C114.9 23.7999 115.8 24.3999 115.9 25.3999V25.4999C115.6 25.2999 114.8 24.9999 114 24.9999C112.2 24.9999 110.4 25.9999 110.4 27.7999C110.4 29.4999 111.9 30.5999 113.5 30.5999C114.8 30.5999 115.4 29.9999 115.9 29.3999H116V30.3999H117.8V25.5999C117.6 23.2999 116 22.0999 113.8 22.0999ZM113.6 28.9999C113 28.9999 112.1 28.6999 112.1 27.8999C112.1 26.8999 113.2 26.5999 114.1 26.5999C114.9 26.5999 115.3 26.7999 115.8 26.9999C115.7 28.0999 114.7 28.9999 113.6 28.9999ZM124.2 22.3999L122.1 27.7999H122L119.8 22.3999H117.8L121.1 29.9999L119.2 34.1999H121.1L126.2 22.3999H124.2ZM107.4 30.3999H109.3V17.8999H107.4V30.3999Z" fill="white"/>
<path d="M10.9 7.90015C10.6 8.20015 10.4 8.70015 10.4 9.30015V31.4001C10.4 32.0001 10.6 32.5001 10.9 32.8001L11 32.9001L23.4 20.5001V20.4001V20.3001L10.9 7.90015Z" fill="url(#paint0_linear_3300_2209)"/>
<path d="M27.5 24.7001L23.4 20.6V20.5V20.4L27.5 16.3L27.6 16.4L32.5 19.2001C33.9 20.0001 33.9 21.3 32.5 22.1L27.5 24.7001Z" fill="url(#paint1_linear_3300_2209)"/>
<path d="M27.6 24.6001L23.4 20.4001L10.9 32.8001C11.4 33.3001 12.1 33.3001 13 32.9001L27.6 24.6001Z" fill="url(#paint2_linear_3300_2209)"/>
<path d="M27.6 16.2L13 7.90001C12.1 7.40001 11.4 7.50001 10.9 8.00001L23.4 20.5L27.6 16.2Z" fill="url(#paint3_linear_3300_2209)"/>
<path opacity="0.2" d="M27.5 24.5L13 32.8C12.2 33.3 11.5 33.2 11 32.8L10.9 32.9L11 33C11.5 33.4 12.2 33.5 13 33L27.5 24.5Z" fill="black"/>
<path opacity="0.12" d="M10.9 32.7001C10.6 32.4001 10.4 31.9 10.4 31.3V31.4C10.4 32 10.6 32.5 10.9 32.8V32.7001Z" fill="black"/>
<path opacity="0.12" d="M32.5 21.7001L27.5 24.5001L27.6 24.6001L32.5 21.8001C33.2 21.4001 33.5 20.9001 33.5 20.4001C33.5 20.8001 33.1 21.3001 32.5 21.7001Z" fill="black"/>
<path opacity="0.25" d="M13 8.00003L32.5 19.1C33.1 19.5 33.5 19.9 33.5 20.4C33.5 19.9 33.2 19.4 32.5 19L13 7.90003C11.6 7.10003 10.5 7.80003 10.5 9.40003V9.50003C10.4 7.90003 11.6 7.20003 13 8.00003Z" fill="white"/>
<path d="M48.1638 10.3675C48.1638 11.295 47.8546 12.0708 47.2363 12.695C46.6121 13.325 45.8479 13.64 44.9438 13.64C44.0338 13.64 43.2696 13.325 42.6513 12.695C42.0329 12.0708 41.7238 11.295 41.7238 10.3675C41.7238 9.43997 42.0329 8.66414 42.6513 8.03997C43.2696 7.40997 44.0338 7.09497 44.9438 7.09497C45.8538 7.09497 46.6179 7.41289 47.2363 8.04872C47.8546 8.67289 48.1638 9.4458 48.1638 10.3675ZM42.5463 10.3675C42.5463 11.0908 42.7738 11.6887 43.2288 12.1612C43.6896 12.6337 44.2613 12.87 44.9438 12.87C45.6263 12.87 46.195 12.6337 46.65 12.1612C47.1108 11.6946 47.3413 11.0966 47.3413 10.3675C47.3413 9.6383 47.1108 9.04039 46.65 8.57372C46.195 8.10122 45.6263 7.86497 44.9438 7.86497C44.2613 7.86497 43.6896 8.10122 43.2288 8.57372C42.7738 9.04622 42.5463 9.64414 42.5463 10.3675Z" fill="white"/>
<path d="M49.9187 13.5H49.1137V7.23497H50.0937L53.1387 12.1087H53.1737L53.1387 10.9012V7.23497H53.9437V13.5H53.1037L49.9187 8.38997H49.8837L49.9187 9.59747V13.5Z" fill="white"/>
<path d="M57.3413 8.00497V13.5H56.5363V8.00497H54.7863V7.23497H59.0913V8.00497H57.3413Z" fill="white"/>
<path d="M59.9316 13.5V7.23497H61.8479C62.8045 7.23497 63.5716 7.52372 64.1491 8.10122C64.7325 8.67872 65.0241 9.43414 65.0241 10.3675C65.0241 11.3066 64.7325 12.065 64.1491 12.6425C63.5716 13.2141 62.8045 13.5 61.8479 13.5H59.9316ZM60.7366 8.00497V12.73H61.8479C62.577 12.73 63.1516 12.5229 63.5716 12.1087C63.9916 11.6887 64.2016 11.1083 64.2016 10.3675C64.2016 9.63247 63.9916 9.05497 63.5716 8.63497C63.1516 8.21497 62.577 8.00497 61.8479 8.00497H60.7366Z" fill="white"/>
<path d="M69.6389 7.23497V8.00497H66.7864V9.99122H69.3589V10.7437H66.7864V12.73H69.6389V13.5H65.9814V7.23497H69.6389Z" fill="white"/>
<path d="M74.3201 7.23497H75.3614V7.26997L73.0339 9.95622L75.5189 13.465V13.5H74.5301L72.4914 10.5775L71.5289 11.6887V13.5H70.7239V7.23497H71.5289V10.4637H71.5639L74.3201 7.23497Z" fill="white"/>
<path d="M78.8946 13.5H78.0896V7.23497H78.8946V9.92122H82.0271V7.23497H82.8321V13.5H82.0271V10.6737H78.8946V13.5Z" fill="white"/>
<path d="M87.7456 7.23497V8.00497H84.8931V9.99122H87.4656V10.7437H84.8931V12.73H87.7456V13.5H84.0881V7.23497H87.7456Z" fill="white"/>
<path d="M90.9655 8.00497V13.5H90.1605V8.00497H88.4105V7.23497H92.7155V8.00497H90.9655Z" fill="white"/>
<path d="M101.441 10.3675C101.441 11.295 101.132 12.0708 100.514 12.695C99.8897 13.325 99.1255 13.64 98.2213 13.64C97.3113 13.64 96.5472 13.325 95.9288 12.695C95.3105 12.0708 95.0013 11.295 95.0013 10.3675C95.0013 9.43997 95.3105 8.66414 95.9288 8.03997C96.5472 7.40997 97.3113 7.09497 98.2213 7.09497C99.1313 7.09497 99.8955 7.41289 100.514 8.04872C101.132 8.67289 101.441 9.4458 101.441 10.3675ZM95.8238 10.3675C95.8238 11.0908 96.0513 11.6887 96.5063 12.1612C96.9672 12.6337 97.5388 12.87 98.2213 12.87C98.9038 12.87 99.4726 12.6337 99.9276 12.1612C100.388 11.6946 100.619 11.0966 100.619 10.3675C100.619 9.6383 100.388 9.04039 99.9276 8.57372C99.4726 8.10122 98.9038 7.86497 98.2213 7.86497C97.5388 7.86497 96.9672 8.10122 96.5063 8.57372C96.0513 9.04622 95.8238 9.64414 95.8238 10.3675Z" fill="white"/>
<path d="M103.196 10.9625V13.5H102.391V7.23497H104.526C105.069 7.23497 105.53 7.4158 105.909 7.77747C106.294 8.13914 106.486 8.57955 106.486 9.09872C106.486 9.62955 106.294 10.0729 105.909 10.4287C105.535 10.7846 105.075 10.9625 104.526 10.9625H103.196ZM103.196 8.00497V10.1925H104.544C104.865 10.1925 105.13 10.0846 105.34 9.86872C105.556 9.65289 105.664 9.39622 105.664 9.09872C105.664 8.80705 105.556 8.5533 105.34 8.33747C105.13 8.1158 104.865 8.00497 104.544 8.00497H103.196Z" fill="white"/>
</g>
<defs>
<linearGradient id="paint0_linear_3300_2209" x1="22.2488" y1="9.08385" x2="5.46639" y2="25.8662" gradientUnits="userSpaceOnUse">
<stop stop-color="#00A0FF"/>
<stop offset="0.00657445" stop-color="#00A1FF"/>
<stop offset="0.2601" stop-color="#00BEFF"/>
<stop offset="0.5122" stop-color="#00D2FF"/>
<stop offset="0.7604" stop-color="#00DFFF"/>
<stop offset="1" stop-color="#00E3FF"/>
</linearGradient>
<linearGradient id="paint1_linear_3300_2209" x1="34.2835" y1="20.3755" x2="10.0866" y2="20.3755" gradientUnits="userSpaceOnUse">
<stop stop-color="#FFE000"/>
<stop offset="0.4087" stop-color="#FFBD00"/>
<stop offset="0.7754" stop-color="#FFA500"/>
<stop offset="1" stop-color="#FF9C00"/>
</linearGradient>
<linearGradient id="paint2_linear_3300_2209" x1="25.2761" y1="22.6702" x2="2.51779" y2="45.4285" gradientUnits="userSpaceOnUse">
<stop stop-color="#FF3A44"/>
<stop offset="1" stop-color="#C31162"/>
</linearGradient>
<linearGradient id="paint3_linear_3300_2209" x1="7.74639" y1="0.550215" x2="17.909" y2="10.7127" gradientUnits="userSpaceOnUse">
<stop stop-color="#32A071"/>
<stop offset="0.0685" stop-color="#2DA771"/>
<stop offset="0.4762" stop-color="#15CF74"/>
<stop offset="0.8009" stop-color="#06E775"/>
<stop offset="1" stop-color="#00F076"/>
</linearGradient>
<clipPath id="clip0_3300_2209">
<rect width="135.9" height="40.9" fill="white"/>
</clipPath>
</defs>
</svg>