<?xml version="1.0" encoding="UTF-8"?>
<svg width="100px" height="100px" viewBox="0 0 100 100" version="1.1" xmlns="http://www.w3.org/2000/svg" xmlns:xlink="http://www.w3.org/1999/xlink">
    <!-- Generator: Sketch 46.2 (44496) - http://www.bohemiancoding.com/sketch -->
    <title>Bitmap</title>
    <desc>Created with Sketch.</desc>
    <defs>
        <circle id="path-1" cx="50" cy="50" r="50"></circle>
        <path d="M14,2.44444444 C18,0.946325231 21.8333333,0.197265625 25.5,0.197265625 C29.1666667,0.197265625 33,0.946325231 37,2.44444444 L37,11 L14,11 L14,2.44444444 Z" id="path-3"></path>
        <path d="M27.5,43.5 L27.5,40 L23.5,40 L23.5,43.5 L20,43.5 L20,47.5 L23.5,47.5 L23.5,51 L27.5,51 L27.5,47.5 L31,47.5 L31,43.5 L27.5,43.5 Z" id="path-4"></path>
    </defs>
    <g id="AM_12_VC" stroke="none" stroke-width="1" fill="none" fill-rule="evenodd">
        <g id="12-04-12_AMOS-doctors_VC-ficha-consulta-00pendiente" transform="translate(-792.000000, -284.000000)">
            <g id="CONTENT" transform="translate(-1120.000000, 50.000000)">
                <g id="videollamada" transform="translate(1200.000000, 174.000000)">
                    <g id="datos-doctor" transform="translate(690.000000, 0.000000)">
                        <g id="Bitmap" transform="translate(22.000000, 60.000000)">
                            <mask id="mask-2" fill="white">
                                <use xlink:href="#path-1"></use>
                            </mask>
                            <use id="Mask" fill="#B4CCE4" xlink:href="#path-1"></use>
                            <g id="ico-/-user" mask="url(#mask-2)">
                                <g transform="translate(25.000000, 19.000000)">
                                    <path d="M29.745,35 L20.2525,35 C9.0675,35 1.03028697e-13,43.9544501 1.03028697e-13,55 L50,55 C50,43.9544501 40.9325,35 29.745,35" id="Fill-3" stroke="#FFFFFF" stroke-width="1"></path>
                                    <path d="M26,5 C18.595,5 13,10.595 13,18 C13,24.4025 18.595,30 26,30 C32.4025,30 38,24.4025 38,18 C38,10.595 32.4025,5 26,5" id="Fill-1" stroke="#FFFFFF" stroke-width="1"></path>
                                    <g id="Rectangle-3" stroke="none">
                                        <use fill="#B4CCE4" fill-rule="evenodd" xlink:href="#path-3"></use>
                                        <path stroke="#FFFFFF" stroke-width="1" d="M14.5,2.79262576 L14.5,10.5 L36.5,10.5 L36.5,2.79262576 C32.6715721,1.39487028 29.0053185,0.697265625 25.5,0.697265625 C21.9946815,0.697265625 18.3284279,1.39487028 14.5,2.7926262 Z"></path>
                                    </g>
                                    <g id="Rectangle-10" stroke="none">
                                        <use fill="#FFFFFF" fill-rule="evenodd" xlink:href="#path-4"></use>
                                        <path stroke="#B4CCE4" stroke-width="1" d="M28,43 L31.5,43 L31.5,48 L28,48 L28,51.5 L23,51.5 L23,48 L19.5,48 L19.5,43 L23,43 L23,39.5 L28,39.5 L28,43 Z"></path>
                                    </g>
                                    <path d="M17,36 L17,55" id="Line-2" stroke="#FFFFFF" stroke-width="1" stroke-linecap="square"></path>
                                    <path d="M35,36 L35,55" id="Line-2" stroke="#FFFFFF" stroke-width="1" stroke-linecap="square"></path>
                                </g>
                            </g>
                        </g>
                    </g>
                </g>
            </g>
        </g>
    </g>
</svg>