<?xml version="1.0" encoding="utf-8"?>
<!-- Generator: Adobe Illustrator 16.0.4, SVG Export Plug-In . SVG Version: 6.00 Build 0)  -->
<!DOCTYPE svg PUBLIC "-//W3C//DTD SVG 1.1//EN" "http://www.w3.org/Graphics/SVG/1.1/DTD/svg11.dtd">
<svg version="1.1" id="Capa_1" xmlns="http://www.w3.org/2000/svg" xmlns:xlink="http://www.w3.org/1999/xlink" x="0px" y="0px"
	 width="230px" height="304.333px" viewBox="0 0 230 304.333" enable-background="new 0 0 230 304.333" xml:space="preserve">
<g>
	<g>
		<path fill="#ffffff" d="M42,5v30H1V5H42 M43,4H0v32h43V4L43,4z"/>
	</g>
	<line fill="none" stroke="#ffffff" stroke-miterlimit="10" x1="6.5" y1="0" x2="6.5" y2="7"/>
	<line fill="none" stroke="#ffffff" stroke-miterlimit="10" x1="21.5" y1="0" x2="21.5" y2="7"/>
	<line fill="none" stroke="#ffffff" stroke-miterlimit="10" x1="36.5" y1="0" x2="36.5" y2="7"/>
	<line fill="none" x1="6.5" y1="3.977" x2="6.5" y2="7.157"/>
	<line fill="none" x1="21.5" y1="3.977" x2="21.5" y2="7.157"/>
	<line fill="none" x1="36.5" y1="3.977" x2="36.5" y2="7.157"/>
	<line fill="none" stroke="#ffffff" stroke-miterlimit="10" x1="0" y1="11.523" x2="42.948" y2="11.523"/>

		<line opacity="0.2" fill="none" stroke="#ffffff" stroke-miterlimit="10" enable-background="new    " x1="0" y1="17.523" x2="42.948" y2="17.523"/>

		<line opacity="0.2" fill="none" stroke="#ffffff" stroke-miterlimit="10" enable-background="new    " x1="6.5" y1="35.023" x2="6.5" y2="11.033"/>

		<line opacity="0.2" fill="none" stroke="#ffffff" stroke-miterlimit="10" enable-background="new    " x1="18.5" y1="35.023" x2="18.5" y2="11.033"/>

		<line opacity="0.2" fill="none" stroke="#ffffff" stroke-miterlimit="10" enable-background="new    " x1="24.5" y1="35.023" x2="24.5" y2="11.033"/>

		<line opacity="0.2" fill="none" stroke="#ffffff" stroke-miterlimit="10" enable-background="new    " x1="30.5" y1="35.023" x2="30.5" y2="11.033"/>

		<line opacity="0.2" fill="none" stroke="#ffffff" stroke-miterlimit="10" enable-background="new    " x1="36.5" y1="35.023" x2="36.5" y2="11.033"/>

		<line opacity="0.2" fill="none" stroke="#ffffff" stroke-miterlimit="10" enable-background="new    " x1="12.5" y1="35.023" x2="12.5" y2="11.033"/>

		<line opacity="0.2" fill="none" stroke="#ffffff" stroke-miterlimit="10" enable-background="new    " x1="0" y1="23.523" x2="42.948" y2="23.523"/>

		<line opacity="0.2" fill="none" stroke="#ffffff" stroke-miterlimit="10" enable-background="new    " x1="0" y1="29.523" x2="42.948" y2="29.523"/>
	<rect x="24.5" y="17.519" fill="none" stroke="#ffffff" stroke-miterlimit="10" width="6" height="6"/>
</g>
<g>
	<g>
		<g>
			<g>
				<path fill="#ffffff" d="M59,1c3.861,0,7.001,3.14,7.001,7c0,3.859-3.141,7-7.001,7c-3.859,0-6.999-3.14-6.999-7S55.141,1,59,1
					 M59,0c-4.417,0-7.999,3.582-7.999,8c0,4.417,3.582,8,7.999,8c4.418,0,8.001-3.582,8.001-8S63.418,0,59,0L59,0z"/>
			</g>
		</g>
		<path fill="none" stroke="#ffffff" stroke-miterlimit="10" d="M48,36v-8.895c0-3.648,2.955-6.606,6.6-6.606h8.8
			c3.645,0,6.6,2.958,6.6,6.606V36"/>
	</g>
	<g opacity="0.2">
		<g>
			<g>
				<path fill="#ffffff" d="M81.5,1c3.032,0,5.498,2.467,5.498,5.5S84.532,12,81.5,12C78.467,12,76,9.533,76,6.5S78.467,1,81.5,1
					 M81.5,0C77.912,0,75,2.911,75,6.5c0,3.588,2.912,6.5,6.5,6.5c3.586,0,6.498-2.912,6.498-6.5C87.998,2.911,85.086,0,81.5,0
					L81.5,0z"/>
			</g>
		</g>
		<path fill="none" stroke="#ffffff" stroke-miterlimit="10" d="M73,29.5v-7.635c0-2.963,2.281-5.363,5.102-5.363H84.9
			c2.816,0,5.1,2.4,5.1,5.363V29.5"/>
	</g>
</g>
<g>
	<line fill="none" stroke="#ffffff" stroke-miterlimit="10" x1="107.5" y1="13" x2="107.5" y2="0"/>
	<line fill="none" stroke="#ffffff" stroke-miterlimit="10" x1="107" y1="12.5" x2="116" y2="12.5"/>
	<g>
		<path fill="#ffffff" d="M107.5,1c6.341,0,11.5,5.159,11.5,11.5S113.841,24,107.5,24S96,18.841,96,12.5S101.159,1,107.5,1 M107.5,0
			C100.596,0,95,5.596,95,12.5c0,6.902,5.596,12.5,12.5,12.5S120,19.402,120,12.5C120,5.596,114.404,0,107.5,0L107.5,0z"/>
	</g>
</g>
<g>
	<g>
		<g>
			<g>
				<path fill="#ffffff" d="M128.9,1c0.256,0,0.49,0.095,0.662,0.268l3.861,3.871c0.379,0.381,0.355,1.023-0.052,1.433l-0.642,0.643
					l-1.305,1.306l-0.537,0.539l0.375,0.662c0.064,0.115,0.131,0.237,0.207,0.372c0.709,1.283,1.684,3.04,3.555,4.915
					c1.867,1.873,3.619,2.847,4.896,3.557l0.332,0.185l0.058,0.032l0.66,0.364l0.531-0.533l1.945-1.949
					c0.207-0.207,0.477-0.32,0.76-0.32c0.255,0,0.492,0.095,0.664,0.267l3.859,3.868c0.379,0.382,0.356,1.027-0.043,1.429
					l-0.857,0.842l-0.186,0.145c-0.387,0.303-0.845,0.563-1.319,0.75c-0.454,0.176-0.9,0.289-1.356,0.343
					c-0.027,0.003-0.15,0.014-0.354,0.014c-1.354,0-6.229-0.462-12.166-6.411c-4.999-5.011-6.848-8.642-6.377-12.543
					c0.05-0.447,0.162-0.894,0.336-1.355c0.193-0.492,0.445-0.941,0.753-1.334l0.122-0.172l0.857-0.864
					C128.348,1.114,128.618,1,128.9,1 M128.9,0c-0.525,0-1.06,0.206-1.467,0.615l-1.088,1.097l0.028,0.029
					c-0.365,0.467-0.669,1.005-0.896,1.586c-0.209,0.552-0.34,1.079-0.399,1.607c-0.511,4.236,1.421,8.107,6.663,13.361
					C137.92,24.487,143.075,25,144.616,25c0.266,0,0.424-0.016,0.461-0.02c0.549-0.065,1.075-0.197,1.608-0.404
					c0.573-0.226,1.11-0.531,1.576-0.896l0.023,0.021l1.102-1.082c0.797-0.8,0.818-2.076,0.053-2.848l-3.86-3.869
					c-0.375-0.375-0.871-0.561-1.372-0.561c-0.525,0-1.061,0.206-1.467,0.614l-1.945,1.948c-0.122-0.067-0.25-0.138-0.384-0.213
					c-1.228-0.683-2.909-1.617-4.679-3.392c-1.773-1.778-2.707-3.466-3.391-4.698c-0.072-0.131-0.141-0.256-0.209-0.376l1.305-1.306
					l0.643-0.645c0.797-0.799,0.818-2.075,0.052-2.845l-3.86-3.871C129.896,0.187,129.402,0,128.9,0L128.9,0z"/>
			</g>
		</g>
	</g>
</g>
<g>
	<polyline fill="none" stroke="#ffffff" stroke-miterlimit="10" points="11.412,46.5 7.5,50.959 11.5,55.5 	"/>
	<g>
		<path fill="#ffffff" d="M10.001,42C14.963,42,19,46.037,19,50.999C19,55.962,14.963,60,10.001,60C5.038,60,1,55.962,1,50.999
			C1,46.037,5.038,42,10.001,42 M10.001,41C4.479,41,0,45.478,0,50.999C0,56.521,4.479,61,10.001,61C15.522,61,20,56.521,20,50.999
			C20,45.478,15.522,41,10.001,41L10.001,41z"/>
	</g>
</g>
<g>
	<polyline fill="none" stroke="#ffffff" stroke-miterlimit="10" points="33.588,55.5 37.5,51.041 33.5,46.5 	"/>
	<g>
		<path fill="#ffffff" d="M34.999,42C39.962,42,44,46.038,44,51.001C44,55.963,39.962,60,34.999,60C30.037,60,26,55.963,26,51.001
			C26,46.038,30.037,42,34.999,42 M34.999,41C29.478,41,25,45.479,25,51.001C25,56.522,29.478,61,34.999,61
			C40.521,61,45,56.522,45,51.001C45,45.479,40.521,41,34.999,41L34.999,41z"/>
	</g>
</g>
<polyline fill="none" stroke="#ffffff" stroke-miterlimit="10" points="50.5,52.609 56.446,57.5 62.5,52.5 "/>
<polyline fill="none" stroke="#ffffff" stroke-miterlimit="10" points="62.5,46.392 56.554,41.5 50.5,46.5 "/>
<polyline fill="none" stroke="#FFFFFF" stroke-width="2" stroke-miterlimit="10" points="83,42 73,52 68,47.002 "/>
<g>
	<polyline fill="none" stroke="#ffffff" stroke-miterlimit="10" points="97.776,61.5 89.5,61.5 89.5,41.5 113.5,41.5 113.5,61.5 
		105.224,61.5 	"/>
	<g>
		<g>
			<line fill="none" stroke="#ffffff" stroke-miterlimit="10" x1="101.5" y1="67" x2="101.5" y2="48.247"/>
			<g>
				<polygon fill="#ffffff" points="106.203,52.058 105.361,52.842 101.501,48.688 97.64,52.842 96.798,52.058 101.501,47 				"/>
			</g>
		</g>
	</g>
</g>
<rect x="5.5" y="80.5" opacity="0.3" fill="none" stroke="#ffffff" stroke-miterlimit="10" enable-background="new    " width="65" height="40"/>
<g>
	<g>
		<g>
			<path fill="none" stroke="#ffffff" stroke-miterlimit="10" d="M28.072,102.285c0.303,1.664,1.028,3.271,2.207,4.658
				c3.594,4.225,9.963,4.762,14.231,1.205c1.585-1.325,2.654-3.031,3.19-4.867"/>
			<g>
				<polygon fill="#ffffff" points="50.199,107.794 49.271,108.17 47.425,103.599 43,105.774 42.56,104.876 47.949,102.227 				"/>
			</g>
		</g>
	</g>
	<g>
		<g>
			<path fill="none" stroke="#ffffff" stroke-miterlimit="10" d="M48,99.158c-0.246-1.822-0.99-3.594-2.276-5.1
				c-3.594-4.225-9.964-4.765-14.228-1.206c-1.711,1.426-2.814,3.298-3.299,5.301"/>
			<g>
				<polygon fill="#ffffff" points="25.462,93.775 26.369,93.352 28.451,97.821 32.757,95.418 33.244,96.292 27.999,99.219 				"/>
			</g>
		</g>
	</g>
</g>
<path fill="none" stroke="#ffffff" stroke-miterlimit="10" d="M73.508,75.492h-71c-1.104,0-2,0.896-2,2v46c0,1.105,0.896,2,2,2h71
	c1.104,0,2-0.895,2-2v-46C75.508,76.388,74.612,75.492,73.508,75.492z"/>
<path fill="none" stroke="#ffffff" stroke-miterlimit="10" d="M30.347,125.5v4.114H22.33c-1.011,0-1.83,0.879-1.83,1.965v-0.046
	c0,1.086,0.819,1.967,1.83,1.967h31.341c1.01,0,1.829-0.881,1.829-1.967v0.046c0-1.086-0.819-1.965-1.829-1.965h-8.029V125.5"/>
<g>
	<polyline fill="none" stroke="#FFFFFF" stroke-width="2" stroke-miterlimit="10" points="84.109,87.5 89,81.554 84,75.5 	"/>
	<polyline fill="none" stroke="#FFFFFF" stroke-width="2" stroke-miterlimit="10" points="91.009,87.5 95.9,81.554 90.9,75.5 	"/>
</g>
</svg>
