<?xml version="1.0" encoding="UTF-8"?>
<svg width="306px" height="90px" viewBox="0 0 306 90" version="1.1" xmlns="http://www.w3.org/2000/svg" xmlns:xlink="http://www.w3.org/1999/xlink">
    <!-- Generator: Sketch 46.2 (44496) - http://www.bohemiancoding.com/sketch -->
    <title>sprite-videocall</title>
    <desc>Created with Sketch.</desc>
    <defs></defs>
    <g id="Page-1" stroke="none" stroke-width="1" fill="none" fill-rule="evenodd">
        <g id="sprite-videocall">
            <g id="ico/ico-expand-screen">
                <g id="Group">
                    <circle id="Oval" fill="#FFFFFF" fill-rule="nonzero" cx="20" cy="20" r="20"></circle>
                    <g id="Group-2" transform="translate(9.000000, 9.000000)" fill="#000000">
                        <g id="call_received---material" transform="translate(0.000000, 10.000000)">
                            <polygon id="" points="10.008 2.5 4.2 8.308 7.5 8.308 7.5 9.292 2.508 9.292 2.508 4.3 3.492 4.3 3.492 7.6 9.3 1.792"></polygon>
                        </g>
                        <g id="call_made---material" transform="translate(10.000000, 0.000000)">
                            <polygon id="" points="4.5 2.308 9.492 2.308 9.492 7.3 8.508 7.3 8.508 4 2.7 9.808 1.992 9.1 7.8 3.292 4.5 3.292"></polygon>
                        </g>
                    </g>
                </g>
            </g>
            <g id="ico/ico-upload" transform="translate(250.000000, 40.000000)">
                <g id="Group">
                    <polyline id="Shape" stroke="#333333" points="8.776 20.5 0.5 20.5 0.5 0.5 24.5 0.5 24.5 20.5 16.224 20.5"></polyline>
                    <g id="Shape" transform="translate(7.000000, 6.000000)">
                        <path d="M5.5,20 L5.5,1.247" stroke="#333333"></path>
                        <polygon fill="#333333" fill-rule="nonzero" points="10.203 5.058 9.361 5.842 5.501 1.688 1.64 5.842 0.798 5.058 5.501 0"></polygon>
                    </g>
                </g>
            </g>
            <g id="ico/ico-compress-screen" transform="translate(0.000000, 50.000000)">
                <g id="Group">
                    <circle id="Oval" fill="#FFFFFF" fill-rule="nonzero" cx="20" cy="20" r="20"></circle>
                    <g id="Group-2" transform="translate(9.000000, 9.000000)" fill="#000000">
                        <g id="" transform="translate(0.000000, 10.000000)">
                            <polygon points="4.5 2.308 9.492 2.308 9.492 7.3 8.508 7.3 8.508 4 2.7 9.808 1.992 9.1 7.8 3.292 4.5 3.292"></polygon>
                        </g>
                        <g id="" transform="translate(10.000000, 0.000000)">
                            <polygon points="10.008 2.5 4.2 8.308 7.5 8.308 7.5 9.292 2.508 9.292 2.508 4.3 3.492 4.3 3.492 7.6 9.3 1.792"></polygon>
                        </g>
                    </g>
                </g>
            </g>
            <g id="ico/ico-video" transform="translate(50.000000, 0.000000)">
                <g id="Group">
                    <circle id="Oval" fill="#FFFFFF" fill-rule="nonzero" cx="20" cy="20" r="20"></circle>
                    <polygon id="ico-llamar" stroke="#333333" stroke-linecap="round" stroke-linejoin="round" points="30.2 14.2273076 24.4365635 17.688315 24.4365635 13 11 13 11 26.9094861 24.4365635 26.9094861 24.4365635 22.2203529 30.2 25.6821785"></polygon>
                </g>
            </g>
            <g id="ico/ico-micro" transform="translate(100.000000, 0.000000)">
                <g id="Group">
                    <circle id="Oval" fill="#FFFFFF" fill-rule="nonzero" cx="20" cy="20" r="20"></circle>
                    <g id="Group-2" transform="translate(14.000000, 9.000000)" stroke="#333333">
                        <rect id="Rectangle" x="3.5" y="0.5" width="5" height="13" rx="2.5"></rect>
                        <path d="M0,11 C0,14.3137085 2.6862915,17 6,17 L6,17 C9.3137085,17 12,14.3137085 12,11" id="Oval-2"></path>
                        <path d="M6,16.5 L6,21.5" id="Line"></path>
                    </g>
                </g>
            </g>
            <g id="ico/ico-share-screen" transform="translate(150.000000, 0.000000)">
                <g id="Group">
                    <circle id="Oval" fill="#FFFFFF" fill-rule="nonzero" cx="20" cy="20" r="20"></circle>
                    <g id="Group-2" transform="translate(9.000000, 10.000000)" stroke="#333333">
                        <rect id="Rectangle" x="0.5" y="0.5" width="22" height="15" rx="1"></rect>
                        <rect id="Rectangle-2" x="10.5" y="15.5" width="2" height="4"></rect>
                        <path d="M5.5,19.5 L17.5,19.5" id="Line" stroke-linecap="square"></path>
                    </g>
                </g>
            </g>
            <g id="ico/ico-attach" transform="translate(200.000000, 0.000000)" fill-rule="nonzero">
                <g id="Group">
                    <circle id="Oval" fill="#FFFFFF" cx="20" cy="20" r="20"></circle>
                    <g id="Group-3" transform="translate(12.000000, 6.000000)" fill="#333333">
                        <polygon id="Path" points="16 4 17 4 17 25 0 25 0 4 4.453125 4 4.453125 5 1 5 1 24 16 24"></polygon>
                        <path d="M13.32,4 L14.25,4 L14.25,11.17 C14.25,11.8000032 14.0975015,12.3799974 13.7925,12.91 C13.4874985,13.4400027 13.0725026,13.8599984 12.5475,14.17 C12.0224974,14.4800016 11.4500031,14.635 10.83,14.635 C10.2099969,14.635 9.63500265,14.4800016 9.105,14.17 C8.57499735,13.8599984 8.15250157,13.4400027 7.8375,12.91 C7.52249843,12.3799974 7.365,11.8000032 7.365,11.17 L7.365,3.385 C7.365,2.93499775 7.47999885,2.51750193 7.71,2.1325 C7.94000115,1.74749807 8.24749807,1.44000115 8.6325,1.21 C9.01750192,0.97999885 9.43499775,0.865 9.885,0.865 C10.3350022,0.865 10.7499981,0.977498875 11.13,1.2025 C11.5100019,1.42750113 11.8124989,1.73499805 12.0375,2.125 C12.2625011,2.51500195 12.375,2.93499775 12.375,3.385 L12.375,9.94 C12.375,10.2200014 12.3050007,10.4799988 12.165,10.72 C12.0249993,10.9600012 11.8375012,11.1499993 11.6025,11.29 C11.3674988,11.4300007 11.1100014,11.5 10.83,11.5 C10.5499986,11.5 10.2875012,11.4300007 10.0425,11.29 C9.79749877,11.1499993 9.60250073,10.9600012 9.4575,10.72 C9.31249928,10.4799988 9.24,10.2200014 9.24,9.94 L9.24,4 L10.185,4 L10.185,9.94 C10.185,10.1200009 10.2474994,10.2674994 10.3725,10.3825 C10.4975006,10.4975006 10.6499991,10.555 10.83,10.555 C11.0100009,10.555 11.1574994,10.4975006 11.2725,10.3825 C11.3875006,10.2674994 11.445,10.1200009 11.445,9.94 L11.445,3.385 C11.445,3.1049986 11.3750007,2.84250122 11.235,2.5975 C11.0949993,2.35249878 10.9050012,2.15750073 10.665,2.0125 C10.4249988,1.86749928 10.1650014,1.795 9.885,1.795 C9.6049986,1.795 9.3450012,1.86749928 9.105,2.0125 C8.8649988,2.15750073 8.67250072,2.35249878 8.5275,2.5975 C8.38249928,2.84250122 8.31,3.1049986 8.31,3.385 L8.31,11.17 C8.31,11.6200022 8.42499885,12.0399981 8.655,12.43 C8.88500115,12.8200019 9.19249807,13.1299988 9.5775,13.36 C9.96250192,13.5900011 10.3799977,13.705 10.83,13.705 C11.2800022,13.705 11.6949981,13.5900011 12.075,13.36 C12.4550019,13.1299988 12.7574989,12.8200019 12.9825,12.43 C13.2075011,12.0399981 13.32,11.6200022 13.32,11.17 L13.32,4 Z" id="attach_file---material"></path>
                    </g>
                </g>
            </g>
            <g id="ico/ico-file" transform="translate(289.000000, 40.000000)" fill-rule="nonzero" fill="#333333">
                <g id="Group-3">
                    <polygon id="Path" points="16 4 17 4 17 25 0 25 0 4 4.453125 4 4.453125 5 1 5 1 24 16 24"></polygon>
                    <path d="M13.32,4 L14.25,4 L14.25,11.17 C14.25,11.8000032 14.0975015,12.3799974 13.7925,12.91 C13.4874985,13.4400027 13.0725026,13.8599984 12.5475,14.17 C12.0224974,14.4800016 11.4500031,14.635 10.83,14.635 C10.2099969,14.635 9.63500265,14.4800016 9.105,14.17 C8.57499735,13.8599984 8.15250157,13.4400027 7.8375,12.91 C7.52249843,12.3799974 7.365,11.8000032 7.365,11.17 L7.365,3.385 C7.365,2.93499775 7.47999885,2.51750193 7.71,2.1325 C7.94000115,1.74749807 8.24749807,1.44000115 8.6325,1.21 C9.01750192,0.97999885 9.43499775,0.865 9.885,0.865 C10.3350022,0.865 10.7499981,0.977498875 11.13,1.2025 C11.5100019,1.42750113 11.8124989,1.73499805 12.0375,2.125 C12.2625011,2.51500195 12.375,2.93499775 12.375,3.385 L12.375,9.94 C12.375,10.2200014 12.3050007,10.4799988 12.165,10.72 C12.0249993,10.9600012 11.8375012,11.1499993 11.6025,11.29 C11.3674988,11.4300007 11.1100014,11.5 10.83,11.5 C10.5499986,11.5 10.2875012,11.4300007 10.0425,11.29 C9.79749877,11.1499993 9.60250073,10.9600012 9.4575,10.72 C9.31249928,10.4799988 9.24,10.2200014 9.24,9.94 L9.24,4 L10.185,4 L10.185,9.94 C10.185,10.1200009 10.2474994,10.2674994 10.3725,10.3825 C10.4975006,10.4975006 10.6499991,10.555 10.83,10.555 C11.0100009,10.555 11.1574994,10.4975006 11.2725,10.3825 C11.3875006,10.2674994 11.445,10.1200009 11.445,9.94 L11.445,3.385 C11.445,3.1049986 11.3750007,2.84250122 11.235,2.5975 C11.0949993,2.35249878 10.9050012,2.15750073 10.665,2.0125 C10.4249988,1.86749928 10.1650014,1.795 9.885,1.795 C9.6049986,1.795 9.3450012,1.86749928 9.105,2.0125 C8.8649988,2.15750073 8.67250072,2.35249878 8.5275,2.5975 C8.38249928,2.84250122 8.31,3.1049986 8.31,3.385 L8.31,11.17 C8.31,11.6200022 8.42499885,12.0399981 8.655,12.43 C8.88500115,12.8200019 9.19249807,13.1299988 9.5775,13.36 C9.96250192,13.5900011 10.3799977,13.705 10.83,13.705 C11.2800022,13.705 11.6949981,13.5900011 12.075,13.36 C12.4550019,13.1299988 12.7574989,12.8200019 12.9825,12.43 C13.2075011,12.0399981 13.32,11.6200022 13.32,11.17 L13.32,4 Z" id="attach_file---material"></path>
                </g>
            </g>
            <g id="ico/ico-close" transform="translate(250.000000, 0.000000)">
                <g id="Group">
                    <g id="Oval">
                        <g id="path-1-link" fill="#FFFFFF">
                            <circle id="path-1" cx="15" cy="15" r="15"></circle>
                        </g>
                        <circle stroke="#333333" cx="15" cy="15" r="14.5"></circle>
                    </g>
                    <path d="M9,22.2639247 L21.456822,8.25" id="Line" stroke="#333333"></path>
                    <path d="M9,22.2639247 L21.456822,8.25" id="Line" stroke="#333333" transform="translate(15.228411, 15.256962) scale(-1, 1) translate(-15.228411, -15.256962) "></path>
                </g>
            </g>
            <g id="ico/ico-video-slashed" transform="translate(50.000000, 50.000000)">
                <g id="Group">
                    <circle id="Oval" fill="#FFFFFF" fill-rule="nonzero" cx="20" cy="20" r="20"></circle>
                    <polygon id="ico-llamar" stroke="#333333" stroke-linecap="round" stroke-linejoin="round" points="30.2 14.2273076 24.4365635 17.688315 24.4365635 13 11 13 11 26.9094861 24.4365635 26.9094861 24.4365635 22.2203529 30.2 25.6821785"></polygon>
                    <path d="M30.2132034,9 L9,30.2132034" id="Line" stroke="#333333"></path>
                </g>
            </g>
            <g id="ico/ico-micro-slashed" transform="translate(100.000000, 50.000000)">
                <g id="Group">
                    <circle id="Oval" fill="#FFFFFF" fill-rule="nonzero" cx="20" cy="20" r="20"></circle>
                    <g id="Group-2" transform="translate(14.000000, 9.000000)" stroke="#333333">
                        <rect id="Rectangle" x="3.5" y="0.5" width="5" height="13" rx="2.5"></rect>
                        <path d="M0,11 C0,14.3137085 2.6862915,17 6,17 L6,17 C9.3137085,17 12,14.3137085 12,11" id="Oval-2"></path>
                        <path d="M6,16.5 L6,21.5" id="Line"></path>
                    </g>
                    <path d="M30.2132034,9 L9,30.2132034" id="Line" stroke="#333333"></path>
                </g>
            </g>
            <g id="ico/ico-sharing-screen" transform="translate(150.000000, 50.000000)">
                <g id="Group">
                    <circle id="Oval" fill="#38B549" fill-rule="nonzero" cx="20" cy="20" r="20"></circle>
                    <g id="Group-2" transform="translate(9.000000, 10.000000)" stroke="#FFFFFF">
                        <rect id="Rectangle" x="0.5" y="0.5" width="22" height="15" rx="1"></rect>
                        <rect id="Rectangle-2" x="10.5" y="15.5" width="2" height="4"></rect>
                        <path d="M5.5,19.5 L17.5,19.5" id="Line" stroke-linecap="square"></path>
                    </g>
                </g>
            </g>
            <g id="ico/ico-call-end" transform="translate(200.000000, 50.000000)">
                <g id="Group">
                    <circle id="Oval" fill="#FF0000" fill-rule="nonzero" cx="20" cy="20" r="20"></circle>
                    <g id="ico-/-ico-call" transform="translate(7.000000, 15.000000)">
                        <g id="Shape" transform="translate(13.365840, 5.000000) scale(-1, 1) translate(-13.365840, -5.000000) translate(0.865840, 0.000000)">
                            <g id="path-2-link" fill="#FFFFFF">
                                <path d="M24.3838702,8.74211797 C24.6808551,8.44513312 24.8669656,8.02596022 24.8658342,7.56436092 L24.8607431,6.32833826 L24.828499,6.32777258 C24.7707991,5.8571223 24.6384287,5.38081518 24.438176,4.92374135 C24.2441459,4.49325475 24.0201345,4.12103374 23.754828,3.78897639 C21.6476498,1.10366768 18.3649773,0.00680363999 12.4275431,1.54148936e-05 C5.42944871,-0.00733849563 2.22314372,2.61857325 1.35142248,3.49029449 C1.20095016,3.64076681 1.12062283,3.73919607 1.10195521,3.76238918 C0.828163462,4.10972003 0.605283405,4.48194104 0.420869956,4.90054825 C0.224577114,5.35253091 0.0933380951,5.82883803 0.0362038672,6.29892262 L0.0113137085,6.30005399 L0,7.53551096 C0.00169705627,8.43891058 0.711632265,9.17260458 1.58109076,9.17656438 L5.95327341,9.18165555 C6.37753748,9.18165555 6.76333494,9.00629307 7.04674334,8.72288467 C7.34372819,8.42589982 7.53040438,8.00616123 7.52927301,7.5456933 L7.52757595,5.34347994 C7.6344905,5.31236724 7.74706189,5.28012317 7.86529015,5.24674773 C8.946315,4.93844917 10.4255824,4.51588216 12.4309372,4.51871059 C14.4396862,4.52153902 15.9229133,4.94806583 17.0067666,5.25806144 C17.1216008,5.29143688 17.2313437,5.32311526 17.3376926,5.35253091 L17.3382583,6.82953555 L17.3393896,7.55813838 C17.340521,8.46097232 18.0504562,9.19466631 18.919349,9.19692905 L23.2926631,9.20315159 C23.7146644,9.19975748 24.0998962,9.02609206 24.3838702,8.74211797 Z" id="path-2"></path>
                            </g>
                            <path d="M24.3619874,6.63146772 L24.3322146,6.38861513 C24.2804899,5.96670416 24.1611581,5.53741952 23.9823387,5.12919763 C23.8048996,4.73552082 23.6024312,4.39925173 23.3614763,4.09764192 C21.3675752,1.55668923 18.2276607,0.506646974 12.4270177,0.500015139 C7.02327441,0.494336644 3.57994233,1.96888141 1.70497587,3.84384788 C1.60085999,3.94796375 1.53367674,4.02344408 1.49462567,4.07192094 C1.24691644,4.38616363 1.04583768,4.72213377 0.879487074,5.09972239 C0.70196845,5.50847565 0.583738109,5.93809775 0.532551273,6.35924884 L0.509012943,6.55291569 L0.499999118,7.5345717 C0.501184574,8.16562935 0.991511169,8.67387405 1.58167299,8.67656472 L5.95327341,8.68165555 C6.23101688,8.68165555 6.49330242,8.5692188 6.69318995,8.36933128 C6.90605742,8.1564638 7.0300452,7.86059102 7.02927315,7.54607861 L7.0272867,4.96832592 L7.3878686,4.86339468 C7.49610405,4.83189759 7.60996172,4.79928509 7.72816222,4.76591935 C8.08625814,4.66379362 8.25466184,4.61667723 8.47874543,4.55732871 C9.81735052,4.20279925 11.0225092,4.01672359 12.4316412,4.01871109 C13.8364485,4.02068913 15.0401587,4.20844009 16.3766976,4.56336144 C16.6053372,4.62407728 16.7711526,4.67062405 17.1463124,4.7779292 C17.2892563,4.81947445 17.3808225,4.8456866 17.4709856,4.87062535 L17.8375469,4.97201463 L17.8376926,5.35233941 L17.8382577,6.82875915 L17.8393893,7.55751181 C17.840179,8.18776764 18.3301331,8.69539294 18.9200605,8.69692956 L23.2886417,8.70316776 C23.5681749,8.70091951 23.8309062,8.58797524 24.0303169,8.38856458 C24.2430714,8.17581005 24.3666076,7.88051558 24.3658385,7.5664204 L24.3619874,6.63146772 Z" stroke="#FFFFFF"></path>
                        </g>
                    </g>
                </g>
            </g>
        </g>
    </g>
</svg>
