<svg width="25" height="37" viewBox="0 0 25 37" fill="none" xmlns="http://www.w3.org/2000/svg">
<path d="M18.2266 1.11463C20.204 1.11463 21.5631 1.59088 22.4691 2.53005C23.3615 3.45564 23.8208 4.82075 23.8208 6.80107V30.8173C23.8208 32.7984 23.3475 34.202 22.4513 35.1129C21.5561 36.0228 20.1771 36.5037 18.2266 36.5037H6.05825C4.10771 36.5037 2.72872 36.0228 1.83353 35.1129C0.937256 34.202 0.463998 32.7984 0.463998 30.8173V6.80107C0.463998 4.85083 0.94908 3.44538 1.85392 2.52584C2.75775 1.60734 4.13861 1.11463 6.05825 1.11463H18.2266ZM12.1333 32.9307C12.8455 32.9307 13.449 32.7046 13.8888 32.2647C14.3322 31.8211 14.5375 31.2139 14.5183 30.5219C14.5173 29.8106 14.305 29.2017 13.876 28.7698C13.4457 28.3367 12.8391 28.1234 12.1333 28.1234C11.4276 28.1234 10.821 28.3367 10.3907 28.7698C9.96066 29.2028 9.74837 29.8135 9.74837 30.5271C9.74837 31.2245 9.92961 31.8163 10.3779 32.2647C10.8177 32.7046 11.4211 32.9307 12.1333 32.9307Z" stroke="white" stroke-width="0.707782"/>
</svg>
