<svg width="362" height="362" viewBox="0 0 362 362" fill="none" xmlns="http://www.w3.org/2000/svg">
<path d="M326.937 181C326.937 100.401 261.599 35.0628 181 35.0628C100.401 35.0628 35.0628 100.401 35.0628 181C35.0628 261.599 100.401 326.937 181 326.937V362C81.0365 362 0 280.964 0 181C0 81.0365 81.0365 0 181 0C280.964 0 362 81.0365 362 181C362 280.964 280.964 362 181 362V326.937C261.599 326.937 326.937 261.599 326.937 181Z" fill="white"/>
<path d="M201.848 269.13C201.848 280.645 192.514 289.979 181 289.979C169.486 289.979 160.152 280.645 160.152 269.13C160.152 257.616 169.486 248.282 181 248.282C192.514 248.282 201.848 257.616 201.848 269.13Z" fill="white"/>
<path d="M191.898 229.803L206.586 97.6064L156.361 97.7334L171.05 229.803H191.898Z" fill="white"/>
<path d="M206.586 97.1331C206.586 111.002 195.343 122.246 181.474 122.246C167.604 122.246 156.361 111.002 156.361 97.1331C156.361 83.2638 167.604 72.0205 181.474 72.0205C195.343 72.0205 206.586 83.2638 206.586 97.1331Z" fill="white"/>
<path d="M192.372 227.908C192.372 233.926 187.492 238.806 181.474 238.806C175.455 238.806 170.576 233.926 170.576 227.908C170.576 221.889 175.455 217.01 181.474 217.01C187.492 217.01 192.372 221.889 192.372 227.908Z" fill="white"/>
</svg>
