<svg width="16" height="16" viewBox="0 0 16 16" fill="none" xmlns="http://www.w3.org/2000/svg"><path fill-rule="evenodd" clip-rule="evenodd" d="M15 8C15 11.866 11.866 15 8 15C4.13401 15 1 11.866 1 8C1 4.13401 4.13401 1 8 1C11.866 1 15 4.13401 15 8ZM16 8C16 12.4183 12.4183 16 8 16C3.58172 16 0 12.4183 0 8C0 3.58172 3.58172 0 8 0C12.4183 0 16 3.58172 16 8ZM7.4666 8.53357L7.46686 8.53332L7.8204 8.88686L12.0871 4.62019L11.38 3.91309L7.82014 7.4729L4.97371 4.62646L4.2666 5.33357L7.4666 8.53357Z" fill="currentColor"/></svg>