<svg version="1.1" xmlns="http://www.w3.org/2000/svg" xmlns:xlink="http://www.w3.org/1999/xlink" x="0px" y="0px" viewBox="0 0 50 50">
    <path d="M35.9,20.12H21.5a1,1,0,0,1,0-2H35.9a1,1,0,0,1,0,2ZM15,17.45a1.67,1.67,0,1,0,1.66,1.67A1.67,1.67,0,0,0,15,17.45Zm0,8.86A1.67,1.67,0,1,0,16.7,28,1.66,1.66,0,0,0,15,26.31Zm0,8.85a1.67,1.67,0,1,0,1.66,1.66A1.66,1.66,0,0,0,15,35.16ZM36.9,28a1,1,0,0,0-1-1H21.5a1,1,0,0,0,0,2H35.9A1,1,0,0,0,36.9,28Zm0,8.85a1,1,0,0,0-1-1H21.5a1,1,0,0,0,0,2H35.9A1,1,0,0,0,36.9,36.82ZM42,8.41V46A4.06,4.06,0,0,1,38,50.09H11.35A4.06,4.06,0,0,1,7.3,46V8.41a4.06,4.06,0,0,1,4.05-4.06h8.77a4.6,4.6,0,0,1,9.18,0H38A4.06,4.06,0,0,1,42,8.41Zm-2,0A2.07,2.07,0,0,0,38,6.35H32.34a1,1,0,0,1,.09.42v.5A1.74,1.74,0,0,1,30.69,9h-12A1.74,1.74,0,0,1,16.9,7.27V6.35H11.35a2.06,2.06,0,0,0-2,2.06V46a2.06,2.06,0,0,0,2,2.06H38A2.07,2.07,0,0,0,40,46Z"></path>
</svg>