<svg version="1.1" xmlns="http://www.w3.org/2000/svg" xmlns:xlink="http://www.w3.org/1999/xlink" x="0px" y="0px" viewBox="0 0 50 50">
    <path d="M39.35,12.68a21.32,21.32,0,0,0-27.93,0A1,1,0,0,0,11.25,14l4.24,6.18a1,1,0,0,0,.7.43h.12a1,1,0,0,0,.66-.25,12.65,12.65,0,0,1,16.82,0,1,1,0,0,0,.79.24,1,1,0,0,0,.7-.43L39.52,14A1,1,0,0,0,39.35,12.68Zm-5.1,5.48a14.6,14.6,0,0,0-13.87-2.1L19.05,13a1,1,0,1,0-1.84.79l1.33,3.12a14.38,14.38,0,0,0-2,1.29l-3.11-4.54a19.34,19.34,0,0,1,23.94,0ZM25.38,48A18.39,18.39,0,0,1,7,29.64c0-.13,0-.26,0-.39v-.13c0-.13,0-.22,0-.31V4.86a3.55,3.55,0,0,1,3.55-3.55H40.21a3.55,3.55,0,0,1,3.55,3.55v24a1.66,1.66,0,0,1,0,.32v.12c0,.13,0,.26,0,.39A18.39,18.39,0,0,1,25.38,48ZM10.56,3.31A1.54,1.54,0,0,0,9,4.86v24S9,29,9,29a.61.61,0,0,1,0,.14c0,.09,0,.18,0,.27s0,.17,0,.25a16.38,16.38,0,0,0,32.75,0c0-.09,0-.17,0-.25l0-.27a.61.61,0,0,1,0-.14s0-.1,0-.11v-24a1.55,1.55,0,0,0-1.55-1.55Z"></path>
</svg>