<svg width="14" height="13" viewBox="0 0 14 13" fill="none" xmlns="http://www.w3.org/2000/svg">
<path fill-rule="evenodd" clip-rule="evenodd" d="M5.53595 0.522964C5.29029 0.581037 5.11363 0.808023 5.12737 1.06904C5.14282 1.36268 5.3934 1.5882 5.68704 1.57274L11.4543 1.26957L0.944101 11.7797C0.637165 12.0867 0.5569 12.504 0.764825 12.712C0.972749 12.9199 1.39013 12.8396 1.69706 12.5327L12.2072 2.02256L11.904 7.78972L11.9076 7.88575C11.9395 8.13615 12.1467 8.33566 12.4077 8.3494C12.7014 8.36485 12.9519 8.13934 12.9674 7.84569L13.3439 0.692559C13.3605 0.376833 13.0999 0.116269 12.7842 0.132887L5.63107 0.509368L5.53595 0.522964Z" fill="white"/>
</svg>