<svg version="1.1" xmlns="http://www.w3.org/2000/svg" xmlns:xlink="http://www.w3.org/1999/xlink" x="0px" y="0px" viewBox="0 0 50 50">
    <path d="M47,8.06h0a4,4,0,0,0-1.25-.22H4.9a4,4,0,0,0-1.26.22h0A3.94,3.94,0,0,0,1,11.77V37.34A3.93,3.93,0,0,0,4.9,41.28H45.7a3.94,3.94,0,0,0,3.94-3.94V11.77A4,4,0,0,0,47,8.06ZM44.34,9.83,26.6,27.57a1.87,1.87,0,0,1-2.6,0L6.25,9.83Zm3.3,27.51a1.94,1.94,0,0,1-1.94,1.94H4.9A1.94,1.94,0,0,1,3,37.34V11.77a1.93,1.93,0,0,1,.82-1.59L22.59,29A3.84,3.84,0,0,0,28,29l18.8-18.81a1.94,1.94,0,0,1,.83,1.59Z"/>
</svg>