<svg width="22" height="22" viewBox="0 0 22 22" xmlns="http://www.w3.org/2000/svg">
<path fill-rule="evenodd" clip-rule="evenodd" d="M4.99062 5.65938C4.99062 2.53379 7.52441 0 10.65 0C13.7756 0 16.3094 2.53379 16.3094 5.65938C16.3094 8.78497 13.7756 11.3188 10.65 11.3188C7.52441 11.3188 4.99062 8.78497 4.99062 5.65938ZM10.65 1.3C8.24238 1.3 6.29062 3.25176 6.29062 5.65938C6.29062 8.067 8.24238 10.0188 10.65 10.0188C13.0576 10.0188 15.0094 8.067 15.0094 5.65938C15.0094 3.25176 13.0576 1.3 10.65 1.3ZM4.15578 13.8131C6.31698 12.9467 8.89923 12.5141 10.65 12.5141C12.4017 12.5141 14.9841 12.9517 17.1448 13.8204C18.2257 14.2549 19.2419 14.8134 19.9983 15.5124C20.7589 16.2154 21.3 17.1045 21.3 18.1735V21.3188H0V18.1735C0 17.1008 0.540036 16.2094 1.30137 15.5048C2.05806 14.8045 3.07466 14.2465 4.15578 13.8131ZM2.18437 16.4589C1.59252 17.0066 1.3 17.5763 1.3 18.1735V20.0188H20V18.1735C20 17.582 19.7085 17.0147 19.116 16.4671C18.5191 15.9156 17.6615 15.4292 16.6599 15.0265C14.6555 14.2207 12.2379 13.8141 10.65 13.8141C9.06118 13.8141 6.64344 14.2164 4.63953 15.0197C3.6381 15.4212 2.78087 15.9069 2.18437 16.4589Z" />
</svg>
