<svg version="1.1" xmlns="http://www.w3.org/2000/svg" xmlns:xlink="http://www.w3.org/1999/xlink" x="0px" y="0px" viewBox="0 0 20 20.1" xml:space="preserve">
<g>
	<path d="M10,0.1c-5.5,0-10,4.5-10,10s4.5,10,10,10s10-4.5,10-10S15.5,0.1,10,0.1z M12.3,14.7c-0.3,0.3-0.7,0.3-0.9,0
		c-0.3-0.3-0.3-0.7,0-0.9l3-3H4c-0.4,0-0.7-0.4-0.7-0.7S3.7,9.4,4,9.4h10.3l-3-3c-0.3-0.3-0.3-0.7,0-0.9c0.3-0.3,0.7-0.3,0.9,0
		l4.1,4.1c0.4,0.3,0.4,0.7,0,0.9L12.3,14.7z"/>
	<path fill="currentColor" d="M10,0.1c-5.5,0-10,4.5-10,10s4.5,10,10,10s10-4.5,10-10S15.5,0.1,10,0.1z M12.3,14.7c-0.3,0.3-0.7,0.3-0.9,0
		c-0.3-0.3-0.3-0.7,0-0.9l3-3H4c-0.4,0-0.7-0.4-0.7-0.7S3.7,9.4,4,9.4h10.3l-3-3c-0.3-0.3-0.3-0.7,0-0.9c0.3-0.3,0.7-0.3,0.9,0
		l4.1,4.1c0.4,0.3,0.4,0.7,0,0.9L12.3,14.7z"/>
</g>
</svg>