<svg version="1.1" xmlns="http://www.w3.org/2000/svg" xmlns:xlink="http://www.w3.org/1999/xlink" x="0px" y="0px" viewBox="0 0 50 50">
    <path d="M39.58,49.24h-.06c-7.16,0-15.52-4.72-24.82-14C3.57,24.08-1,14.48,1.15,6.66A5.28,5.28,0,0,1,3.58,3.53L8.08.85a2.28,2.28,0,0,1,2.77.83L17.72,12a2.33,2.33,0,0,1-.63,2.84l-3.95,3.08a1.93,1.93,0,0,0-.33,2.33l.51.94a32.81,32.81,0,0,0,5.9,7.64l.93.94c4,4,6.09,5.47,9,7l.76.4a1.89,1.89,0,0,0,2.26-.62l3.1-4a2.31,2.31,0,0,1,2.89-.31l10.3,6.89a2.28,2.28,0,0,1,.49,2.9l-2.74,4.53a5.34,5.34,0,0,1-2.94,2.12A14.2,14.2,0,0,1,39.58,49.24ZM8.88,2.68l-.12.06L4.6,5.25a3.29,3.29,0,0,0-1.52,2c-1.94,7.06,2.45,16,13,26.6C25,42.72,32.91,47.24,39.52,47.24a12.24,12.24,0,0,0,3.19-.41,3.34,3.34,0,0,0,1.81-1.3l.16-.25,2.53-4.2a.26.26,0,0,0-.06-.33l-.08-.07L37,34a.27.27,0,0,0-.34,0l-.07.08-2.89,3.71A3.88,3.88,0,0,1,29,39l-.87-.46c-3.05-1.66-5.24-3.19-9.43-7.38l-.94-.95a35.19,35.19,0,0,1-6.22-8.07l-.51-.94a3.91,3.91,0,0,1,.75-4.8l.24-.2,3.81-3a.29.29,0,0,0,.08-.34l-.06-.09-6.69-10A.29.29,0,0,0,8.88,2.68Zm22.87,20.9A5.76,5.76,0,0,0,26,17.83a1,1,0,0,0,0,2,3.75,3.75,0,0,1,3.75,3.75,1,1,0,0,0,2,0Zm5.32,0A11.08,11.08,0,0,0,26,12.51a1,1,0,0,0,0,2,9.08,9.08,0,0,1,9.07,9.07,1,1,0,0,0,2,0Zm5.38,0A16.47,16.47,0,0,0,26,7.13a1,1,0,1,0,0,2A14.46,14.46,0,0,1,40.45,23.58a1,1,0,0,0,2,0Z"/>
</svg>