<svg width="15" height="16" viewBox="0 0 15 16" fill="none" xmlns="http://www.w3.org/2000/svg">
     <path fill-rule="evenodd" clip-rule="evenodd" d="M3 7C4.16667 9.33333 6.16667 11.25 8.5 12.5L10.3333 10.6667C10.5833 10.4167 10.9167 10.3333 11.1667 10.5C12.0833 10.8333 13.0833 11 14.1667 11C14.6667 11 15 11.3333 15 11.8333V14.6667C15 15.1667 14.6667 15.5 14.1667 15.5C6.33333 15.5 0 9.16667 0 1.33333C0 0.833333 0.333333 0.5 0.833333 0.5H3.75C4.25 0.5 4.58333 0.833333 4.58333 1.33333C4.58333 2.33333 4.75 3.33333 5.08333 4.33333C5.16667 4.58333 5.08333 4.91667 4.91667 5.16667L3 7Z" fill="currentColor"></path>
</svg>