<?xml version="1.0" encoding="UTF-8"?>
<svg width="30px" height="30px" viewBox="0 0 30 30" version="1.1" xmlns="http://www.w3.org/2000/svg" xmlns:xlink="http://www.w3.org/1999/xlink">
    <defs></defs>
    <g id="design" stroke="none" stroke-width="1" fill="none" fill-rule="evenodd">
        <g id="cookie-quadrat-light-icona" transform="translate(-139.000000, -139.000000)" fill="#000000" fill-rule="nonzero">
            <g id="Group" transform="translate(154.000000, 154.000000) scale(1, -1) translate(-154.000000, -154.000000) translate(139.000000, 139.000000)">
                <path d="M17.5657895,21.8355263 C15.8552632,21.8355263 15.8552632,24.5460526 17.5657895,24.5460526 C19.3421053,24.5460526 19.3421053,21.8355263 17.5657895,21.8355263 Z" id="Shape"></path>
                <path d="M24.0789474,16.5657895 C22.3026316,16.5657895 22.3026316,19.2763158 24.0789474,19.2763158 C25.8552632,19.2763158 25.8552632,16.5657895 24.0789474,16.5657895 Z" id="Shape"></path>
                <path d="M15.4605263,13.4078947 C13.75,13.4078947 13.75,16.1184211 15.4605263,16.1184211 C17.2368421,16.1184211 17.2368421,13.4078947 15.4605263,13.4078947 Z" id="Shape"></path>
                <path d="M13.5526316,3.06578947 C10.9210526,3.06578947 10.9210526,7.13815789 13.5526316,7.13815789 C16.1842105,7.13815789 16.1842105,3.06578947 13.5526316,3.06578947 Z" id="Shape"></path>
                <path d="M9.47368421,18.875 C6.90789474,18.875 6.90789474,22.9473684 9.47368421,22.9473684 C12.1052632,22.9407895 12.1052632,18.875 9.47368421,18.875 Z" id="Shape"></path>
                <path d="M7.36842105,11.3157895 C5,11.3157895 5,15.0460526 7.36842105,15.0460526 C9.80263158,15.0460526 9.80263158,11.3157895 7.36842105,11.3157895 Z" id="Shape"></path>
                <path d="M29.8815789,13.5065789 C29.8355263,13.1381579 29.5131579,12.8684211 29.1447368,12.8947368 C29.125,12.8947368 29.1052632,12.8947368 29.0855263,12.8947368 C28.1381579,12.8947368 27.2302632,12.5394737 26.5328947,11.9013158 C26.3355263,11.7236842 26.0526316,11.6710526 25.8092105,11.7763158 C25.2368421,12.0197368 24.625,12.1447368 24.0065789,12.1447368 C21.4605263,12.1447368 19.3947368,10.0855263 19.3881579,7.53947368 C19.3881579,6.96052632 19.4934211,6.39473684 19.7039474,5.85526316 C19.8026316,5.59868421 19.7368421,5.30263158 19.5328947,5.11842105 C18.8881579,4.51973684 18.5263158,3.67763158 18.5328947,2.79605263 C18.5328947,2.30921053 18.6447368,1.82894737 18.8552632,1.39473684 C19.0197368,1.05921053 18.875,0.651315789 18.5394737,0.486842105 C18.4934211,0.467105263 18.4473684,0.447368421 18.4013158,0.440789474 C17.2894737,0.184210526 16.1447368,0.0526315789 15,0.0526315789 C6.75657895,0.0526315789 0.0526315789,6.75657895 0.0526315789,15 C0.0526315789,23.2434211 6.75657895,29.9473684 15,29.9473684 C23.2434211,29.9473684 29.9473684,23.2434211 29.9473684,15 C29.9473684,14.5131579 29.9276316,14.0065789 29.8815789,13.5065789 Z M15,28.5921053 C7.50657895,28.5921053 1.40789474,22.4934211 1.40789474,15 C1.40789474,7.50657895 7.50657895,1.40789474 15,1.40789474 C15.7828947,1.40789474 16.5657895,1.47368421 17.3355263,1.60526316 C16.9407895,3.07236842 17.3026316,4.63815789 18.2960526,5.78289474 C17.3355263,8.94078947 19.1118421,12.2828947 22.2697368,13.2434211 C23.4736842,13.6118421 24.7565789,13.5855263 25.9473684,13.1842105 C26.7039474,13.7697368 27.6184211,14.1381579 28.5723684,14.2302632 C28.5855263,14.4934211 28.5921053,14.75 28.5921053,15.0065789 C28.5921053,22.4934211 22.4934211,28.5921053 15,28.5921053 Z" id="Shape"></path>
            </g>
        </g>
    </g>
</svg>