<svg width="16" height="12" viewBox="0 0 16 12" fill="none" xmlns="http://www.w3.org/2000/svg">
     <path fill-rule="evenodd" clip-rule="evenodd" d="M14.5 2.22224L8.66438 7.40946C8.28549 7.74624 7.71454 7.74624 7.33565 7.40946L1.5 2.22221V10C1.5 10.2761 1.72386 10.5 2 10.5H14C14.2761 10.5 14.5 10.2761 14.5 10V2.22224ZM1.99671 2.64541e-06L1.63022 2.61337e-06C1.30529 2.58496e-06 1.04123 0.141915 0.86591 0.352402C0.342832 0.713138 0 1.31653 0 2V10C0 11.1046 0.895431 12 2 12H14C15.1046 12 16 11.1046 16 10V2C16 1.31657 15.6572 0.713196 15.1342 0.352454C14.9588 0.141939 14.6948 3.75551e-06 14.3698 3.7271e-06L14.0039 3.69511e-06C14.0026 1.23207e-06 14.0013 0 14 0H2C1.9989 0 1.99781 8.82026e-07 1.99671 2.64541e-06ZM13.0547 1.5L8.00002 5.99307L2.94532 1.5L13.0547 1.5Z" fill="currentColor"></path>
</svg>