<?xml version="1.0" encoding="utf-8"?>
<!-- Generator: Adobe Illustrator 22.1.0, SVG Export Plug-In . SVG Version: 6.00 Build 0)  -->
<svg version="1.1" id="Capa_1" xmlns="http://www.w3.org/2000/svg" xmlns:xlink="http://www.w3.org/1999/xlink" x="0px" y="0px"
	 viewBox="0 0 135.9 40.9" style="enable-background:new 0 0 135.9 40.9;" xml:space="preserve">
<style type="text/css">
	.st0{fill:#A6A6A6;}
	.st1{fill:#FFFFFF;}
</style>
<g>
	<g>
		<g>
			<path class="st0" d="M118.5,0.4H17.9c-0.4,0-0.7,0-1.1,0c-0.3,0-0.6,0-0.9,0c-0.7,0-1.3,0.1-2,0.2c-0.7,0.1-1.3,0.3-1.9,0.6
				c-0.6,0.3-1.1,0.7-1.6,1.2C9.9,2.8,9.5,3.4,9.2,4C8.9,4.6,8.7,5.2,8.6,5.9c-0.1,0.7-0.2,1.3-0.2,2c0,0.3,0,0.6,0,0.9v23.1
				c0,0.3,0,0.6,0,0.9c0,0.7,0.1,1.3,0.2,2c0.1,0.7,0.3,1.3,0.6,1.9c0.3,0.6,0.7,1.1,1.2,1.6c0.5,0.5,1,0.9,1.6,1.2
				c0.6,0.3,1.2,0.5,1.9,0.6c0.7,0.1,1.3,0.2,2,0.2c0.3,0,0.6,0,0.9,0c0.4,0,0.7,0,1.1,0h100.6c0.4,0,0.7,0,1.1,0c0.3,0,0.6,0,0.9,0
				c0.7,0,1.3-0.1,2-0.2c0.7-0.1,1.3-0.3,1.9-0.6c0.6-0.3,1.1-0.7,1.6-1.2c0.5-0.5,0.9-1,1.2-1.6c0.3-0.6,0.5-1.2,0.6-1.9
				c0.1-0.7,0.2-1.3,0.2-2c0-0.3,0-0.6,0-0.9c0-0.4,0-0.7,0-1.1V9.9c0-0.4,0-0.7,0-1.1c0-0.3,0-0.6,0-0.9c0-0.7-0.1-1.3-0.2-2
				c-0.1-0.7-0.3-1.3-0.6-1.9c-0.6-1.2-1.6-2.2-2.8-2.8c-0.6-0.3-1.2-0.5-1.9-0.6c-0.7-0.1-1.3-0.2-2-0.2c-0.3,0-0.6,0-0.9,0
				C119.2,0.4,118.9,0.4,118.5,0.4L118.5,0.4z"/>
			<path d="M16.8,39.5c-0.3,0-0.6,0-0.9,0c-0.6,0-1.3-0.1-1.9-0.2c-0.6-0.1-1.1-0.3-1.7-0.5c-0.5-0.3-1-0.6-1.4-1
				c-0.4-0.4-0.8-0.9-1-1.4c-0.3-0.5-0.4-1.1-0.5-1.7c-0.1-0.6-0.2-1.2-0.2-1.9c0-0.2,0-0.9,0-0.9V8.8c0,0,0-0.7,0-0.9
				c0-0.6,0.1-1.3,0.2-1.9C9.5,5.5,9.7,4.9,10,4.4c0.3-0.5,0.6-1,1-1.4c0.4-0.4,0.9-0.8,1.4-1c0.5-0.3,1.1-0.4,1.7-0.5
				c0.6-0.1,1.2-0.2,1.9-0.2l0.9,0h102.8l0.9,0c0.6,0,1.2,0.1,1.9,0.2c0.6,0.1,1.1,0.3,1.7,0.5c1,0.5,1.9,1.4,2.4,2.4
				c0.3,0.5,0.4,1.1,0.5,1.6c0.1,0.6,0.2,1.3,0.2,1.9c0,0.3,0,0.6,0,0.9c0,0.4,0,0.7,0,1.1v20.9c0,0.4,0,0.7,0,1.1
				c0,0.3,0,0.6,0,0.9c0,0.6-0.1,1.2-0.2,1.9c-0.1,0.6-0.3,1.1-0.5,1.7c-0.3,0.5-0.6,1-1,1.4c-0.4,0.4-0.9,0.8-1.4,1
				c-0.5,0.3-1.1,0.5-1.7,0.5c-0.6,0.1-1.2,0.2-1.9,0.2c-0.3,0-0.6,0-0.9,0l-1.1,0L16.8,39.5z"/>
		</g>
		<g id="_Group_">
			<g id="_Group_2">
				<g id="_Group_3">
					<path id="_Path_" class="st1" d="M33.1,20.7c0-1.7,0.9-3.3,2.4-4.2c-0.9-1.3-2.4-2.1-4-2.2c-1.7-0.2-3.3,1-4.2,1
						c-0.9,0-2.2-1-3.6-1c-1.9,0.1-3.6,1.1-4.5,2.7c-1.9,3.3-0.5,8.3,1.4,11c0.9,1.3,2,2.8,3.4,2.8c1.4-0.1,1.9-0.9,3.6-0.9
						c1.7,0,2.1,0.9,3.6,0.9c1.5,0,2.4-1.3,3.3-2.7c0.7-0.9,1.2-2,1.5-3.1C34.3,24.3,33.1,22.6,33.1,20.7z"/>
					<path id="_Path_2" class="st1" d="M30.4,12.6c0.8-1,1.2-2.2,1.1-3.5c-1.2,0.1-2.4,0.7-3.2,1.7c-0.8,0.9-1.2,2.1-1.1,3.4
						C28.4,14.1,29.6,13.5,30.4,12.6z"/>
				</g>
			</g>
			<g>
				<path class="st1" d="M50.7,27.5h-4.7l-1.1,3.4h-2l4.5-12.4h2.1l4.5,12.4h-2L50.7,27.5z M46.4,25.9h3.8l-1.8-5.4h-0.1L46.4,25.9z
					"/>
				<path class="st1" d="M63.5,26.3c0,2.8-1.5,4.6-3.8,4.6c-1.2,0.1-2.3-0.6-2.8-1.6h0v4.5H55v-12h1.8v1.5h0c0.6-1,1.7-1.6,2.9-1.6
					C62,21.7,63.5,23.5,63.5,26.3z M61.6,26.3c0-1.8-0.9-3-2.4-3c-1.4,0-2.4,1.2-2.4,3c0,1.8,1,3,2.4,3
					C60.7,29.4,61.6,28.2,61.6,26.3z"/>
				<path class="st1" d="M73.5,26.3c0,2.8-1.5,4.6-3.8,4.6c-1.2,0.1-2.3-0.6-2.8-1.6h0v4.5H65v-12h1.8v1.5h0c0.6-1,1.7-1.6,2.9-1.6
					C72,21.7,73.5,23.5,73.5,26.3z M71.6,26.3c0-1.8-0.9-3-2.4-3c-1.4,0-2.4,1.2-2.4,3c0,1.8,1,3,2.4,3
					C70.6,29.4,71.6,28.2,71.6,26.3L71.6,26.3z"/>
				<path class="st1" d="M80.1,27.4c0.1,1.2,1.3,2,3,2c1.6,0,2.7-0.8,2.7-1.9c0-1-0.7-1.5-2.3-1.9l-1.6-0.4
					c-2.3-0.6-3.3-1.6-3.3-3.3c0-2.1,1.9-3.6,4.5-3.6c2.6,0,4.4,1.5,4.5,3.6h-1.9c-0.1-1.2-1.1-2-2.6-2s-2.5,0.8-2.5,1.9
					c0,0.9,0.7,1.4,2.3,1.8l1.4,0.3c2.5,0.6,3.6,1.6,3.6,3.4c0,2.3-1.9,3.8-4.8,3.8c-2.8,0-4.6-1.4-4.7-3.7L80.1,27.4z"/>
				<path class="st1" d="M91.7,19.7v2.1h1.7v1.5h-1.7v5c0,0.8,0.3,1.1,1.1,1.1c0.2,0,0.4,0,0.6,0v1.5c-0.3,0.1-0.7,0.1-1,0.1
					c-1.8,0-2.5-0.7-2.5-2.4v-5.2h-1.3v-1.5h1.3v-2.1H91.7z"/>
				<path class="st1" d="M94.4,26.3c0-2.8,1.7-4.6,4.3-4.6c2.6,0,4.3,1.8,4.3,4.6c0,2.9-1.7,4.6-4.3,4.6
					C96.1,31,94.4,29.2,94.4,26.3z M101.1,26.3c0-2-0.9-3.1-2.4-3.1s-2.4,1.2-2.4,3.1c0,2,0.9,3.1,2.4,3.1S101.1,28.3,101.1,26.3
					L101.1,26.3z"/>
				<path class="st1" d="M104.6,21.8h1.8v1.5h0c0.2-1,1.2-1.7,2.2-1.6c0.2,0,0.4,0,0.6,0.1v1.7c-0.3-0.1-0.6-0.1-0.8-0.1
					c-1,0-1.9,0.8-1.9,1.8c0,0.1,0,0.2,0,0.3v5.4h-1.9L104.6,21.8z"/>
				<path class="st1" d="M117.7,28.2c-0.2,1.6-1.9,2.8-3.9,2.8c-2.6,0-4.3-1.8-4.3-4.6c0-2.8,1.6-4.7,4.2-4.7c2.5,0,4.1,1.7,4.1,4.5
					v0.6h-6.4v0.1c-0.1,1.3,0.8,2.4,2.1,2.6c0.1,0,0.2,0,0.3,0c0.9,0.1,1.8-0.4,2.1-1.3L117.7,28.2z M111.5,25.5h4.5
					c0.1-1.2-0.9-2.2-2.1-2.3c-0.1,0-0.1,0-0.2,0C112.5,23.2,111.5,24.2,111.5,25.5C111.5,25.5,111.5,25.5,111.5,25.5z"/>
			</g>
		</g>
	</g>
	<g id="_Group_4">
		<g>
			<path class="st1" d="M46.2,9.1c1.5-0.1,2.7,1,2.8,2.4c0,0.2,0,0.3,0,0.5c0,1.9-1,3-2.8,3H44v-6H46.2z M45,14.2h1.1
				c1,0.1,1.9-0.7,2-1.8c0-0.1,0-0.3,0-0.4c0.1-1-0.6-2-1.6-2.1c-0.1,0-0.2,0-0.4,0H45V14.2z"/>
			<path class="st1" d="M50,12.8c-0.1-1.2,0.7-2.2,1.9-2.3c1.2-0.1,2.2,0.7,2.3,1.9c0,0.1,0,0.3,0,0.4c0.1,1.2-0.7,2.2-1.9,2.3
				c-1.2,0.1-2.2-0.7-2.3-1.9C50,13.1,50,12.9,50,12.8z M53.4,12.8c0-1-0.4-1.5-1.2-1.5c-0.8,0-1.2,0.6-1.2,1.5c0,1,0.4,1.6,1.2,1.6
				C52.9,14.4,53.4,13.8,53.4,12.8L53.4,12.8z"/>
			<path class="st1" d="M59.9,15.1H59l-0.9-3.3H58l-0.9,3.3h-0.9l-1.2-4.5h0.9l0.8,3.4h0.1l0.9-3.4h0.9l0.9,3.4h0.1l0.8-3.4h0.9
				L59.9,15.1z"/>
			<path class="st1" d="M62.2,10.6h0.9v0.7h0.1c0.2-0.5,0.8-0.8,1.3-0.8c0.8-0.1,1.5,0.5,1.6,1.4c0,0.1,0,0.2,0,0.3v2.9h-0.9v-2.7
				c0-0.7-0.3-1.1-1-1.1c-0.6,0-1.1,0.4-1.1,1c0,0.1,0,0.1,0,0.2v2.6h-0.9L62.2,10.6z"/>
			<path class="st1" d="M67.5,8.8h0.9v6.3h-0.9V8.8z"/>
			<path class="st1" d="M69.6,12.8c-0.1-1.2,0.7-2.2,1.9-2.3c1.2-0.1,2.2,0.7,2.3,1.9c0,0.1,0,0.3,0,0.4c0.1,1.2-0.7,2.2-1.9,2.3
				c-1.2,0.1-2.2-0.7-2.3-1.9C69.6,13.1,69.6,12.9,69.6,12.8z M72.9,12.8c0-1-0.4-1.5-1.2-1.5c-0.8,0-1.2,0.6-1.2,1.5
				c0,1,0.4,1.6,1.2,1.6C72.5,14.4,72.9,13.8,72.9,12.8z"/>
			<path class="st1" d="M74.8,13.8c0-0.8,0.6-1.3,1.7-1.3l1.2-0.1V12c0-0.5-0.3-0.7-0.9-0.7c-0.5,0-0.8,0.2-0.9,0.5h-0.9
				c0.1-0.8,0.8-1.3,1.8-1.3c1.1,0,1.8,0.6,1.8,1.5v3.1h-0.9v-0.6h-0.1c-0.3,0.5-0.8,0.7-1.4,0.7c-0.7,0.1-1.4-0.5-1.5-1.2
				C74.8,13.9,74.8,13.8,74.8,13.8z M77.7,13.4V13l-1.1,0.1c-0.6,0-0.9,0.3-0.9,0.6c0,0.4,0.4,0.6,0.8,0.6
				C77.1,14.4,77.6,14,77.7,13.4C77.7,13.4,77.7,13.4,77.7,13.4z"/>
			<path class="st1" d="M79.7,12.8c0-1.4,0.7-2.3,1.9-2.3c0.6,0,1.1,0.3,1.4,0.8H83V8.8h0.9v6.3h-0.9v-0.7H83
				c-0.3,0.5-0.8,0.8-1.4,0.8C80.4,15.1,79.7,14.2,79.7,12.8z M80.6,12.8c0,1,0.5,1.5,1.2,1.5c0.7,0,1.2-0.6,1.2-1.5
				c0-0.9-0.5-1.5-1.2-1.5C81.1,11.3,80.6,11.9,80.6,12.8L80.6,12.8z"/>
			<path class="st1" d="M87.6,12.8c-0.1-1.2,0.7-2.2,1.9-2.3s2.2,0.7,2.3,1.9c0,0.1,0,0.3,0,0.4c0.1,1.2-0.7,2.2-1.9,2.3
				c-1.2,0.1-2.2-0.7-2.3-1.9C87.6,13.1,87.6,12.9,87.6,12.8z M90.9,12.8c0-1-0.4-1.5-1.2-1.5c-0.8,0-1.2,0.6-1.2,1.5
				c0,1,0.4,1.6,1.2,1.6C90.5,14.4,90.9,13.8,90.9,12.8z"/>
			<path class="st1" d="M93,10.6h0.9v0.7H94c0.2-0.5,0.8-0.8,1.3-0.8c0.8-0.1,1.5,0.5,1.6,1.4c0,0.1,0,0.2,0,0.3v2.9H96v-2.7
				c0-0.7-0.3-1.1-1-1.1c-0.6,0-1.1,0.4-1.1,1c0,0.1,0,0.1,0,0.2v2.6H93V10.6z"/>
			<path class="st1" d="M101.9,9.4v1.1h1v0.7h-1v2.3c0,0.5,0.2,0.7,0.6,0.7c0.1,0,0.2,0,0.3,0V15c-0.2,0-0.3,0-0.5,0
				c-1,0-1.4-0.3-1.4-1.2v-2.5h-0.7v-0.7h0.7V9.4H101.9z"/>
			<path class="st1" d="M104.1,8.8h0.9v2.5h0.1c0.2-0.5,0.8-0.9,1.4-0.8c0.8,0,1.5,0.6,1.6,1.4c0,0.1,0,0.2,0,0.3v2.9h-0.9v-2.7
				c0-0.7-0.3-1.1-1-1.1c-0.6,0-1.1,0.4-1.1,1c0,0.1,0,0.1,0,0.2v2.6h-0.9L104.1,8.8z"/>
			<path class="st1" d="M113.1,13.8c-0.2,0.8-1.1,1.4-2,1.3c-1.1,0-2.1-0.9-2.1-2c0-0.1,0-0.2,0-0.3c-0.2-1.1,0.6-2.2,1.8-2.3
				c0.1,0,0.2,0,0.3,0c1.3,0,2,0.9,2,2.3V13H110v0c-0.1,0.7,0.4,1.2,1.1,1.3c0,0,0.1,0,0.1,0c0.4,0.1,0.9-0.2,1.1-0.5L113.1,13.8z
				 M110,12.4h2.3c0-0.6-0.4-1.1-1-1.2c0,0-0.1,0-0.1,0C110.5,11.2,110,11.7,110,12.4C110,12.4,110,12.4,110,12.4L110,12.4z"/>
		</g>
	</g>
</g>
</svg>
