<?xml version="1.0" encoding="utf-8"?>
<!-- Generator: Adobe Illustrator 22.1.0, SVG Export Plug-In . SVG Version: 6.00 Build 0)  -->
<svg version="1.1" id="Capa_1" xmlns="http://www.w3.org/2000/svg" xmlns:xlink="http://www.w3.org/1999/xlink" x="0px" y="0px"
	 viewBox="0 0 135.9 40.9" style="enable-background:new 0 0 135.9 40.9;" xml:space="preserve">
<style type="text/css">
	.st0{fill:#A6A6A6;}
	.st1{fill:#FFFFFF;}
</style>
<g>
	<path d="M130.1,40.4H5.1c-2.8,0-5-2.2-5-5v-30c0-2.7,2.2-5,5-5h125c2.8,0,5,2.2,5,5v30C135.1,38.2,132.9,40.4,130.1,40.4z"/>
</g>
<g>
	<g>
		<path class="st0" d="M130.1,1.2c2.3,0,4.2,1.9,4.2,4.2v30c0,2.3-1.9,4.2-4.2,4.2H5.1c-2.3,0-4.2-1.9-4.2-4.2v-30
			c0-2.3,1.9-4.2,4.2-4.2L130.1,1.2 M130.1,0.4H5.1c-2.8,0-5,2.2-5,5v30c0,2.8,2.2,5,5,5h125c2.8,0,5-2.2,5-5v-30
			C135.1,2.7,132.9,0.4,130.1,0.4L130.1,0.4z"/>
	</g>
</g>
<g>
	<g>
		<g id="_Group_">
			<g id="_Group_2">
				<g id="_Group_3">
					<path id="_Path_" class="st1" d="M32.9,20.7c0-1.7,0.9-3.3,2.4-4.2c-0.9-1.3-2.4-2.1-4-2.2c-1.7-0.2-3.3,1-4.2,1
						c-0.9,0-2.2-1-3.6-1c-1.9,0.1-3.6,1.1-4.5,2.7c-1.9,3.3-0.5,8.3,1.4,11c0.9,1.3,2,2.8,3.4,2.8c1.4-0.1,1.9-0.9,3.6-0.9
						s2.1,0.9,3.6,0.9c1.5,0,2.4-1.3,3.3-2.7c0.7-0.9,1.2-2,1.5-3.1C34.1,24.4,32.9,22.7,32.9,20.7z"/>
					<path id="_Path_2" class="st1" d="M30.2,12.7c0.8-1,1.2-2.2,1.1-3.5c-1.2,0.1-2.4,0.7-3.2,1.7c-0.8,0.9-1.2,2.1-1.1,3.4
						C28.2,14.2,29.4,13.6,30.2,12.7z"/>
				</g>
			</g>
			<g>
				<path class="st1" d="M50.5,27.6h-4.7L44.7,31h-2l4.5-12.4h2.1L53.8,31h-2L50.5,27.6z M46.2,26H50l-1.8-5.4h-0.1L46.2,26z"/>
				<path class="st1" d="M63.3,26.4c0,2.8-1.5,4.6-3.8,4.6c-1.2,0.1-2.3-0.6-2.8-1.6l0,0v4.5h-1.9v-12h1.8v1.5l0,0
					c0.6-1,1.7-1.6,2.9-1.6C61.8,21.8,63.3,23.6,63.3,26.4z M61.4,26.4c0-1.8-0.9-3-2.4-3c-1.4,0-2.4,1.2-2.4,3s1,3,2.4,3
					C60.5,29.5,61.4,28.3,61.4,26.4z"/>
				<path class="st1" d="M73.3,26.4c0,2.8-1.5,4.6-3.8,4.6c-1.2,0.1-2.3-0.6-2.8-1.6l0,0v4.5h-1.9v-12h1.8v1.5l0,0
					c0.6-1,1.7-1.6,2.9-1.6C71.8,21.8,73.3,23.6,73.3,26.4z M71.4,26.4c0-1.8-0.9-3-2.4-3c-1.4,0-2.4,1.2-2.4,3s1,3,2.4,3
					C70.4,29.5,71.4,28.3,71.4,26.4L71.4,26.4z"/>
				<path class="st1" d="M79.9,27.5c0.1,1.2,1.3,2,3,2c1.6,0,2.7-0.8,2.7-1.9c0-1-0.7-1.5-2.3-1.9l-1.6-0.4
					c-2.3-0.6-3.3-1.6-3.3-3.3c0-2.1,1.9-3.6,4.5-3.6s4.4,1.5,4.5,3.6h-1.9c-0.1-1.2-1.1-2-2.6-2s-2.5,0.8-2.5,1.9
					c0,0.9,0.7,1.4,2.3,1.8l1.4,0.3c2.5,0.6,3.6,1.6,3.6,3.4c0,2.3-1.9,3.8-4.8,3.8c-2.8,0-4.6-1.4-4.7-3.7L79.9,27.5z"/>
				<path class="st1" d="M91.5,19.7v2.1h1.7v1.5h-1.7v5c0,0.8,0.3,1.1,1.1,1.1c0.2,0,0.4,0,0.6,0v1.5c-0.3,0.1-0.7,0.1-1,0.1
					c-1.8,0-2.5-0.7-2.5-2.4v-5.2h-1.3v-1.5h1.3v-2.1h1.8V19.7z"/>
				<path class="st1" d="M94.2,26.4c0-2.8,1.7-4.6,4.3-4.6c2.6,0,4.3,1.8,4.3,4.6c0,2.9-1.7,4.6-4.3,4.6
					C95.9,31.1,94.2,29.3,94.2,26.4z M100.9,26.4c0-2-0.9-3.1-2.4-3.1s-2.4,1.2-2.4,3.1c0,2,0.9,3.1,2.4,3.1S100.9,28.4,100.9,26.4
					L100.9,26.4z"/>
				<path class="st1" d="M104.4,21.9h1.8v1.5l0,0c0.2-1,1.2-1.7,2.2-1.6c0.2,0,0.4,0,0.6,0.1v1.7c-0.3-0.1-0.6-0.1-0.8-0.1
					c-1,0-1.9,0.8-1.9,1.8c0,0.1,0,0.2,0,0.3V31h-1.9L104.4,21.9z"/>
				<path class="st1" d="M117.6,28.3c-0.2,1.6-1.9,2.8-3.9,2.8c-2.6,0-4.3-1.8-4.3-4.6s1.6-4.7,4.2-4.7c2.5,0,4.1,1.7,4.1,4.5v0.6
					h-6.4V27c-0.1,1.3,0.8,2.4,2.1,2.6c0.1,0,0.2,0,0.3,0c0.9,0.1,1.8-0.4,2.1-1.3L117.6,28.3z M111.3,25.6h4.5
					c0.1-1.2-0.9-2.2-2.1-2.3c-0.1,0-0.1,0-0.2,0C112.3,23.3,111.3,24.3,111.3,25.6L111.3,25.6z"/>
			</g>
		</g>
	</g>
	<g id="_Group_4">
		<g>
			<path class="st1" d="M43.6,12.2c0-1.9,1-3.1,2.7-3.1c1.2-0.1,2.3,0.8,2.5,2.1h-0.9c-0.2-0.7-0.8-1.2-1.6-1.2
				c-1.1,0-1.7,0.9-1.7,2.3s0.7,2.3,1.7,2.3c0.7,0.1,1.4-0.4,1.6-1.1h0.9c-0.2,1.2-1.3,2.1-2.5,2C44.6,15.3,43.6,14.1,43.6,12.2z"/>
			<path class="st1" d="M49.8,12.9c-0.1-1.2,0.7-2.2,1.9-2.3s2.2,0.7,2.3,1.9c0,0.1,0,0.3,0,0.4c0.1,1.2-0.7,2.2-1.9,2.3
				s-2.2-0.7-2.3-1.9C49.8,13.2,49.8,13,49.8,12.9z M53.1,12.9c0-1-0.4-1.5-1.2-1.5s-1.2,0.6-1.2,1.5c0,1,0.4,1.6,1.2,1.6
				C52.7,14.4,53.1,13.9,53.1,12.9z"/>
			<path class="st1" d="M55.2,10.6h0.9v0.7h0.1c0.2-0.5,0.8-0.8,1.3-0.8c0.8-0.1,1.5,0.5,1.6,1.4c0,0.1,0,0.2,0,0.3v2.9h-0.9v-2.7
				c0-0.7-0.3-1.1-1-1.1c-0.6,0-1.1,0.4-1.1,1c0,0.1,0,0.1,0,0.2v2.6h-0.9L55.2,10.6z"/>
			<path class="st1" d="M62.1,10.6c1,0,1.7,0.5,1.8,1.3H63c-0.1-0.3-0.4-0.5-0.9-0.5s-0.9,0.2-0.9,0.6c0,0.3,0.2,0.4,0.7,0.6
				l0.7,0.2c0.9,0.2,1.3,0.6,1.3,1.2c0,0.8-0.8,1.4-1.9,1.4c-1.1,0-1.8-0.5-1.8-1.3h0.9c0.2,0.4,0.6,0.6,1,0.6
				c0.6,0,0.9-0.2,0.9-0.6c0-0.3-0.2-0.4-0.7-0.5l-0.8-0.2c-0.9-0.2-1.3-0.6-1.3-1.3C60.3,11.1,61,10.6,62.1,10.6z"/>
			<path class="st1" d="M65,9.9l1-1.4h1l-1.2,1.4H65z M65.1,10.6H66v4.5h-0.9V10.6z"/>
			<path class="st1" d="M67.4,15.6h0.9c0.1,0.3,0.5,0.5,1.1,0.5c0.7,0,1.2-0.4,1.2-0.9v-0.9h-0.1c-0.3,0.5-0.8,0.8-1.4,0.8
				c-1.1,0-1.9-0.9-1.9-2.2c0-1.4,0.7-2.3,1.9-2.3c0.6,0,1.1,0.3,1.4,0.8h0.1v-0.7h0.9v4.5c0,1-0.8,1.7-2.1,1.7
				C68.2,16.9,67.5,16.4,67.4,15.6z M70.5,12.8c0-0.9-0.5-1.5-1.2-1.5c-0.8,0-1.2,0.6-1.2,1.5s0.4,1.5,1.2,1.5S70.5,13.7,70.5,12.8z
				"/>
			<path class="st1" d="M76.6,15.1h-0.9v-0.7h-0.1c-0.2,0.5-0.8,0.9-1.4,0.8c-0.8,0.1-1.5-0.5-1.6-1.4c0-0.1,0-0.2,0-0.3v-2.9h0.9
				v2.7c0,0.7,0.3,1.1,0.9,1.1c0.6,0.1,1.1-0.4,1.1-0.9c0-0.1,0-0.1,0-0.2v-2.6h0.9L76.6,15.1z"/>
			<path class="st1" d="M81.9,13.9c-0.2,0.8-1.1,1.4-2,1.3c-1.1,0-2.1-0.9-2.1-2c0-0.1,0-0.2,0-0.3c-0.2-1.1,0.6-2.2,1.8-2.3
				c0.1,0,0.2,0,0.3,0c1.3,0,2,0.9,2,2.3v0.3h-3.2l0,0c-0.1,0.7,0.4,1.2,1.1,1.3h0.1c0.4,0.1,0.9-0.2,1.1-0.5L81.9,13.9z M78.7,12.5
				H81c0-0.6-0.4-1.1-1-1.2h-0.1C79.3,11.3,78.7,11.8,78.7,12.5L78.7,12.5z"/>
			<path class="st1" d="M83.1,8.9H84v6.3h-0.9V8.9z"/>
			<path class="st1" d="M85.3,12.9c-0.1-1.2,0.7-2.2,1.9-2.3s2.2,0.7,2.3,1.9c0,0.1,0,0.3,0,0.4c0.1,1.2-0.7,2.2-1.9,2.3
				c-1.2,0.1-2.2-0.7-2.3-1.9C85.3,13.2,85.3,13,85.3,12.9z M88.6,12.9c0-1-0.4-1.5-1.2-1.5c-0.8,0-1.2,0.6-1.2,1.5
				c0,1,0.4,1.6,1.2,1.6C88.2,14.4,88.6,13.9,88.6,12.9z"/>
			<path class="st1" d="M97,13.9c-0.2,0.8-1.1,1.4-2,1.3c-1.1,0-2.1-0.9-2.1-2c0-0.1,0-0.2,0-0.3c-0.2-1.1,0.6-2.2,1.8-2.3
				c0.1,0,0.2,0,0.3,0c1.3,0,2,0.9,2,2.3v0.3h-3.2l0,0c-0.1,0.7,0.4,1.2,1.1,1.3H95c0.4,0.1,0.9-0.2,1.1-0.5L97,13.9z M93.8,12.5
				h2.3c0-0.6-0.4-1.1-1-1.2H95C94.4,11.3,93.8,11.8,93.8,12.5L93.8,12.5L93.8,12.5z"/>
			<path class="st1" d="M98.2,10.6h0.9v0.7h0.1c0.2-0.5,0.8-0.8,1.3-0.8c0.8-0.1,1.5,0.5,1.6,1.4c0,0.1,0,0.2,0,0.3v2.9h-0.9v-2.7
				c0-0.7-0.3-1.1-1-1.1c-0.6,0-1.1,0.4-1.1,1c0,0.1,0,0.1,0,0.2v2.6h-0.9V10.6z"/>
			<path class="st1" d="M109.7,13.9c-0.2,0.8-1.1,1.4-2,1.3c-1.1,0-2.1-0.9-2.1-2c0-0.1,0-0.2,0-0.3c-0.2-1.1,0.6-2.2,1.8-2.3
				c0.1,0,0.2,0,0.3,0c1.3,0,2,0.9,2,2.3v0.3h-3.2l0,0c-0.1,0.7,0.4,1.2,1.1,1.3h0.1c0.4,0.1,0.9-0.2,1.1-0.5L109.7,13.9z
				 M106.5,12.5h2.3c0-0.6-0.4-1.1-1-1.2h-0.1C107.1,11.3,106.5,11.8,106.5,12.5L106.5,12.5L106.5,12.5z"/>
			<path class="st1" d="M110.9,8.9h0.9v6.3h-0.9V8.9z"/>
		</g>
	</g>
</g>
</svg>
