<svg width="100" height="100" viewBox="0 0 100 100" fill="none" xmlns="http://www.w3.org/2000/svg">
<path d="M0 0H100V100H0V0Z" fill="white"/>
<path d="M9.7561 10.9756H26.8293H9.7561ZM34.1463 10.9756H36.5854H34.1463ZM39.0244 10.9756H41.4634H39.0244ZM53.6585 10.9756H60.9756H53.6585ZM65.8537 10.9756H68.2927H65.8537ZM73.1707 10.9756H90.2439H73.1707ZM9.7561 13.4146H12.1951H9.7561ZM24.3903 13.4146H26.8293H24.3903ZM46.3415 13.4146H48.7805H46.3415ZM51.2195 13.4146H56.0976H51.2195ZM58.5366 13.4146H60.9756H58.5366ZM63.4146 13.4146H65.8537H63.4146ZM68.2927 13.4146H70.7317H68.2927ZM73.1707 13.4146H75.6098H73.1707ZM87.8049 13.4146H90.2439H87.8049ZM9.7561 15.8536H12.1951H9.7561ZM14.6342 15.8536H21.9512H14.6342ZM24.3903 15.8536H26.8293H24.3903ZM29.2683 15.8536H31.7073H29.2683ZM39.0244 15.8536H41.4634H39.0244ZM43.9024 15.8536H48.7805H43.9024ZM53.6585 15.8536H68.2927H53.6585ZM73.1707 15.8536H75.6098H73.1707ZM78.0488 15.8536H85.3659H78.0488ZM87.8049 15.8536H90.2439H87.8049ZM9.7561 18.2927H12.1951H9.7561ZM14.6342 18.2927H21.9512H14.6342ZM24.3903 18.2927H26.8293H24.3903ZM29.2683 18.2927H31.7073H29.2683ZM36.5854 18.2927H41.4634H36.5854ZM46.3415 18.2927H48.7805H46.3415ZM53.6585 18.2927H58.5366H53.6585ZM63.4146 18.2927H70.7317H63.4146ZM73.1707 18.2927H75.6098H73.1707ZM78.0488 18.2927H85.3659H78.0488ZM87.8049 18.2927H90.2439H87.8049ZM9.7561 20.7317H12.1951H9.7561ZM14.6342 20.7317H21.9512H14.6342ZM24.3903 20.7317H26.8293H24.3903ZM29.2683 20.7317H34.1463H29.2683ZM36.5854 20.7317H39.0244H36.5854ZM41.4634 20.7317H56.0976H41.4634ZM60.9756 20.7317H63.4146H60.9756ZM65.8537 20.7317H70.7317H65.8537ZM73.1707 20.7317H75.6098H73.1707ZM78.0488 20.7317H85.3659H78.0488ZM87.8049 20.7317H90.2439H87.8049ZM9.7561 23.1707H12.1951H9.7561ZM24.3903 23.1707H26.8293H24.3903ZM29.2683 23.1707H31.7073H29.2683ZM36.5854 23.1707H46.3415H36.5854ZM58.5366 23.1707H63.4146H58.5366ZM68.2927 23.1707H70.7317H68.2927ZM73.1707 23.1707H75.6098H73.1707ZM87.8049 23.1707H90.2439H87.8049ZM9.7561 25.6097H26.8293H9.7561ZM29.2683 25.6097H31.7073H29.2683ZM34.1463 25.6097H36.5854H34.1463ZM39.0244 25.6097H41.4634H39.0244ZM43.9024 25.6097H46.3415H43.9024ZM48.7805 25.6097H51.2195H48.7805ZM53.6585 25.6097H56.0976H53.6585ZM58.5366 25.6097H60.9756H58.5366ZM63.4146 25.6097H65.8537H63.4146ZM68.2927 25.6097H70.7317H68.2927ZM73.1707 25.6097H90.2439H73.1707ZM29.2683 28.0488H36.5854H29.2683ZM39.0244 28.0488H41.4634H39.0244ZM43.9024 28.0488H46.3415H43.9024ZM48.7805 28.0488H51.2195H48.7805ZM58.5366 28.0488H65.8537H58.5366ZM9.7561 30.4878H12.1951H9.7561ZM14.6342 30.4878H26.8293H14.6342ZM34.1463 30.4878H36.5854H34.1463ZM41.4634 30.4878H46.3415H41.4634ZM48.7805 30.4878H56.0976H48.7805ZM63.4146 30.4878H65.8537H63.4146ZM68.2927 30.4878H70.7317H68.2927ZM73.1707 30.4878H85.3659H73.1707ZM12.1951 32.9268H21.9512H12.1951ZM26.8293 32.9268H29.2683H26.8293ZM31.7073 32.9268H36.5854H31.7073ZM41.4634 32.9268H43.9024H41.4634ZM48.7805 32.9268H60.9756H48.7805ZM63.4146 32.9268H70.7317H63.4146ZM73.1707 32.9268H78.0488H73.1707ZM80.4878 32.9268H85.3659H80.4878ZM87.8049 32.9268H90.2439H87.8049ZM9.7561 35.3658H12.1951H9.7561ZM17.0732 35.3658H19.5122H17.0732ZM24.3903 35.3658H29.2683H24.3903ZM34.1463 35.3658H48.7805H34.1463ZM51.2195 35.3658H53.6585H51.2195ZM58.5366 35.3658H63.4146H58.5366ZM70.7317 35.3658H75.6098H70.7317ZM78.0488 35.3658H80.4878H78.0488ZM82.9268 35.3658H87.8049H82.9268ZM14.6342 37.8049H19.5122H14.6342ZM21.9512 37.8049H24.3903H21.9512ZM29.2683 37.8049H31.7073H29.2683ZM34.1463 37.8049H36.5854H34.1463ZM39.0244 37.8049H43.9024H39.0244ZM46.3415 37.8049H48.7805H46.3415ZM51.2195 37.8049H58.5366H51.2195ZM60.9756 37.8049H73.1707H60.9756ZM78.0488 37.8049H85.3659H78.0488ZM87.8049 37.8049H90.2439H87.8049ZM9.7561 40.2439H12.1951H9.7561ZM14.6342 40.2439H17.0732H14.6342ZM19.5122 40.2439H21.9512H19.5122ZM24.3903 40.2439H31.7073H24.3903ZM36.5854 40.2439H39.0244H36.5854ZM43.9024 40.2439H51.2195H43.9024ZM58.5366 40.2439H60.9756H58.5366ZM63.4146 40.2439H65.8537H63.4146ZM68.2927 40.2439H73.1707H68.2927ZM75.6098 40.2439H82.9268H75.6098ZM85.3659 40.2439H87.8049H85.3659ZM14.6342 42.6829H19.5122H14.6342ZM31.7073 42.6829H34.1463H31.7073ZM39.0244 42.6829H43.9024H39.0244ZM46.3415 42.6829H48.7805H46.3415ZM51.2195 42.6829H63.4146H51.2195ZM65.8537 42.6829H68.2927H65.8537ZM70.7317 42.6829H78.0488H70.7317ZM85.3659 42.6829H90.2439H85.3659ZM9.7561 45.1219H12.1951H9.7561ZM14.6342 45.1219H17.0732H14.6342ZM19.5122 45.1219H21.9512H19.5122ZM24.3903 45.1219H26.8293H24.3903ZM29.2683 45.1219H43.9024H29.2683ZM46.3415 45.1219H53.6585H46.3415ZM56.0976 45.1219H58.5366H56.0976ZM60.9756 45.1219H63.4146H60.9756ZM70.7317 45.1219H87.8049H70.7317ZM17.0732 47.561H19.5122H17.0732ZM21.9512 47.561H24.3903H21.9512ZM26.8293 47.561H29.2683H26.8293ZM31.7073 47.561H34.1463H31.7073ZM41.4634 47.561H43.9024H41.4634ZM46.3415 47.561H48.7805H46.3415ZM60.9756 47.561H63.4146H60.9756ZM70.7317 47.561H78.0488H70.7317ZM80.4878 47.561H85.3659H80.4878ZM9.7561 50H12.1951H9.7561ZM14.6342 50H17.0732H14.6342ZM24.3903 50H26.8293H24.3903ZM29.2683 50H31.7073H29.2683ZM34.1463 50H36.5854H34.1463ZM46.3415 50H53.6585H46.3415ZM63.4146 50H65.8537H63.4146ZM70.7317 50H73.1707H70.7317ZM75.6098 50H82.9268H75.6098ZM87.8049 50H90.2439H87.8049ZM12.1951 52.439H17.0732H12.1951ZM21.9512 52.439H24.3903H21.9512ZM26.8293 52.439H46.3415H26.8293ZM48.7805 52.439H51.2195H48.7805ZM53.6585 52.439H68.2927H53.6585ZM73.1707 52.439H78.0488H73.1707ZM80.4878 52.439H90.2439H80.4878ZM9.7561 54.878H21.9512H9.7561ZM24.3903 54.878H26.8293H24.3903ZM31.7073 54.878H36.5854H31.7073ZM39.0244 54.878H41.4634H39.0244ZM43.9024 54.878H51.2195H43.9024ZM53.6585 54.878H56.0976H53.6585ZM60.9756 54.878H65.8537H60.9756ZM68.2927 54.878H70.7317H68.2927ZM75.6098 54.878H80.4878H75.6098ZM82.9268 54.878H87.8049H82.9268ZM9.7561 57.3171H17.0732H9.7561ZM21.9512 57.3171H24.3903H21.9512ZM26.8293 57.3171H29.2683H26.8293ZM31.7073 57.3171H34.1463H31.7073ZM36.5854 57.3171H43.9024H36.5854ZM46.3415 57.3171H48.7805H46.3415ZM56.0976 57.3171H63.4146H56.0976ZM68.2927 57.3171H90.2439H68.2927ZM14.6342 59.7561H19.5122H14.6342ZM21.9512 59.7561H29.2683H21.9512ZM31.7073 59.7561H34.1463H31.7073ZM36.5854 59.7561H39.0244H36.5854ZM41.4634 59.7561H43.9024H41.4634ZM46.3415 59.7561H48.7805H46.3415ZM53.6585 59.7561H58.5366H53.6585ZM60.9756 59.7561H63.4146H60.9756ZM70.7317 59.7561H73.1707H70.7317ZM78.0488 59.7561H82.9268H78.0488ZM85.3659 59.7561H90.2439H85.3659ZM9.7561 62.1951H14.6342H9.7561ZM17.0732 62.1951H21.9512H17.0732ZM26.8293 62.1951H39.0244H26.8293ZM46.3415 62.1951H51.2195H46.3415ZM60.9756 62.1951H68.2927H60.9756ZM73.1707 62.1951H75.6098H73.1707ZM82.9268 62.1951H85.3659H82.9268ZM87.8049 62.1951H90.2439H87.8049ZM9.7561 64.6341H12.1951H9.7561ZM14.6342 64.6341H17.0732H14.6342ZM19.5122 64.6341H21.9512H19.5122ZM24.3903 64.6341H34.1463H24.3903ZM36.5854 64.6341H39.0244H36.5854ZM41.4634 64.6341H43.9024H41.4634ZM58.5366 64.6341H63.4146H58.5366ZM68.2927 64.6341H70.7317H68.2927ZM80.4878 64.6341H82.9268H80.4878ZM85.3659 64.6341H87.8049H85.3659ZM9.7561 67.0731H12.1951H9.7561ZM14.6342 67.0731H17.0732H14.6342ZM19.5122 67.0731H24.3903H19.5122ZM29.2683 67.0731H31.7073H29.2683ZM36.5854 67.0731H41.4634H36.5854ZM43.9024 67.0731H46.3415H43.9024ZM48.7805 67.0731H51.2195H48.7805ZM60.9756 67.0731H63.4146H60.9756ZM70.7317 67.0731H73.1707H70.7317ZM75.6098 67.0731H78.0488H75.6098ZM80.4878 67.0731H90.2439H80.4878ZM9.7561 69.5122H12.1951H9.7561ZM19.5122 69.5122H39.0244H19.5122ZM41.4634 69.5122H43.9024H41.4634ZM51.2195 69.5122H53.6585H51.2195ZM56.0976 69.5122H58.5366H56.0976ZM63.4146 69.5122H82.9268H63.4146ZM85.3659 69.5122H90.2439H85.3659ZM29.2683 71.9512H34.1463H29.2683ZM36.5854 71.9512H41.4634H36.5854ZM43.9024 71.9512H46.3415H43.9024ZM48.7805 71.9512H53.6585H48.7805ZM56.0976 71.9512H58.5366H56.0976ZM60.9756 71.9512H63.4146H60.9756ZM65.8537 71.9512H70.7317H65.8537ZM78.0488 71.9512H80.4878H78.0488ZM82.9268 71.9512H85.3659H82.9268ZM87.8049 71.9512H90.2439H87.8049ZM9.7561 74.3902H26.8293H9.7561ZM36.5854 74.3902H53.6585H36.5854ZM58.5366 74.3902H63.4146H58.5366ZM65.8537 74.3902H70.7317H65.8537ZM73.1707 74.3902H75.6098H73.1707ZM78.0488 74.3902H80.4878H78.0488ZM82.9268 74.3902H87.8049H82.9268ZM9.7561 76.8292H12.1951H9.7561ZM24.3903 76.8292H26.8293H24.3903ZM29.2683 76.8292H31.7073H29.2683ZM34.1463 76.8292H36.5854H34.1463ZM48.7805 76.8292H56.0976H48.7805ZM58.5366 76.8292H63.4146H58.5366ZM65.8537 76.8292H70.7317H65.8537ZM78.0488 76.8292H87.8049H78.0488ZM9.7561 79.2683H12.1951H9.7561ZM14.6342 79.2683H21.9512H14.6342ZM24.3903 79.2683H26.8293H24.3903ZM29.2683 79.2683H31.7073H29.2683ZM41.4634 79.2683H43.9024H41.4634ZM48.7805 79.2683H51.2195H48.7805ZM58.5366 79.2683H60.9756H58.5366ZM68.2927 79.2683H82.9268H68.2927ZM85.3659 79.2683H90.2439H85.3659ZM9.7561 81.7073H12.1951H9.7561ZM14.6342 81.7073H21.9512H14.6342ZM24.3903 81.7073H26.8293H24.3903ZM29.2683 81.7073H34.1463H29.2683ZM36.5854 81.7073H43.9024H36.5854ZM46.3415 81.7073H48.7805H46.3415ZM53.6585 81.7073H56.0976H53.6585ZM68.2927 81.7073H73.1707H68.2927ZM78.0488 81.7073H85.3659H78.0488ZM87.8049 81.7073H90.2439H87.8049ZM9.7561 84.1463H12.1951H9.7561ZM14.6342 84.1463H21.9512H14.6342ZM24.3903 84.1463H26.8293H24.3903ZM29.2683 84.1463H31.7073H29.2683ZM46.3415 84.1463H58.5366H46.3415ZM60.9756 84.1463H65.8537H60.9756ZM68.2927 84.1463H78.0488H68.2927ZM82.9268 84.1463H85.3659H82.9268ZM9.7561 86.5853H12.1951H9.7561ZM24.3903 86.5853H26.8293H24.3903ZM31.7073 86.5853H34.1463H31.7073ZM39.0244 86.5853H41.4634H39.0244ZM46.3415 86.5853H48.7805H46.3415ZM60.9756 86.5853H63.4146H60.9756ZM78.0488 86.5853H85.3659H78.0488ZM9.7561 89.0244H26.8293H9.7561ZM29.2683 89.0244H31.7073H29.2683ZM39.0244 89.0244H43.9024H39.0244ZM46.3415 89.0244H48.7805H46.3415ZM51.2195 89.0244H58.5366H51.2195ZM63.4146 89.0244H73.1707H63.4146ZM75.6098 89.0244H78.0488H75.6098ZM85.3659 89.0244H87.8049Z" fill="black"/>
<path d="M85.3659 89.0244H87.8049M9.7561 10.9756H26.8293H9.7561ZM34.1463 10.9756H36.5854H34.1463ZM39.0244 10.9756H41.4634H39.0244ZM53.6585 10.9756H60.9756H53.6585ZM65.8537 10.9756H68.2927H65.8537ZM73.1707 10.9756H90.2439H73.1707ZM9.7561 13.4146H12.1951H9.7561ZM24.3903 13.4146H26.8293H24.3903ZM46.3415 13.4146H48.7805H46.3415ZM51.2195 13.4146H56.0976H51.2195ZM58.5366 13.4146H60.9756H58.5366ZM63.4146 13.4146H65.8537H63.4146ZM68.2927 13.4146H70.7317H68.2927ZM73.1707 13.4146H75.6098H73.1707ZM87.8049 13.4146H90.2439H87.8049ZM9.7561 15.8536H12.1951H9.7561ZM14.6342 15.8536H21.9512H14.6342ZM24.3903 15.8536H26.8293H24.3903ZM29.2683 15.8536H31.7073H29.2683ZM39.0244 15.8536H41.4634H39.0244ZM43.9024 15.8536H48.7805H43.9024ZM53.6585 15.8536H68.2927H53.6585ZM73.1707 15.8536H75.6098H73.1707ZM78.0488 15.8536H85.3659H78.0488ZM87.8049 15.8536H90.2439H87.8049ZM9.7561 18.2927H12.1951H9.7561ZM14.6342 18.2927H21.9512H14.6342ZM24.3903 18.2927H26.8293H24.3903ZM29.2683 18.2927H31.7073H29.2683ZM36.5854 18.2927H41.4634H36.5854ZM46.3415 18.2927H48.7805H46.3415ZM53.6585 18.2927H58.5366H53.6585ZM63.4146 18.2927H70.7317H63.4146ZM73.1707 18.2927H75.6098H73.1707ZM78.0488 18.2927H85.3659H78.0488ZM87.8049 18.2927H90.2439H87.8049ZM9.7561 20.7317H12.1951H9.7561ZM14.6342 20.7317H21.9512H14.6342ZM24.3903 20.7317H26.8293H24.3903ZM29.2683 20.7317H34.1463H29.2683ZM36.5854 20.7317H39.0244H36.5854ZM41.4634 20.7317H56.0976H41.4634ZM60.9756 20.7317H63.4146H60.9756ZM65.8537 20.7317H70.7317H65.8537ZM73.1707 20.7317H75.6098H73.1707ZM78.0488 20.7317H85.3659H78.0488ZM87.8049 20.7317H90.2439H87.8049ZM9.7561 23.1707H12.1951H9.7561ZM24.3903 23.1707H26.8293H24.3903ZM29.2683 23.1707H31.7073H29.2683ZM36.5854 23.1707H46.3415H36.5854ZM58.5366 23.1707H63.4146H58.5366ZM68.2927 23.1707H70.7317H68.2927ZM73.1707 23.1707H75.6098H73.1707ZM87.8049 23.1707H90.2439H87.8049ZM9.7561 25.6097H26.8293H9.7561ZM29.2683 25.6097H31.7073H29.2683ZM34.1463 25.6097H36.5854H34.1463ZM39.0244 25.6097H41.4634H39.0244ZM43.9024 25.6097H46.3415H43.9024ZM48.7805 25.6097H51.2195H48.7805ZM53.6585 25.6097H56.0976H53.6585ZM58.5366 25.6097H60.9756H58.5366ZM63.4146 25.6097H65.8537H63.4146ZM68.2927 25.6097H70.7317H68.2927ZM73.1707 25.6097H90.2439H73.1707ZM29.2683 28.0488H36.5854H29.2683ZM39.0244 28.0488H41.4634H39.0244ZM43.9024 28.0488H46.3415H43.9024ZM48.7805 28.0488H51.2195H48.7805ZM58.5366 28.0488H65.8537H58.5366ZM9.7561 30.4878H12.1951H9.7561ZM14.6342 30.4878H26.8293H14.6342ZM34.1463 30.4878H36.5854H34.1463ZM41.4634 30.4878H46.3415H41.4634ZM48.7805 30.4878H56.0976H48.7805ZM63.4146 30.4878H65.8537H63.4146ZM68.2927 30.4878H70.7317H68.2927ZM73.1707 30.4878H85.3659H73.1707ZM12.1951 32.9268H21.9512H12.1951ZM26.8293 32.9268H29.2683H26.8293ZM31.7073 32.9268H36.5854H31.7073ZM41.4634 32.9268H43.9024H41.4634ZM48.7805 32.9268H60.9756H48.7805ZM63.4146 32.9268H70.7317H63.4146ZM73.1707 32.9268H78.0488H73.1707ZM80.4878 32.9268H85.3659H80.4878ZM87.8049 32.9268H90.2439H87.8049ZM9.7561 35.3658H12.1951H9.7561ZM17.0732 35.3658H19.5122H17.0732ZM24.3903 35.3658H29.2683H24.3903ZM34.1463 35.3658H48.7805H34.1463ZM51.2195 35.3658H53.6585H51.2195ZM58.5366 35.3658H63.4146H58.5366ZM70.7317 35.3658H75.6098H70.7317ZM78.0488 35.3658H80.4878H78.0488ZM82.9268 35.3658H87.8049H82.9268ZM14.6342 37.8049H19.5122H14.6342ZM21.9512 37.8049H24.3903H21.9512ZM29.2683 37.8049H31.7073H29.2683ZM34.1463 37.8049H36.5854H34.1463ZM39.0244 37.8049H43.9024H39.0244ZM46.3415 37.8049H48.7805H46.3415ZM51.2195 37.8049H58.5366H51.2195ZM60.9756 37.8049H73.1707H60.9756ZM78.0488 37.8049H85.3659H78.0488ZM87.8049 37.8049H90.2439H87.8049ZM9.7561 40.2439H12.1951H9.7561ZM14.6342 40.2439H17.0732H14.6342ZM19.5122 40.2439H21.9512H19.5122ZM24.3903 40.2439H31.7073H24.3903ZM36.5854 40.2439H39.0244H36.5854ZM43.9024 40.2439H51.2195H43.9024ZM58.5366 40.2439H60.9756H58.5366ZM63.4146 40.2439H65.8537H63.4146ZM68.2927 40.2439H73.1707H68.2927ZM75.6098 40.2439H82.9268H75.6098ZM85.3659 40.2439H87.8049H85.3659ZM14.6342 42.6829H19.5122H14.6342ZM31.7073 42.6829H34.1463H31.7073ZM39.0244 42.6829H43.9024H39.0244ZM46.3415 42.6829H48.7805H46.3415ZM51.2195 42.6829H63.4146H51.2195ZM65.8537 42.6829H68.2927H65.8537ZM70.7317 42.6829H78.0488H70.7317ZM85.3659 42.6829H90.2439H85.3659ZM9.7561 45.1219H12.1951H9.7561ZM14.6342 45.1219H17.0732H14.6342ZM19.5122 45.1219H21.9512H19.5122ZM24.3903 45.1219H26.8293H24.3903ZM29.2683 45.1219H43.9024H29.2683ZM46.3415 45.1219H53.6585H46.3415ZM56.0976 45.1219H58.5366H56.0976ZM60.9756 45.1219H63.4146H60.9756ZM70.7317 45.1219H87.8049H70.7317ZM17.0732 47.561H19.5122H17.0732ZM21.9512 47.561H24.3903H21.9512ZM26.8293 47.561H29.2683H26.8293ZM31.7073 47.561H34.1463H31.7073ZM41.4634 47.561H43.9024H41.4634ZM46.3415 47.561H48.7805H46.3415ZM60.9756 47.561H63.4146H60.9756ZM70.7317 47.561H78.0488H70.7317ZM80.4878 47.561H85.3659H80.4878ZM9.7561 50H12.1951H9.7561ZM14.6342 50H17.0732H14.6342ZM24.3903 50H26.8293H24.3903ZM29.2683 50H31.7073H29.2683ZM34.1463 50H36.5854H34.1463ZM46.3415 50H53.6585H46.3415ZM63.4146 50H65.8537H63.4146ZM70.7317 50H73.1707H70.7317ZM75.6098 50H82.9268H75.6098ZM87.8049 50H90.2439H87.8049ZM12.1951 52.439H17.0732H12.1951ZM21.9512 52.439H24.3903H21.9512ZM26.8293 52.439H46.3415H26.8293ZM48.7805 52.439H51.2195H48.7805ZM53.6585 52.439H68.2927H53.6585ZM73.1707 52.439H78.0488H73.1707ZM80.4878 52.439H90.2439H80.4878ZM9.7561 54.878H21.9512H9.7561ZM24.3903 54.878H26.8293H24.3903ZM31.7073 54.878H36.5854H31.7073ZM39.0244 54.878H41.4634H39.0244ZM43.9024 54.878H51.2195H43.9024ZM53.6585 54.878H56.0976H53.6585ZM60.9756 54.878H65.8537H60.9756ZM68.2927 54.878H70.7317H68.2927ZM75.6098 54.878H80.4878H75.6098ZM82.9268 54.878H87.8049H82.9268ZM9.7561 57.3171H17.0732H9.7561ZM21.9512 57.3171H24.3903H21.9512ZM26.8293 57.3171H29.2683H26.8293ZM31.7073 57.3171H34.1463H31.7073ZM36.5854 57.3171H43.9024H36.5854ZM46.3415 57.3171H48.7805H46.3415ZM56.0976 57.3171H63.4146H56.0976ZM68.2927 57.3171H90.2439H68.2927ZM14.6342 59.7561H19.5122H14.6342ZM21.9512 59.7561H29.2683H21.9512ZM31.7073 59.7561H34.1463H31.7073ZM36.5854 59.7561H39.0244H36.5854ZM41.4634 59.7561H43.9024H41.4634ZM46.3415 59.7561H48.7805H46.3415ZM53.6585 59.7561H58.5366H53.6585ZM60.9756 59.7561H63.4146H60.9756ZM70.7317 59.7561H73.1707H70.7317ZM78.0488 59.7561H82.9268H78.0488ZM85.3659 59.7561H90.2439H85.3659ZM9.7561 62.1951H14.6342H9.7561ZM17.0732 62.1951H21.9512H17.0732ZM26.8293 62.1951H39.0244H26.8293ZM46.3415 62.1951H51.2195H46.3415ZM60.9756 62.1951H68.2927H60.9756ZM73.1707 62.1951H75.6098H73.1707ZM82.9268 62.1951H85.3659H82.9268ZM87.8049 62.1951H90.2439H87.8049ZM9.7561 64.6341H12.1951H9.7561ZM14.6342 64.6341H17.0732H14.6342ZM19.5122 64.6341H21.9512H19.5122ZM24.3903 64.6341H34.1463H24.3903ZM36.5854 64.6341H39.0244H36.5854ZM41.4634 64.6341H43.9024H41.4634ZM58.5366 64.6341H63.4146H58.5366ZM68.2927 64.6341H70.7317H68.2927ZM80.4878 64.6341H82.9268H80.4878ZM85.3659 64.6341H87.8049H85.3659ZM9.7561 67.0731H12.1951H9.7561ZM14.6342 67.0731H17.0732H14.6342ZM19.5122 67.0731H24.3903H19.5122ZM29.2683 67.0731H31.7073H29.2683ZM36.5854 67.0731H41.4634H36.5854ZM43.9024 67.0731H46.3415H43.9024ZM48.7805 67.0731H51.2195H48.7805ZM60.9756 67.0731H63.4146H60.9756ZM70.7317 67.0731H73.1707H70.7317ZM75.6098 67.0731H78.0488H75.6098ZM80.4878 67.0731H90.2439H80.4878ZM9.7561 69.5122H12.1951H9.7561ZM19.5122 69.5122H39.0244H19.5122ZM41.4634 69.5122H43.9024H41.4634ZM51.2195 69.5122H53.6585H51.2195ZM56.0976 69.5122H58.5366H56.0976ZM63.4146 69.5122H82.9268H63.4146ZM85.3659 69.5122H90.2439H85.3659ZM29.2683 71.9512H34.1463H29.2683ZM36.5854 71.9512H41.4634H36.5854ZM43.9024 71.9512H46.3415H43.9024ZM48.7805 71.9512H53.6585H48.7805ZM56.0976 71.9512H58.5366H56.0976ZM60.9756 71.9512H63.4146H60.9756ZM65.8537 71.9512H70.7317H65.8537ZM78.0488 71.9512H80.4878H78.0488ZM82.9268 71.9512H85.3659H82.9268ZM87.8049 71.9512H90.2439H87.8049ZM9.7561 74.3902H26.8293H9.7561ZM36.5854 74.3902H53.6585H36.5854ZM58.5366 74.3902H63.4146H58.5366ZM65.8537 74.3902H70.7317H65.8537ZM73.1707 74.3902H75.6098H73.1707ZM78.0488 74.3902H80.4878H78.0488ZM82.9268 74.3902H87.8049H82.9268ZM9.7561 76.8292H12.1951H9.7561ZM24.3903 76.8292H26.8293H24.3903ZM29.2683 76.8292H31.7073H29.2683ZM34.1463 76.8292H36.5854H34.1463ZM48.7805 76.8292H56.0976H48.7805ZM58.5366 76.8292H63.4146H58.5366ZM65.8537 76.8292H70.7317H65.8537ZM78.0488 76.8292H87.8049H78.0488ZM9.7561 79.2683H12.1951H9.7561ZM14.6342 79.2683H21.9512H14.6342ZM24.3903 79.2683H26.8293H24.3903ZM29.2683 79.2683H31.7073H29.2683ZM41.4634 79.2683H43.9024H41.4634ZM48.7805 79.2683H51.2195H48.7805ZM58.5366 79.2683H60.9756H58.5366ZM68.2927 79.2683H82.9268H68.2927ZM85.3659 79.2683H90.2439H85.3659ZM9.7561 81.7073H12.1951H9.7561ZM14.6342 81.7073H21.9512H14.6342ZM24.3903 81.7073H26.8293H24.3903ZM29.2683 81.7073H34.1463H29.2683ZM36.5854 81.7073H43.9024H36.5854ZM46.3415 81.7073H48.7805H46.3415ZM53.6585 81.7073H56.0976H53.6585ZM68.2927 81.7073H73.1707H68.2927ZM78.0488 81.7073H85.3659H78.0488ZM87.8049 81.7073H90.2439H87.8049ZM9.7561 84.1463H12.1951H9.7561ZM14.6342 84.1463H21.9512H14.6342ZM24.3903 84.1463H26.8293H24.3903ZM29.2683 84.1463H31.7073H29.2683ZM46.3415 84.1463H58.5366H46.3415ZM60.9756 84.1463H65.8537H60.9756ZM68.2927 84.1463H78.0488H68.2927ZM82.9268 84.1463H85.3659H82.9268ZM9.7561 86.5853H12.1951H9.7561ZM24.3903 86.5853H26.8293H24.3903ZM31.7073 86.5853H34.1463H31.7073ZM39.0244 86.5853H41.4634H39.0244ZM46.3415 86.5853H48.7805H46.3415ZM60.9756 86.5853H63.4146H60.9756ZM78.0488 86.5853H85.3659H78.0488ZM9.7561 89.0244H26.8293H9.7561ZM29.2683 89.0244H31.7073H29.2683ZM39.0244 89.0244H43.9024H39.0244ZM46.3415 89.0244H48.7805H46.3415ZM51.2195 89.0244H58.5366H51.2195ZM63.4146 89.0244H73.1707H63.4146ZM75.6098 89.0244H78.0488H75.6098Z" stroke="black" stroke-width="2.43902"/>
<rect x="77.3701" y="18" width="6.54773" height="83.9619" transform="rotate(45 77.3701 18)" fill="#FF0000"/>
</svg>
