<svg width="262" height="242" viewBox="0 0 262 242" fill="none" xmlns="http://www.w3.org/2000/svg">
<path fill-rule="evenodd" clip-rule="evenodd" d="M222.914 39.7389L262 3.70379L259.436 0.922852L220.863 36.4852H198.959V56.6802L181.204 73.0492H159.873V92.7152L141.544 109.613H120.787V128.75L101.885 146.177H81.7017V164.785L62.2258 182.741H42.616V200.82L0.966553 239.219L3.53044 242L42.616 205.965V206.697H66.5717V183.879L81.7017 169.93V170.133H105.657V147.844L121.141 133.569H144.743V111.809L160.8 97.0049H183.829V75.7739L200.46 60.4409H222.914V39.7389ZM27.4861 36.4852H3.53038V60.4409H27.4861V36.4852ZM27.4861 73.0492H3.53038V97.0049H27.4861V73.0492ZM3.53038 109.613H27.4861V133.569H3.53038V109.613ZM27.4861 146.177H3.53038V170.133H27.4861V146.177ZM3.53038 182.741H27.4861V206.697H3.53038V182.741ZM66.5717 36.4852H42.616V60.4409H66.5717V36.4852ZM42.616 73.0492H66.5717V97.0049H42.616V73.0492ZM66.5717 109.613H42.616V133.569H66.5717V109.613ZM42.616 146.177H66.5717V170.133H42.616V146.177ZM81.7017 36.4852H105.657V60.4409H81.7017V36.4852ZM105.657 73.0492H81.7017V97.0049H105.657V73.0492ZM81.7017 109.613H105.657V133.569H81.7017V109.613ZM81.7017 182.741H105.657V206.697H81.7017V182.741ZM144.743 36.4852H120.787V60.4409H144.743V36.4852ZM120.787 73.0492H144.743V97.0049H120.787V73.0492ZM120.787 146.177H144.743V170.133H120.787V146.177ZM144.743 182.741H120.787V206.697H144.743V182.741ZM159.873 36.4852H183.829V60.4409H159.873V36.4852ZM159.873 109.613H183.829V133.569H159.873V109.613ZM183.829 146.177H159.873V170.133H183.829V146.177ZM159.873 182.741H183.829V206.697H159.873V182.741ZM198.959 73.0492H222.914V97.0049H198.959V73.0492ZM222.914 109.613H198.959V133.569H222.914V109.613ZM198.959 146.177H222.914V170.133H198.959V146.177ZM222.914 182.741H198.959V206.697H222.914V182.741ZM238.044 36.4852H262V60.4409H238.044V36.4852ZM262 73.0492H238.044V97.0049H262V73.0492ZM238.044 109.613H262V133.569H238.044V109.613ZM262 146.177H238.044V170.133H262V146.177ZM238.044 182.741H262V206.697H238.044V182.741Z" fill="#EEEEEE"/>
</svg>