<svg width="100" height="100" viewBox="0 0 100 100" fill="none" xmlns="http://www.w3.org/2000/svg">
<g clip-path="url(#clip0_1169_19126)">
<path d="M0 0H100V100H0V0Z" fill="white"/>
<path d="M8.88892 10H24.4445H8.88892ZM28.8889 10H33.3334H28.8889ZM37.7778 10H40H37.7778ZM42.2223 10H44.4445H42.2223ZM55.5556 10H62.2223H55.5556ZM64.4445 10H66.6667H64.4445ZM75.5556 10H91.1111H75.5556ZM8.88892 12.2222H11.1111H8.88892ZM22.2222 12.2222H24.4445H22.2222ZM37.7778 12.2222H40H37.7778ZM44.4445 12.2222H51.1111H44.4445ZM53.3334 12.2222H55.5556H53.3334ZM62.2223 12.2222H71.1111H62.2223ZM75.5556 12.2222H77.7778H75.5556ZM88.8889 12.2222H91.1111H88.8889ZM8.88892 14.4444H11.1111H8.88892ZM13.3334 14.4444H20H13.3334ZM22.2222 14.4444H24.4445H22.2222ZM26.6667 14.4444H31.1111H26.6667ZM37.7778 14.4444H40H37.7778ZM44.4445 14.4444H46.6667H44.4445ZM55.5556 14.4444H64.4445H55.5556ZM66.6667 14.4444H68.8889H66.6667ZM75.5556 14.4444H77.7778H75.5556ZM80 14.4444H86.6667H80ZM88.8889 14.4444H91.1111H88.8889ZM8.88892 16.6667H11.1111H8.88892ZM13.3334 16.6667H20H13.3334ZM22.2222 16.6667H24.4445H22.2222ZM26.6667 16.6667H31.1111H26.6667ZM35.5556 16.6667H37.7778H35.5556ZM40 16.6667H42.2223H40ZM44.4445 16.6667H51.1111H44.4445ZM53.3334 16.6667H55.5556H53.3334ZM57.7778 16.6667H60H57.7778ZM64.4445 16.6667H71.1111H64.4445ZM75.5556 16.6667H77.7778H75.5556ZM80 16.6667H86.6667H80ZM88.8889 16.6667H91.1111H88.8889ZM8.88892 18.8889H11.1111H8.88892ZM13.3334 18.8889H20H13.3334ZM22.2222 18.8889H24.4445H22.2222ZM26.6667 18.8889H31.1111H26.6667ZM35.5556 18.8889H40H35.5556ZM42.2223 18.8889H62.2223H42.2223ZM64.4445 18.8889H66.6667H64.4445ZM71.1111 18.8889H73.3334H71.1111ZM75.5556 18.8889H77.7778H75.5556ZM80 18.8889H86.6667H80ZM88.8889 18.8889H91.1111H88.8889ZM8.88892 21.1111H11.1111H8.88892ZM22.2222 21.1111H24.4445H22.2222ZM26.6667 21.1111H28.8889H26.6667ZM31.1111 21.1111H35.5556H31.1111ZM40 21.1111H44.4445H40ZM46.6667 21.1111H48.8889H46.6667ZM64.4445 21.1111H73.3334H64.4445ZM75.5556 21.1111H77.7778H75.5556ZM88.8889 21.1111H91.1111H88.8889ZM8.88892 23.3333H24.4445H8.88892ZM26.6667 23.3333H28.8889H26.6667ZM31.1111 23.3333H33.3334H31.1111ZM35.5556 23.3333H37.7778H35.5556ZM40 23.3333H42.2223H40ZM44.4445 23.3333H46.6667H44.4445ZM48.8889 23.3333H51.1111H48.8889ZM53.3334 23.3333H55.5556H53.3334ZM57.7778 23.3333H60H57.7778ZM62.2223 23.3333H64.4445H62.2223ZM66.6667 23.3333H68.8889H66.6667ZM71.1111 23.3333H73.3334H71.1111ZM75.5556 23.3333H91.1111H75.5556ZM26.6667 25.5556H28.8889H26.6667ZM31.1111 25.5556H33.3334H31.1111ZM42.2223 25.5556H44.4445H42.2223ZM46.6667 25.5556H51.1111H46.6667ZM55.5556 25.5556H62.2223H55.5556ZM71.1111 25.5556H73.3334H71.1111ZM8.88892 27.7778H11.1111H8.88892ZM13.3334 27.7778H24.4445H13.3334ZM28.8889 27.7778H31.1111H28.8889ZM35.5556 27.7778H42.2223H35.5556ZM44.4445 27.7778H46.6667H44.4445ZM57.7778 27.7778H62.2223H57.7778ZM64.4445 27.7778H68.8889H64.4445ZM71.1111 27.7778H73.3334H71.1111ZM75.5556 27.7778H86.6667H75.5556ZM8.88892 30H13.3334H8.88892ZM17.7778 30H22.2222H17.7778ZM28.8889 30H31.1111H28.8889ZM42.2223 30H44.4445H42.2223ZM46.6667 30H51.1111H46.6667ZM53.3334 30H57.7778H53.3334ZM60 30H62.2223H60ZM71.1111 30H73.3334H71.1111ZM77.7778 30H80H77.7778ZM86.6667 30H88.8889H86.6667ZM8.88892 32.2222H15.5556H8.88892ZM22.2222 32.2222H35.5556H22.2222ZM37.7778 32.2222H40H37.7778ZM42.2223 32.2222H48.8889H42.2223ZM51.1111 32.2222H53.3334H51.1111ZM55.5556 32.2222H60H55.5556ZM64.4445 32.2222H73.3334H64.4445ZM75.5556 32.2222H80H75.5556ZM82.2223 32.2222H84.4445H82.2223ZM86.6667 32.2222H91.1111H86.6667ZM8.88892 34.4444H11.1111H8.88892ZM13.3334 34.4444H15.5556H13.3334ZM17.7778 34.4444H20H17.7778ZM24.4445 34.4444H28.8889H24.4445ZM31.1111 34.4444H35.5556H31.1111ZM37.7778 34.4444H44.4445H37.7778ZM51.1111 34.4444H57.7778H51.1111ZM62.2223 34.4444H64.4445H62.2223ZM66.6667 34.4444H71.1111H66.6667ZM75.5556 34.4444H84.4445H75.5556ZM88.8889 34.4444H91.1111H88.8889ZM8.88892 36.6667H17.7778H8.88892ZM22.2222 36.6667H24.4445H22.2222ZM28.8889 36.6667H31.1111H28.8889ZM33.3334 36.6667H37.7778H33.3334ZM42.2223 36.6667H48.8889H42.2223ZM51.1111 36.6667H55.5556H51.1111ZM57.7778 36.6667H60H57.7778ZM62.2223 36.6667H71.1111H62.2223ZM73.3334 36.6667H82.2223H73.3334ZM84.4445 36.6667H91.1111H84.4445ZM11.1111 38.8889H13.3334H11.1111ZM20 38.8889H22.2222H20ZM33.3334 38.8889H35.5556H33.3334ZM44.4445 38.8889H46.6667H44.4445ZM48.8889 38.8889H57.7778H48.8889ZM60 38.8889H66.6667H60ZM71.1111 38.8889H73.3334H71.1111ZM77.7778 38.8889H80H77.7778ZM8.88892 41.1111H13.3334H8.88892ZM15.5556 41.1111H17.7778H15.5556ZM22.2222 41.1111H26.6667H22.2222ZM31.1111 41.1111H37.7778H31.1111ZM42.2223 41.1111H44.4445H42.2223ZM48.8889 41.1111H51.1111H48.8889ZM55.5556 41.1111H57.7778H55.5556ZM66.6667 41.1111H75.5556H66.6667ZM77.7778 41.1111H84.4445H77.7778ZM86.6667 41.1111H91.1111H86.6667ZM11.1111 43.3333H13.3334H11.1111ZM28.8889 43.3333H33.3334H28.8889ZM35.5556 43.3333H37.7778H35.5556ZM42.2223 43.3333H46.6667H42.2223ZM55.5556 43.3333H60H55.5556ZM66.6667 43.3333H68.8889H66.6667ZM71.1111 43.3333H75.5556H71.1111ZM77.7778 43.3333H82.2223H77.7778ZM86.6667 43.3333H91.1111H86.6667ZM8.88892 45.5556H20H8.88892ZM22.2222 45.5556H24.4445H22.2222ZM35.5556 45.5556H42.2223H35.5556ZM48.8889 45.5556H51.1111H48.8889ZM53.3334 45.5556H55.5556H53.3334ZM57.7778 45.5556H71.1111H57.7778ZM73.3334 45.5556H77.7778H73.3334ZM80 45.5556H82.2223H80ZM84.4445 45.5556H86.6667H84.4445ZM11.1111 47.7778H15.5556H11.1111ZM17.7778 47.7778H20H17.7778ZM26.6667 47.7778H28.8889H26.6667ZM40 47.7778H46.6667H40ZM60 47.7778H62.2223H60ZM64.4445 47.7778H66.6667H64.4445ZM71.1111 47.7778H75.5556H71.1111ZM77.7778 47.7778H80H77.7778ZM84.4445 47.7778H88.8889H84.4445ZM15.5556 50H24.4445H15.5556ZM26.6667 50H31.1111H26.6667ZM33.3334 50H42.2223H33.3334ZM53.3334 50H55.5556H53.3334ZM57.7778 50H60H57.7778ZM62.2223 50H64.4445H62.2223ZM66.6667 50H71.1111H66.6667ZM73.3334 50H75.5556H73.3334ZM80 50H82.2223H80ZM86.6667 50H91.1111H86.6667ZM11.1111 52.2222H15.5556H11.1111ZM17.7778 52.2222H20H17.7778ZM24.4445 52.2222H28.8889H24.4445ZM31.1111 52.2222H35.5556H31.1111ZM44.4445 52.2222H46.6667H44.4445ZM48.8889 52.2222H51.1111H48.8889ZM55.5556 52.2222H60H55.5556ZM68.8889 52.2222H73.3334H68.8889ZM75.5556 52.2222H82.2223H75.5556ZM88.8889 52.2222H91.1111H88.8889ZM8.88892 54.4444H15.5556H8.88892ZM17.7778 54.4444H20H17.7778ZM22.2222 54.4444H24.4445H22.2222ZM26.6667 54.4444H28.8889H26.6667ZM31.1111 54.4444H33.3334H31.1111ZM35.5556 54.4444H37.7778H35.5556ZM46.6667 54.4444H48.8889H46.6667ZM53.3334 54.4444H55.5556H53.3334ZM57.7778 54.4444H60H57.7778ZM62.2223 54.4444H71.1111H62.2223ZM73.3334 54.4444H77.7778H73.3334ZM80 54.4444H86.6667H80ZM11.1111 56.6667H15.5556H11.1111ZM28.8889 56.6667H37.7778H28.8889ZM40 56.6667H42.2223H40ZM44.4445 56.6667H55.5556H44.4445ZM57.7778 56.6667H62.2223H57.7778ZM64.4445 56.6667H66.6667H64.4445ZM71.1111 56.6667H73.3334H71.1111ZM82.2223 56.6667H84.4445H82.2223ZM8.88892 58.8889H11.1111H8.88892ZM13.3334 58.8889H26.6667H13.3334ZM33.3334 58.8889H35.5556H33.3334ZM37.7778 58.8889H48.8889H37.7778ZM53.3334 58.8889H60H53.3334ZM64.4445 58.8889H71.1111H64.4445ZM73.3334 58.8889H84.4445H73.3334ZM86.6667 58.8889H91.1111H86.6667ZM11.1111 61.1111H13.3334H11.1111ZM24.4445 61.1111H28.8889H24.4445ZM31.1111 61.1111H35.5556H31.1111ZM37.7778 61.1111H40H37.7778ZM42.2223 61.1111H44.4445H42.2223ZM46.6667 61.1111H51.1111H46.6667ZM55.5556 61.1111H57.7778H55.5556ZM60 61.1111H62.2223H60ZM66.6667 61.1111H68.8889H66.6667ZM71.1111 61.1111H73.3334H71.1111ZM77.7778 61.1111H82.2223H77.7778ZM86.6667 61.1111H88.8889H86.6667ZM8.88892 63.3333H17.7778H8.88892ZM22.2222 63.3333H26.6667H22.2222ZM31.1111 63.3333H33.3334H31.1111ZM35.5556 63.3333H37.7778H35.5556ZM44.4445 63.3333H46.6667H44.4445ZM57.7778 63.3333H62.2223H57.7778ZM64.4445 63.3333H68.8889H64.4445ZM71.1111 63.3333H77.7778H71.1111ZM80 63.3333H82.2223H80ZM84.4445 63.3333H88.8889H84.4445ZM8.88892 65.5556H11.1111H8.88892ZM13.3334 65.5556H20H13.3334ZM26.6667 65.5556H28.8889H26.6667ZM31.1111 65.5556H40H31.1111ZM42.2223 65.5556H44.4445H42.2223ZM48.8889 65.5556H51.1111H48.8889ZM53.3334 65.5556H62.2223H53.3334ZM66.6667 65.5556H68.8889H66.6667ZM71.1111 65.5556H73.3334H71.1111ZM82.2223 65.5556H84.4445H82.2223ZM8.88892 67.7778H11.1111H8.88892ZM13.3334 67.7778H17.7778H13.3334ZM20 67.7778H24.4445H20ZM26.6667 67.7778H35.5556H26.6667ZM37.7778 67.7778H40H37.7778ZM42.2223 67.7778H46.6667H42.2223ZM51.1111 67.7778H53.3334H51.1111ZM66.6667 67.7778H73.3334H66.6667ZM75.5556 67.7778H80H75.5556ZM84.4445 67.7778H91.1111H84.4445ZM8.88892 70H11.1111H8.88892ZM17.7778 70H22.2222H17.7778ZM33.3334 70H35.5556H33.3334ZM42.2223 70H44.4445H42.2223ZM51.1111 70H57.7778H51.1111ZM60 70H64.4445H60ZM66.6667 70H68.8889H66.6667ZM73.3334 70H82.2223H73.3334ZM88.8889 70H91.1111H88.8889ZM8.88892 72.2222H11.1111H8.88892ZM13.3334 72.2222H15.5556H13.3334ZM17.7778 72.2222H31.1111H17.7778ZM37.7778 72.2222H44.4445H37.7778ZM46.6667 72.2222H48.8889H46.6667ZM51.1111 72.2222H53.3334H51.1111ZM57.7778 72.2222H60H57.7778ZM62.2223 72.2222H66.6667H62.2223ZM68.8889 72.2222H86.6667H68.8889ZM26.6667 74.4444H35.5556H26.6667ZM37.7778 74.4444H42.2223H37.7778ZM44.4445 74.4444H46.6667H44.4445ZM51.1111 74.4444H57.7778H51.1111ZM60 74.4444H62.2223H60ZM68.8889 74.4444H73.3334H68.8889ZM80 74.4444H84.4445H80ZM86.6667 74.4444H88.8889H86.6667ZM8.88892 76.6667H24.4445H8.88892ZM28.8889 76.6667H31.1111H28.8889ZM35.5556 76.6667H40H35.5556ZM42.2223 76.6667H46.6667H42.2223ZM48.8889 76.6667H51.1111H48.8889ZM53.3334 76.6667H60H53.3334ZM64.4445 76.6667H68.8889H64.4445ZM71.1111 76.6667H73.3334H71.1111ZM75.5556 76.6667H77.7778H75.5556ZM80 76.6667H82.2223H80ZM84.4445 76.6667H86.6667H84.4445ZM88.8889 76.6667H91.1111H88.8889ZM8.88892 78.8889H11.1111H8.88892ZM22.2222 78.8889H24.4445H22.2222ZM26.6667 78.8889H37.7778H26.6667ZM40 78.8889H44.4445H40ZM51.1111 78.8889H64.4445H51.1111ZM68.8889 78.8889H73.3334H68.8889ZM80 78.8889H84.4445H80ZM86.6667 78.8889H88.8889H86.6667ZM8.88892 81.1111H11.1111H8.88892ZM13.3334 81.1111H20H13.3334ZM22.2222 81.1111H24.4445H22.2222ZM26.6667 81.1111H28.8889H26.6667ZM31.1111 81.1111H33.3334H31.1111ZM35.5556 81.1111H44.4445H35.5556ZM48.8889 81.1111H53.3334H48.8889ZM57.7778 81.1111H60H57.7778ZM64.4445 81.1111H82.2223H64.4445ZM84.4445 81.1111H86.6667H84.4445ZM88.8889 81.1111H91.1111H88.8889ZM8.88892 83.3333H11.1111H8.88892ZM13.3334 83.3333H20H13.3334ZM22.2222 83.3333H24.4445H22.2222ZM26.6667 83.3333H33.3334H26.6667ZM35.5556 83.3333H37.7778H35.5556ZM40 83.3333H46.6667H40ZM55.5556 83.3333H57.7778H55.5556ZM60 83.3333H62.2223H60ZM64.4445 83.3333H66.6667H64.4445ZM73.3334 83.3333H77.7778H73.3334ZM80 83.3333H82.2223H80ZM84.4445 83.3333H86.6667H84.4445ZM88.8889 83.3333H91.1111H88.8889ZM8.88892 85.5556H11.1111H8.88892ZM13.3334 85.5556H20H13.3334ZM22.2222 85.5556H24.4445H22.2222ZM26.6667 85.5556H28.8889H26.6667ZM31.1111 85.5556H33.3334H31.1111ZM55.5556 85.5556H60H55.5556ZM64.4445 85.5556H75.5556H64.4445ZM84.4445 85.5556H91.1111H84.4445ZM8.88892 87.7778H11.1111H8.88892ZM22.2222 87.7778H24.4445H22.2222ZM33.3334 87.7778H37.7778H33.3334ZM40 87.7778H42.2223H40ZM44.4445 87.7778H46.6667H44.4445ZM48.8889 87.7778H51.1111H48.8889ZM53.3334 87.7778H60H53.3334ZM62.2223 87.7778H64.4445H62.2223ZM71.1111 87.7778H73.3334H71.1111ZM80 87.7778H82.2223H80ZM88.8889 87.7778H91.1111H88.8889ZM8.88892 90H24.4445H8.88892ZM26.6667 90H37.7778H26.6667ZM40 90H42.2223H40ZM46.6667 90H48.8889H46.6667ZM60 90H68.8889H60ZM73.3334 90H77.7778H73.3334ZM80 90H91.1111Z" fill="black"/>
<path d="M80 90H91.1111M8.88892 10H24.4445H8.88892ZM28.8889 10H33.3334H28.8889ZM37.7778 10H40H37.7778ZM42.2223 10H44.4445H42.2223ZM55.5556 10H62.2223H55.5556ZM64.4445 10H66.6667H64.4445ZM75.5556 10H91.1111H75.5556ZM8.88892 12.2222H11.1111H8.88892ZM22.2222 12.2222H24.4445H22.2222ZM37.7778 12.2222H40H37.7778ZM44.4445 12.2222H51.1111H44.4445ZM53.3334 12.2222H55.5556H53.3334ZM62.2223 12.2222H71.1111H62.2223ZM75.5556 12.2222H77.7778H75.5556ZM88.8889 12.2222H91.1111H88.8889ZM8.88892 14.4444H11.1111H8.88892ZM13.3334 14.4444H20H13.3334ZM22.2222 14.4444H24.4445H22.2222ZM26.6667 14.4444H31.1111H26.6667ZM37.7778 14.4444H40H37.7778ZM44.4445 14.4444H46.6667H44.4445ZM55.5556 14.4444H64.4445H55.5556ZM66.6667 14.4444H68.8889H66.6667ZM75.5556 14.4444H77.7778H75.5556ZM80 14.4444H86.6667H80ZM88.8889 14.4444H91.1111H88.8889ZM8.88892 16.6667H11.1111H8.88892ZM13.3334 16.6667H20H13.3334ZM22.2222 16.6667H24.4445H22.2222ZM26.6667 16.6667H31.1111H26.6667ZM35.5556 16.6667H37.7778H35.5556ZM40 16.6667H42.2223H40ZM44.4445 16.6667H51.1111H44.4445ZM53.3334 16.6667H55.5556H53.3334ZM57.7778 16.6667H60H57.7778ZM64.4445 16.6667H71.1111H64.4445ZM75.5556 16.6667H77.7778H75.5556ZM80 16.6667H86.6667H80ZM88.8889 16.6667H91.1111H88.8889ZM8.88892 18.8889H11.1111H8.88892ZM13.3334 18.8889H20H13.3334ZM22.2222 18.8889H24.4445H22.2222ZM26.6667 18.8889H31.1111H26.6667ZM35.5556 18.8889H40H35.5556ZM42.2223 18.8889H62.2223H42.2223ZM64.4445 18.8889H66.6667H64.4445ZM71.1111 18.8889H73.3334H71.1111ZM75.5556 18.8889H77.7778H75.5556ZM80 18.8889H86.6667H80ZM88.8889 18.8889H91.1111H88.8889ZM8.88892 21.1111H11.1111H8.88892ZM22.2222 21.1111H24.4445H22.2222ZM26.6667 21.1111H28.8889H26.6667ZM31.1111 21.1111H35.5556H31.1111ZM40 21.1111H44.4445H40ZM46.6667 21.1111H48.8889H46.6667ZM64.4445 21.1111H73.3334H64.4445ZM75.5556 21.1111H77.7778H75.5556ZM88.8889 21.1111H91.1111H88.8889ZM8.88892 23.3333H24.4445H8.88892ZM26.6667 23.3333H28.8889H26.6667ZM31.1111 23.3333H33.3334H31.1111ZM35.5556 23.3333H37.7778H35.5556ZM40 23.3333H42.2223H40ZM44.4445 23.3333H46.6667H44.4445ZM48.8889 23.3333H51.1111H48.8889ZM53.3334 23.3333H55.5556H53.3334ZM57.7778 23.3333H60H57.7778ZM62.2223 23.3333H64.4445H62.2223ZM66.6667 23.3333H68.8889H66.6667ZM71.1111 23.3333H73.3334H71.1111ZM75.5556 23.3333H91.1111H75.5556ZM26.6667 25.5556H28.8889H26.6667ZM31.1111 25.5556H33.3334H31.1111ZM42.2223 25.5556H44.4445H42.2223ZM46.6667 25.5556H51.1111H46.6667ZM55.5556 25.5556H62.2223H55.5556ZM71.1111 25.5556H73.3334H71.1111ZM8.88892 27.7778H11.1111H8.88892ZM13.3334 27.7778H24.4445H13.3334ZM28.8889 27.7778H31.1111H28.8889ZM35.5556 27.7778H42.2223H35.5556ZM44.4445 27.7778H46.6667H44.4445ZM57.7778 27.7778H62.2223H57.7778ZM64.4445 27.7778H68.8889H64.4445ZM71.1111 27.7778H73.3334H71.1111ZM75.5556 27.7778H86.6667H75.5556ZM8.88892 30H13.3334H8.88892ZM17.7778 30H22.2222H17.7778ZM28.8889 30H31.1111H28.8889ZM42.2223 30H44.4445H42.2223ZM46.6667 30H51.1111H46.6667ZM53.3334 30H57.7778H53.3334ZM60 30H62.2223H60ZM71.1111 30H73.3334H71.1111ZM77.7778 30H80H77.7778ZM86.6667 30H88.8889H86.6667ZM8.88892 32.2222H15.5556H8.88892ZM22.2222 32.2222H35.5556H22.2222ZM37.7778 32.2222H40H37.7778ZM42.2223 32.2222H48.8889H42.2223ZM51.1111 32.2222H53.3334H51.1111ZM55.5556 32.2222H60H55.5556ZM64.4445 32.2222H73.3334H64.4445ZM75.5556 32.2222H80H75.5556ZM82.2223 32.2222H84.4445H82.2223ZM86.6667 32.2222H91.1111H86.6667ZM8.88892 34.4444H11.1111H8.88892ZM13.3334 34.4444H15.5556H13.3334ZM17.7778 34.4444H20H17.7778ZM24.4445 34.4444H28.8889H24.4445ZM31.1111 34.4444H35.5556H31.1111ZM37.7778 34.4444H44.4445H37.7778ZM51.1111 34.4444H57.7778H51.1111ZM62.2223 34.4444H64.4445H62.2223ZM66.6667 34.4444H71.1111H66.6667ZM75.5556 34.4444H84.4445H75.5556ZM88.8889 34.4444H91.1111H88.8889ZM8.88892 36.6667H17.7778H8.88892ZM22.2222 36.6667H24.4445H22.2222ZM28.8889 36.6667H31.1111H28.8889ZM33.3334 36.6667H37.7778H33.3334ZM42.2223 36.6667H48.8889H42.2223ZM51.1111 36.6667H55.5556H51.1111ZM57.7778 36.6667H60H57.7778ZM62.2223 36.6667H71.1111H62.2223ZM73.3334 36.6667H82.2223H73.3334ZM84.4445 36.6667H91.1111H84.4445ZM11.1111 38.8889H13.3334H11.1111ZM20 38.8889H22.2222H20ZM33.3334 38.8889H35.5556H33.3334ZM44.4445 38.8889H46.6667H44.4445ZM48.8889 38.8889H57.7778H48.8889ZM60 38.8889H66.6667H60ZM71.1111 38.8889H73.3334H71.1111ZM77.7778 38.8889H80H77.7778ZM8.88892 41.1111H13.3334H8.88892ZM15.5556 41.1111H17.7778H15.5556ZM22.2222 41.1111H26.6667H22.2222ZM31.1111 41.1111H37.7778H31.1111ZM42.2223 41.1111H44.4445H42.2223ZM48.8889 41.1111H51.1111H48.8889ZM55.5556 41.1111H57.7778H55.5556ZM66.6667 41.1111H75.5556H66.6667ZM77.7778 41.1111H84.4445H77.7778ZM86.6667 41.1111H91.1111H86.6667ZM11.1111 43.3333H13.3334H11.1111ZM28.8889 43.3333H33.3334H28.8889ZM35.5556 43.3333H37.7778H35.5556ZM42.2223 43.3333H46.6667H42.2223ZM55.5556 43.3333H60H55.5556ZM66.6667 43.3333H68.8889H66.6667ZM71.1111 43.3333H75.5556H71.1111ZM77.7778 43.3333H82.2223H77.7778ZM86.6667 43.3333H91.1111H86.6667ZM8.88892 45.5556H20H8.88892ZM22.2222 45.5556H24.4445H22.2222ZM35.5556 45.5556H42.2223H35.5556ZM48.8889 45.5556H51.1111H48.8889ZM53.3334 45.5556H55.5556H53.3334ZM57.7778 45.5556H71.1111H57.7778ZM73.3334 45.5556H77.7778H73.3334ZM80 45.5556H82.2223H80ZM84.4445 45.5556H86.6667H84.4445ZM11.1111 47.7778H15.5556H11.1111ZM17.7778 47.7778H20H17.7778ZM26.6667 47.7778H28.8889H26.6667ZM40 47.7778H46.6667H40ZM60 47.7778H62.2223H60ZM64.4445 47.7778H66.6667H64.4445ZM71.1111 47.7778H75.5556H71.1111ZM77.7778 47.7778H80H77.7778ZM84.4445 47.7778H88.8889H84.4445ZM15.5556 50H24.4445H15.5556ZM26.6667 50H31.1111H26.6667ZM33.3334 50H42.2223H33.3334ZM53.3334 50H55.5556H53.3334ZM57.7778 50H60H57.7778ZM62.2223 50H64.4445H62.2223ZM66.6667 50H71.1111H66.6667ZM73.3334 50H75.5556H73.3334ZM80 50H82.2223H80ZM86.6667 50H91.1111H86.6667ZM11.1111 52.2222H15.5556H11.1111ZM17.7778 52.2222H20H17.7778ZM24.4445 52.2222H28.8889H24.4445ZM31.1111 52.2222H35.5556H31.1111ZM44.4445 52.2222H46.6667H44.4445ZM48.8889 52.2222H51.1111H48.8889ZM55.5556 52.2222H60H55.5556ZM68.8889 52.2222H73.3334H68.8889ZM75.5556 52.2222H82.2223H75.5556ZM88.8889 52.2222H91.1111H88.8889ZM8.88892 54.4444H15.5556H8.88892ZM17.7778 54.4444H20H17.7778ZM22.2222 54.4444H24.4445H22.2222ZM26.6667 54.4444H28.8889H26.6667ZM31.1111 54.4444H33.3334H31.1111ZM35.5556 54.4444H37.7778H35.5556ZM46.6667 54.4444H48.8889H46.6667ZM53.3334 54.4444H55.5556H53.3334ZM57.7778 54.4444H60H57.7778ZM62.2223 54.4444H71.1111H62.2223ZM73.3334 54.4444H77.7778H73.3334ZM80 54.4444H86.6667H80ZM11.1111 56.6667H15.5556H11.1111ZM28.8889 56.6667H37.7778H28.8889ZM40 56.6667H42.2223H40ZM44.4445 56.6667H55.5556H44.4445ZM57.7778 56.6667H62.2223H57.7778ZM64.4445 56.6667H66.6667H64.4445ZM71.1111 56.6667H73.3334H71.1111ZM82.2223 56.6667H84.4445H82.2223ZM8.88892 58.8889H11.1111H8.88892ZM13.3334 58.8889H26.6667H13.3334ZM33.3334 58.8889H35.5556H33.3334ZM37.7778 58.8889H48.8889H37.7778ZM53.3334 58.8889H60H53.3334ZM64.4445 58.8889H71.1111H64.4445ZM73.3334 58.8889H84.4445H73.3334ZM86.6667 58.8889H91.1111H86.6667ZM11.1111 61.1111H13.3334H11.1111ZM24.4445 61.1111H28.8889H24.4445ZM31.1111 61.1111H35.5556H31.1111ZM37.7778 61.1111H40H37.7778ZM42.2223 61.1111H44.4445H42.2223ZM46.6667 61.1111H51.1111H46.6667ZM55.5556 61.1111H57.7778H55.5556ZM60 61.1111H62.2223H60ZM66.6667 61.1111H68.8889H66.6667ZM71.1111 61.1111H73.3334H71.1111ZM77.7778 61.1111H82.2223H77.7778ZM86.6667 61.1111H88.8889H86.6667ZM8.88892 63.3333H17.7778H8.88892ZM22.2222 63.3333H26.6667H22.2222ZM31.1111 63.3333H33.3334H31.1111ZM35.5556 63.3333H37.7778H35.5556ZM44.4445 63.3333H46.6667H44.4445ZM57.7778 63.3333H62.2223H57.7778ZM64.4445 63.3333H68.8889H64.4445ZM71.1111 63.3333H77.7778H71.1111ZM80 63.3333H82.2223H80ZM84.4445 63.3333H88.8889H84.4445ZM8.88892 65.5556H11.1111H8.88892ZM13.3334 65.5556H20H13.3334ZM26.6667 65.5556H28.8889H26.6667ZM31.1111 65.5556H40H31.1111ZM42.2223 65.5556H44.4445H42.2223ZM48.8889 65.5556H51.1111H48.8889ZM53.3334 65.5556H62.2223H53.3334ZM66.6667 65.5556H68.8889H66.6667ZM71.1111 65.5556H73.3334H71.1111ZM82.2223 65.5556H84.4445H82.2223ZM8.88892 67.7778H11.1111H8.88892ZM13.3334 67.7778H17.7778H13.3334ZM20 67.7778H24.4445H20ZM26.6667 67.7778H35.5556H26.6667ZM37.7778 67.7778H40H37.7778ZM42.2223 67.7778H46.6667H42.2223ZM51.1111 67.7778H53.3334H51.1111ZM66.6667 67.7778H73.3334H66.6667ZM75.5556 67.7778H80H75.5556ZM84.4445 67.7778H91.1111H84.4445ZM8.88892 70H11.1111H8.88892ZM17.7778 70H22.2222H17.7778ZM33.3334 70H35.5556H33.3334ZM42.2223 70H44.4445H42.2223ZM51.1111 70H57.7778H51.1111ZM60 70H64.4445H60ZM66.6667 70H68.8889H66.6667ZM73.3334 70H82.2223H73.3334ZM88.8889 70H91.1111H88.8889ZM8.88892 72.2222H11.1111H8.88892ZM13.3334 72.2222H15.5556H13.3334ZM17.7778 72.2222H31.1111H17.7778ZM37.7778 72.2222H44.4445H37.7778ZM46.6667 72.2222H48.8889H46.6667ZM51.1111 72.2222H53.3334H51.1111ZM57.7778 72.2222H60H57.7778ZM62.2223 72.2222H66.6667H62.2223ZM68.8889 72.2222H86.6667H68.8889ZM26.6667 74.4444H35.5556H26.6667ZM37.7778 74.4444H42.2223H37.7778ZM44.4445 74.4444H46.6667H44.4445ZM51.1111 74.4444H57.7778H51.1111ZM60 74.4444H62.2223H60ZM68.8889 74.4444H73.3334H68.8889ZM80 74.4444H84.4445H80ZM86.6667 74.4444H88.8889H86.6667ZM8.88892 76.6667H24.4445H8.88892ZM28.8889 76.6667H31.1111H28.8889ZM35.5556 76.6667H40H35.5556ZM42.2223 76.6667H46.6667H42.2223ZM48.8889 76.6667H51.1111H48.8889ZM53.3334 76.6667H60H53.3334ZM64.4445 76.6667H68.8889H64.4445ZM71.1111 76.6667H73.3334H71.1111ZM75.5556 76.6667H77.7778H75.5556ZM80 76.6667H82.2223H80ZM84.4445 76.6667H86.6667H84.4445ZM88.8889 76.6667H91.1111H88.8889ZM8.88892 78.8889H11.1111H8.88892ZM22.2222 78.8889H24.4445H22.2222ZM26.6667 78.8889H37.7778H26.6667ZM40 78.8889H44.4445H40ZM51.1111 78.8889H64.4445H51.1111ZM68.8889 78.8889H73.3334H68.8889ZM80 78.8889H84.4445H80ZM86.6667 78.8889H88.8889H86.6667ZM8.88892 81.1111H11.1111H8.88892ZM13.3334 81.1111H20H13.3334ZM22.2222 81.1111H24.4445H22.2222ZM26.6667 81.1111H28.8889H26.6667ZM31.1111 81.1111H33.3334H31.1111ZM35.5556 81.1111H44.4445H35.5556ZM48.8889 81.1111H53.3334H48.8889ZM57.7778 81.1111H60H57.7778ZM64.4445 81.1111H82.2223H64.4445ZM84.4445 81.1111H86.6667H84.4445ZM88.8889 81.1111H91.1111H88.8889ZM8.88892 83.3333H11.1111H8.88892ZM13.3334 83.3333H20H13.3334ZM22.2222 83.3333H24.4445H22.2222ZM26.6667 83.3333H33.3334H26.6667ZM35.5556 83.3333H37.7778H35.5556ZM40 83.3333H46.6667H40ZM55.5556 83.3333H57.7778H55.5556ZM60 83.3333H62.2223H60ZM64.4445 83.3333H66.6667H64.4445ZM73.3334 83.3333H77.7778H73.3334ZM80 83.3333H82.2223H80ZM84.4445 83.3333H86.6667H84.4445ZM88.8889 83.3333H91.1111H88.8889ZM8.88892 85.5556H11.1111H8.88892ZM13.3334 85.5556H20H13.3334ZM22.2222 85.5556H24.4445H22.2222ZM26.6667 85.5556H28.8889H26.6667ZM31.1111 85.5556H33.3334H31.1111ZM55.5556 85.5556H60H55.5556ZM64.4445 85.5556H75.5556H64.4445ZM84.4445 85.5556H91.1111H84.4445ZM8.88892 87.7778H11.1111H8.88892ZM22.2222 87.7778H24.4445H22.2222ZM33.3334 87.7778H37.7778H33.3334ZM40 87.7778H42.2223H40ZM44.4445 87.7778H46.6667H44.4445ZM48.8889 87.7778H51.1111H48.8889ZM53.3334 87.7778H60H53.3334ZM62.2223 87.7778H64.4445H62.2223ZM71.1111 87.7778H73.3334H71.1111ZM80 87.7778H82.2223H80ZM88.8889 87.7778H91.1111H88.8889ZM8.88892 90H24.4445H8.88892ZM26.6667 90H37.7778H26.6667ZM40 90H42.2223H40ZM46.6667 90H48.8889H46.6667ZM60 90H68.8889H60ZM73.3334 90H77.7778H73.3334Z" stroke="black" stroke-width="2.22222"/>
<rect x="77.3701" y="18" width="6.54773" height="83.9619" transform="rotate(45 77.3701 18)" fill="#FF0000"/>
</g>
<defs>
<clipPath id="clip0_1169_19126">
<rect width="100" height="100" fill="white"/>
</clipPath>
</defs>
</svg>