<?xml version="1.0" encoding="utf-8"?>
<svg version="1.1" xmlns="http://www.w3.org/2000/svg" xmlns:xlink="http://www.w3.org/1999/xlink" x="0px" y="0px"
	 viewBox="0 0 135.9 40.9" style="enable-background:new 0 0 135.9 40.9;" xml:space="preserve">
<style type="text/css">
	.st0{fill:#A6A6A6;}
	.st1{fill:#FFFFFF;}
	.st2{fill:url(#SVGID_1_);}
	.st3{fill:url(#SVGID_2_);}
	.st4{fill:url(#SVGID_3_);}
	.st5{fill:url(#SVGID_4_);}
	.st6{opacity:0.2;enable-background:new    ;}
	.st7{opacity:0.12;enable-background:new    ;}
	.st8{opacity:0.25;fill:#FFFFFF;enable-background:new    ;}
	.st9{fill:#FFFFFF;stroke:#FFFFFF;stroke-width:0.2;stroke-miterlimit:10;}
</style>
<g>
	<path d="M130.1,40.4H5.1c-2.8,0-5-2.2-5-5v-30c0-2.7,2.2-5,5-5h125c2.8,0,5,2.2,5,5v30C135.1,38.2,132.9,40.4,130.1,40.4z"/>
</g>
<g>
	<g>
		<path class="st0" d="M130.1,1.2c2.3,0,4.2,1.9,4.2,4.2v30c0,2.3-1.9,4.2-4.2,4.2H5.1c-2.3,0-4.2-1.9-4.2-4.2v-30
			c0-2.3,1.9-4.2,4.2-4.2H130.1 M130.1,0.4H5.1c-2.8,0-5,2.2-5,5v30c0,2.8,2.2,5,5,5h125c2.8,0,5-2.2,5-5v-30
			C135.1,2.7,132.9,0.4,130.1,0.4L130.1,0.4z"/>
	</g>
</g>
<path class="st1" d="M68.3,22.2c-2.4,0-4.3,1.8-4.3,4.3c0,2.4,1.9,4.3,4.3,4.3c2.4,0,4.3-1.8,4.3-4.3C72.5,24,70.6,22.2,68.3,22.2z
	 M68.3,29c-1.3,0-2.4-1.1-2.4-2.6c0-1.5,1.1-2.6,2.4-2.6c1.3,0,2.4,1,2.4,2.6C70.7,27.9,69.5,29,68.3,29z M58.9,22.2
	c-2.4,0-4.3,1.8-4.3,4.3c0,2.4,1.9,4.3,4.3,4.3c2.4,0,4.3-1.8,4.3-4.3C63.2,24,61.3,22.2,58.9,22.2z M58.9,29
	c-1.3,0-2.4-1.1-2.4-2.6c0-1.5,1.1-2.6,2.4-2.6c1.3,0,2.4,1,2.4,2.6C61.3,27.9,60.2,29,58.9,29z M47.9,23.5v1.8h4.3
	c-0.1,1-0.5,1.8-1,2.3c-0.6,0.6-1.6,1.3-3.3,1.3c-2.7,0-4.7-2.1-4.7-4.8s2.1-4.8,4.7-4.8c1.4,0,2.5,0.6,3.3,1.3l1.3-1.3
	c-1.1-1-2.5-1.8-4.5-1.8c-3.6,0-6.7,3-6.7,6.6c0,3.6,3.1,6.6,6.7,6.6c2,0,3.4-0.6,4.6-1.9c1.2-1.2,1.6-2.9,1.6-4.2
	c0-0.4,0-0.8-0.1-1.1H47.9z M93.2,24.9c-0.4-1-1.4-2.7-3.6-2.7c-2.2,0-4,1.7-4,4.3c0,2.4,1.8,4.3,4.2,4.3c1.9,0,3.1-1.2,3.5-1.9
	l-1.4-1c-0.5,0.7-1.1,1.2-2.1,1.2c-1,0-1.6-0.4-2.1-1.3l5.7-2.4L93.2,24.9z M87.4,26.3c0-1.6,1.3-2.5,2.2-2.5c0.7,0,1.4,0.4,1.6,0.9
	L87.4,26.3z M82.7,30.4h1.9V17.9h-1.9V30.4z M79.7,23.1L79.7,23.1c-0.5-0.5-1.3-1-2.3-1c-2.1,0-4.1,1.9-4.1,4.3
	c0,2.4,1.9,4.2,4.1,4.2c1,0,1.8-0.5,2.2-1h0.1v0.6c0,1.6-0.9,2.5-2.3,2.5c-1.1,0-1.9-0.8-2.1-1.5L73.6,32c0.5,1.1,1.7,2.5,3.8,2.5
	c2.2,0,4-1.3,4-4.4v-7.6h-1.8V23.1z M77.5,29c-1.3,0-2.4-1.1-2.4-2.6c0-1.5,1.1-2.6,2.4-2.6c1.3,0,2.3,1.1,2.3,2.6
	C79.8,27.9,78.8,29,77.5,29z M101.9,17.9h-4.5v12.5h1.9v-4.7h2.6c2.1,0,4.1-1.5,4.1-3.9S104,17.9,101.9,17.9z M102,24h-2.7v-4.3h2.7
	c1.4,0,2.2,1.2,2.2,2.1C104.2,22.8,103.4,24,102,24z M113.5,22.2c-1.4,0-2.8,0.6-3.3,1.9l1.7,0.7c0.4-0.7,1-0.9,1.7-0.9
	c1,0,1.9,0.6,2,1.6v0.1c-0.3-0.2-1.1-0.5-1.9-0.5c-1.8,0-3.6,1-3.6,2.8c0,1.7,1.5,2.8,3.1,2.8c1.3,0,1.9-0.6,2.4-1.2h0.1v1h1.8v-4.8
	C117.3,23.4,115.6,22.2,113.5,22.2z M113.3,29c-0.6,0-1.5-0.3-1.5-1.1c0-1,1.1-1.3,2-1.3c0.8,0,1.2,0.2,1.7,0.4
	C115.4,28.2,114.4,29,113.3,29z M123.9,22.4l-2.1,5.4h-0.1l-2.2-5.4h-2l3.3,7.6l-1.9,4.2h1.9l5.1-11.8H123.9z M107.1,30.4h1.9V17.9
	h-1.9V30.4z"/>
<g>
	
		<linearGradient id="SVGID_1_" gradientUnits="userSpaceOnUse" x1="21.9174" y1="192.8638" x2="5.135" y2="176.0814" gradientTransform="matrix(1 0 0 -1 0 202)">
		<stop  offset="0" style="stop-color:#00A0FF"/>
		<stop  offset="6.574450e-03" style="stop-color:#00A1FF"/>
		<stop  offset="0.2601" style="stop-color:#00BEFF"/>
		<stop  offset="0.5122" style="stop-color:#00D2FF"/>
		<stop  offset="0.7604" style="stop-color:#00DFFF"/>
		<stop  offset="1" style="stop-color:#00E3FF"/>
	</linearGradient>
	<path class="st2" d="M10.6,8c-0.3,0.3-0.5,0.8-0.5,1.4v22.1c0,0.6,0.2,1.1,0.5,1.4l0.1,0.1L23,20.6v-0.1v-0.1L10.6,8L10.6,8z"/>
	
		<linearGradient id="SVGID_2_" gradientUnits="userSpaceOnUse" x1="33.952" y1="181.5721" x2="9.7551" y2="181.5721" gradientTransform="matrix(1 0 0 -1 0 202)">
		<stop  offset="0" style="stop-color:#FFE000"/>
		<stop  offset="0.4087" style="stop-color:#FFBD00"/>
		<stop  offset="0.7754" style="stop-color:#FFA500"/>
		<stop  offset="1" style="stop-color:#FF9C00"/>
	</linearGradient>
	<path class="st3" d="M27.1,24.7L23,20.6v-0.1v-0.1l4.1-4.1l0.1,0.1l4.9,2.8c1.4,0.8,1.4,2.1,0,2.9L27.1,24.7L27.1,24.7z"/>
	
		<linearGradient id="SVGID_3_" gradientUnits="userSpaceOnUse" x1="24.9446" y1="179.2774" x2="2.1863" y2="156.5191" gradientTransform="matrix(1 0 0 -1 0 202)">
		<stop  offset="0" style="stop-color:#FF3A44"/>
		<stop  offset="1" style="stop-color:#C31162"/>
	</linearGradient>
	<path class="st4" d="M27.2,24.7L23,20.4L10.6,32.9c0.5,0.5,1.2,0.5,2.1,0.1L27.2,24.7"/>
	
		<linearGradient id="SVGID_4_" gradientUnits="userSpaceOnUse" x1="7.415" y1="201.3973" x2="17.5775" y2="191.2348" gradientTransform="matrix(1 0 0 -1 0 202)">
		<stop  offset="0" style="stop-color:#32A071"/>
		<stop  offset="6.850000e-02" style="stop-color:#2DA771"/>
		<stop  offset="0.4762" style="stop-color:#15CF74"/>
		<stop  offset="0.8009" style="stop-color:#06E775"/>
		<stop  offset="1" style="stop-color:#00F076"/>
	</linearGradient>
	<path class="st5" d="M27.2,16.2L12.6,7.9C11.8,7.4,11,7.5,10.6,8L23,20.4L27.2,16.2z"/>
	<g>
		<path class="st6" d="M27.1,24.6l-14.5,8.2c-0.8,0.5-1.5,0.4-2,0l0,0l-0.1,0.1l0,0l0.1,0.1l0,0c0.5,0.4,1.2,0.5,2,0L27.1,24.6
			L27.1,24.6z"/>
		<path class="st7" d="M10.6,32.7c-0.3-0.3-0.5-0.8-0.5-1.4v0.1c0,0.6,0.2,1.1,0.5,1.4V32.7L10.6,32.7z"/>
	</g>
	<path class="st7" d="M32.1,21.7l-5,2.8l0.1,0.1l4.9-2.8c0.7-0.4,1-0.9,1-1.4l0,0C33.1,20.9,32.8,21.4,32.1,21.7z"/>
	<path class="st8" d="M12.6,8l19.5,11.1c0.6,0.4,1,0.8,1,1.3l0,0c0-0.5-0.3-1-1-1.4L12.6,7.9c-1.4-0.8-2.5-0.1-2.5,1.5v0.1
		C10.1,7.9,11.2,7.3,12.6,8z"/>
</g>
<g>
	<path class="st9" d="M41.4,13.4v-6h1.8c0.9,0,1.7,0.3,2.2,0.8c0.6,0.6,0.8,1.3,0.8,2.2c0,0.9-0.3,1.6-0.8,2.2
		c-0.6,0.6-1.3,0.8-2.2,0.8H41.4z M42.2,12.7h1.1c0.7,0,1.2-0.2,1.6-0.6c0.4-0.4,0.6-1,0.6-1.7c0-0.7-0.2-1.3-0.6-1.7
		c-0.4-0.4-1-0.6-1.6-0.6h-1.1V12.7z"/>
	<path class="st9" d="M47.4,13.4v-6h0.8v6H47.4z"/>
	<path class="st9" d="M51.2,13.6c-0.4,0-0.9-0.1-1.3-0.4c-0.4-0.3-0.7-0.7-0.8-1.2l0.7-0.3c0.1,0.3,0.3,0.6,0.5,0.8
		c0.3,0.2,0.6,0.3,0.9,0.3c0.3,0,0.6-0.1,0.9-0.3c0.2-0.2,0.4-0.4,0.4-0.7c0-0.3-0.1-0.6-0.4-0.8c-0.2-0.2-0.6-0.4-1.1-0.5
		c-0.5-0.2-0.9-0.4-1.2-0.6c-0.3-0.3-0.4-0.6-0.4-1c0-0.4,0.2-0.8,0.5-1.1c0.3-0.3,0.8-0.5,1.3-0.5c0.5,0,0.9,0.1,1.2,0.4
		c0.3,0.3,0.5,0.5,0.6,0.8l-0.7,0.3c-0.1-0.2-0.2-0.4-0.4-0.5C51.7,8.1,51.5,8,51.2,8c-0.3,0-0.5,0.1-0.8,0.2
		c-0.2,0.2-0.3,0.4-0.3,0.6c0,0.2,0.1,0.4,0.3,0.6c0.2,0.2,0.5,0.3,0.9,0.4c0.3,0.1,0.5,0.2,0.7,0.3c0.2,0.1,0.4,0.2,0.6,0.4
		c0.2,0.1,0.4,0.3,0.5,0.6c0.1,0.2,0.2,0.5,0.2,0.8s-0.1,0.6-0.2,0.8c-0.1,0.2-0.3,0.4-0.5,0.5c-0.2,0.1-0.4,0.2-0.6,0.3
		C51.7,13.5,51.4,13.6,51.2,13.6z"/>
	<path class="st9" d="M55.1,13.4h-0.8v-6h2c0.5,0,0.9,0.2,1.3,0.5c0.4,0.3,0.6,0.8,0.6,1.3c0,0.5-0.2,0.9-0.6,1.3
		c-0.4,0.3-0.8,0.5-1.3,0.5h-1.3V13.4z M55.1,10.3h1.3c0.3,0,0.6-0.1,0.8-0.3c0.2-0.2,0.3-0.5,0.3-0.7c0-0.3-0.1-0.5-0.3-0.7
		c-0.2-0.2-0.5-0.3-0.8-0.3h-1.3V10.3z"/>
	<path class="st9" d="M64.1,12.7c-0.6,0.6-1.3,0.9-2.2,0.9c-0.9,0-1.6-0.3-2.2-0.9c-0.6-0.6-0.9-1.3-0.9-2.2c0-0.9,0.3-1.6,0.9-2.2
		c0.6-0.6,1.3-0.9,2.2-0.9c0.9,0,1.6,0.3,2.2,0.9c0.6,0.6,0.9,1.3,0.9,2.2C65,11.3,64.7,12,64.1,12.7z M60.3,12.1
		c0.4,0.4,1,0.7,1.6,0.7c0.6,0,1.2-0.2,1.6-0.7c0.4-0.4,0.7-1,0.7-1.7c0-0.7-0.2-1.3-0.7-1.7c-0.4-0.4-1-0.7-1.6-0.7
		c-0.6,0-1.2,0.2-1.6,0.7c-0.4,0.4-0.7,1-0.7,1.7C59.6,11.1,59.8,11.7,60.3,12.1z"/>
	<path class="st9" d="M66.1,13.4v-6H67l2.9,4.7h0l0-1.2V7.4h0.8v6h-0.8l-3.1-4.9h0l0,1.2v3.7H66.1z"/>
	<path class="st9" d="M72.1,13.4v-6h0.8v6H72.1z"/>
	<path class="st9" d="M74.2,13.4v-6h2.2c0.5,0,0.9,0.2,1.2,0.5c0.3,0.3,0.5,0.7,0.5,1.2c0,0.3-0.1,0.5-0.2,0.8
		c-0.1,0.2-0.3,0.4-0.6,0.5v0c0.3,0.1,0.5,0.3,0.7,0.5c0.2,0.2,0.3,0.5,0.3,0.9c0,0.5-0.2,0.9-0.5,1.2c-0.4,0.3-0.8,0.5-1.3,0.5
		H74.2z M75,10h1.4c0.3,0,0.5-0.1,0.7-0.3c0.2-0.2,0.3-0.4,0.3-0.6s-0.1-0.4-0.3-0.6c-0.2-0.2-0.4-0.3-0.7-0.3H75V10z M75,12.7h1.6
		c0.3,0,0.5-0.1,0.7-0.3c0.2-0.2,0.3-0.4,0.3-0.7c0-0.2-0.1-0.5-0.3-0.7c-0.2-0.2-0.4-0.3-0.7-0.3H75V12.7z"/>
	<path class="st9" d="M79.4,13.4v-6h0.8v5.3h2.6v0.7H79.4z"/>
	<path class="st9" d="M87.2,8.2h-2.7v1.9h2.5v0.7h-2.5v1.9h2.7v0.7h-3.5v-6h3.5V8.2z"/>
	<path class="st9" d="M93.9,8.2h-2.7v1.9h2.5v0.7h-2.5v1.9h2.7v0.7h-3.5v-6h3.5V8.2z"/>
	<path class="st9" d="M95.1,13.4v-6h0.9l2.9,4.7h0l0-1.2V7.4h0.8v6H99l-3.1-4.9h0l0,1.2v3.7H95.1z"/>
</g>
</svg>
