<svg xmlns="http://www.w3.org/2000/svg" width="14" height="14" viewBox="0 0 14 14">
<g stroke="none" stroke-width="1" fill="none" fill-rule="evenodd">
        <g fill="#AAAAAA">
            <path d="M7,0 C10.8659932,0 14,3.13400675 14,7 C14,10.8659932 10.8659932,14 7,14 C3.13400675,14 0,10.8659932 0,7 C0,3.13400675 3.13400675,0 7,0 Z M7,9.66 C6.61340068,9.66 6.3,9.97340068 6.3,10.36 C6.3,10.7465993 6.61340068,11.06 7,11.06 C7.38659932,11.06 7.7,10.7465993 7.7,10.36 C7.7,9.97340068 7.38659932,9.66 7,9.66 Z M7.805,2.8 L6.195,2.8 L6.46473267,8.4 L7.54251844,8.4 L7.805,2.8 Z"></path>
        </g>
    </g>
</svg>