<svg width="122" height="40" viewBox="0 0 122 40" fill="none" xmlns="http://www.w3.org/2000/svg">
<path d="M65.0519 40V30.2696H66.6172V34.2638H71.0352V30.2696H72.6067V40H71.0352V35.7314H66.6172V39.9745L65.0519 40ZM76.2421 38.5069V35.7314H79.6945V34.2638H76.2421V31.7626H80.2625V30.2696H74.6706V40H80.414V38.5069H76.2421ZM93.8384 38.5069V30.2696H92.2731V40H97.8272V38.5069H93.8384ZM107.724 40V35.7314H112.142V39.9745H113.713V30.2696H112.142V34.2638H107.724V30.2696H106.152V40H107.724ZM100.213 40H101.791V31.7626H104.618V30.2696H97.4043V31.7626H100.232L100.213 40ZM84.0115 37.8625L83.1847 40H81.4869L85.3558 30.2696H86.8327L90.7079 40H89.0101L88.1833 37.8625H84.0115ZM87.6342 36.3694L86.1132 32.4326L84.5732 36.3694H87.6342ZM11.228 22.9702H6.71536V4.10911H0V0H17.8803V4.10911H11.228V22.9702ZM39.3265 0H35.0158V22.9702H39.3265V0ZM108.897 19.2375C108.134 19.2383 107.383 19.0422 106.716 18.6678C106.048 18.2935 105.486 17.7532 105.083 17.098C104.68 16.4429 104.448 15.6946 104.411 14.9238C104.373 14.1531 104.531 13.3855 104.869 12.6935C105.207 12.0015 105.713 11.408 106.341 10.9692C106.969 10.5304 107.697 10.2608 108.457 10.1858C109.217 10.1108 109.983 10.2329 110.683 10.5407C111.383 10.8484 111.993 11.3316 112.457 11.9445L115.714 9.39225C114.621 7.95069 113.109 6.8915 111.39 6.36351C109.671 5.83552 107.832 5.86527 106.13 6.44857C104.429 7.03188 102.951 8.13943 101.904 9.61559C100.858 11.0918 100.295 12.8623 100.295 14.6786C100.295 16.4948 100.858 18.2654 101.904 19.7416C102.951 21.2177 104.429 22.3253 106.13 22.9086C107.832 23.4919 109.671 23.5216 111.39 22.9936C113.109 22.4657 114.621 21.4065 115.714 19.9649L112.457 17.4127C112.044 17.9742 111.507 18.4312 110.889 18.7479C110.272 19.0645 109.59 19.2321 108.897 19.2375ZM78.4953 0V14.6754C78.4978 16.6016 77.8682 18.4742 76.7051 19.9999C75.5419 21.5255 73.911 22.618 72.0679 23.106C70.2247 23.5941 68.2735 23.4503 66.5199 22.697C64.7663 21.9437 63.3095 20.6236 62.3776 18.9435C61.4457 17.2634 61.0915 15.3182 61.3705 13.4128C61.6494 11.5073 62.5458 9.74925 63.919 8.41404C65.2923 7.07883 67.065 6.24191 68.9592 6.03443C70.8534 5.82695 72.7623 6.26063 74.3865 7.26751V0H78.4953ZM74.3865 14.6754C74.3878 13.7776 74.1255 12.8996 73.6329 12.1526C73.1403 11.4056 72.4395 10.8231 71.6193 10.479C70.7991 10.1348 69.8963 10.0444 69.0252 10.2193C68.1542 10.3941 67.354 10.8263 66.726 11.4611C66.0981 12.096 65.6706 12.9049 65.4976 13.7855C65.3247 14.6661 65.4141 15.5788 65.7545 16.408C66.0949 17.2373 66.6711 17.9457 67.41 18.4437C68.1489 18.9417 69.0174 19.2069 69.9054 19.2056C71.0884 19.2056 72.2235 18.7327 73.063 17.89C73.9024 17.0473 74.3782 15.9032 74.3865 14.7073V14.6754ZM50.4031 5.98501C48.1644 6.04635 46.0378 6.98851 44.4758 8.61099C42.9138 10.2335 42.0398 12.4081 42.0398 14.6722C42.0398 16.9363 42.9138 19.1109 44.4758 20.7334C46.0378 22.3559 48.1644 23.298 50.4031 23.3594C52.0269 23.364 53.6083 22.8356 54.9095 21.8536V23.1807H59.0119V14.7073C59.0127 13.5647 58.7905 12.4333 58.358 11.3777C57.9256 10.3221 57.2913 9.36318 56.4915 8.55587C55.6918 7.74856 54.7423 7.10873 53.6976 6.67304C52.6528 6.23736 51.5333 6.01439 50.4031 6.01691V5.98501ZM50.4031 19.2056C49.5153 19.2056 48.6475 18.9394 47.9094 18.4406C47.1713 17.9418 46.5961 17.2329 46.2567 16.4036C45.9172 15.5743 45.8287 14.6618 46.0024 13.7816C46.176 12.9014 46.604 12.0931 47.2322 11.4589C47.8605 10.8247 48.6606 10.3931 49.5315 10.2188C50.4024 10.0445 51.3049 10.1352 52.1247 10.4796C52.9446 10.8239 53.645 11.4064 54.1373 12.1532C54.6297 12.9001 54.8918 13.7779 54.8905 14.6754C54.8939 15.2733 54.7802 15.866 54.5562 16.4193C54.3322 16.9727 54.0022 17.4758 53.5852 17.8998C53.1681 18.3237 52.6723 18.6602 52.1262 18.8898C51.5801 19.1193 50.9945 19.2375 50.4031 19.2375V19.2056ZM117.935 22.9383H118.283V20.7497H119.097V20.4179H117.121V20.7306H117.935V22.9383ZM120.807 22.632L121.672 21.1007V22.9702H122V20.4179H121.722L120.725 22.1981L119.728 20.4179H119.444V22.9702H119.772V21.1326L120.637 22.6639L120.807 22.632ZM19.5276 16.3662C19.8198 17.1632 20.3181 17.8664 20.9706 18.4025C21.623 18.9386 22.4057 19.2881 23.2371 19.4145C24.0685 19.5409 24.9182 19.4396 25.6977 19.1212C26.4773 18.8028 27.1581 18.2789 27.6693 17.6041L30.7493 19.9904C29.5086 21.622 27.735 22.7551 25.7448 23.1877C23.7546 23.6202 21.6772 23.3242 19.8828 22.3523C18.0884 21.3805 16.6937 19.7959 15.9474 17.8812C15.2012 15.9665 15.1518 13.8461 15.8081 11.898C16.4644 9.9499 17.7837 8.30074 19.5308 7.24455C21.278 6.18836 23.3394 5.79378 25.3475 6.13116C27.3556 6.46855 29.18 7.51597 30.4953 9.08668C31.8106 10.6574 32.5314 12.6493 32.5291 14.7073C32.5278 15.264 32.475 15.8194 32.3713 16.3662H19.5276ZM19.5276 13.042H28.3636C28.0306 12.1284 27.4286 11.34 26.6386 10.7831C25.8486 10.2262 24.9087 9.92762 23.9456 9.92762C22.9825 9.92762 22.0426 10.2262 21.2526 10.7831C20.4626 11.34 19.8605 12.1284 19.5276 13.042ZM90.8089 6.13814C91.2631 6.75298 91.4892 7.50961 91.4476 8.27584C91.4061 9.04208 91.0996 9.7692 90.5817 10.3302C91.6594 10.5923 92.6028 11.2489 93.2296 12.1732C93.8564 13.0975 94.1221 14.2238 93.9753 15.3346C93.8286 16.4453 93.2798 17.4617 92.435 18.1873C91.5902 18.9128 90.5094 19.2961 89.4014 19.263C89.0411 19.4737 88.7418 19.7765 88.5338 20.1411C88.3258 20.5056 88.2163 20.9191 88.2163 21.3399C88.2163 21.7608 88.3258 22.1742 88.5338 22.5388C88.7418 22.9033 89.0411 23.2061 89.4014 23.4168C91.5353 23.3852 93.5811 22.5518 95.1404 21.0788C96.6997 19.6058 97.6608 17.5987 97.8364 15.4485C98.0121 13.2984 97.3898 11.1591 96.0907 9.44744C94.7916 7.73577 92.9087 6.57426 90.8089 6.18919V6.13814ZM87.3439 21.3176C87.3448 20.4856 87.6584 19.685 88.2212 19.078C87.1435 18.8159 86.2001 18.1593 85.5733 17.235C84.9465 16.3107 84.6808 15.1844 84.8276 14.0736C84.9743 12.9629 85.5231 11.9465 86.3679 11.2209C87.2126 10.4954 88.2934 10.1121 89.4014 10.1452C89.7618 9.93449 90.0611 9.63168 90.2691 9.26713C90.4771 8.90259 90.5866 8.48913 90.5866 8.06827C90.5866 7.64741 90.4771 7.23396 90.2691 6.86941C90.0611 6.50487 89.7618 6.20206 89.4014 5.99139C87.2676 6.02296 85.2218 6.85643 83.6625 8.32944C82.1032 9.80244 81.1421 11.8095 80.9664 13.9597C80.7908 16.1098 81.4131 18.2491 82.7122 19.9608C84.0113 21.6724 85.8942 22.8339 87.994 23.219C87.5825 22.6714 87.3548 22.0052 87.3439 21.3176Z" fill="#CCCCCC"/>
</svg>